<?xml version="1.0" standalone="no"?>
<!DOCTYPE svg PUBLIC "-//W3C//DTD SVG 1.1//EN" "http://www.w3.org/Graphics/SVG/1.1/DTD/svg11.dtd" >
<svg>
<metadata>
Created by FontForge 20120731 at Fri Nov 22 14:12:04 2013
 By World Wide Web Server
Copyright (c) 2010 by Jonathan Hill. All rights reserved.
</metadata>
<defs>
<font id="Lintel-Heavy" horiz-adv-x="491" >
  <font-face 
    font-family="Lintel Heavy"
    font-weight="900"
    font-stretch="normal"
    units-per-em="1000"
    panose-1="0 0 10 0 0 0 0 0 0 0"
    ascent="750"
    descent="-250"
    x-height="500.91"
    cap-height="700"
    bbox="-64.999 -237 1152.96 1068.59"
    underline-thickness="50"
    underline-position="-50"
    stemh="138"
    stemv="158"
    unicode-range="U+0020-FB02"
  />
<missing-glyph horiz-adv-x="500" 
d="M0 0v700h500v-700h-500zM250 395l170 255h-340zM280 350l170 -255v510zM80 50h340l-170 255zM50 605v-510l170 255z" />
    <glyph glyph-name="f_f" unicode="ff" horiz-adv-x="613" 
d="M344.54 501l-0.0107422 35.1084c0 134.79 101.15 176.25 193.58 176.25c20.79 0 40.9697 -2.08984 59.4502 -5.64941v-118.83c-13.5801 2.03027 -25.1602 3.01074 -34.9805 3.01074c-8.58984 0 -15.8398 -0.75 -21.9102 -2.2002
c-31.5098 -5.98047 -44.6201 -28.2803 -45.3799 -66.3398v-21.3398h94.8203v-113.07h-94.8203v-387.93h-150.75v387.93h-154.85v-387.93h-150.76v536.09c0 134.79 101.15 176.25 193.58 176.25c20.79 0 40.96 -2.08984 59.4404 -5.64941v-118.83
c-13.5801 2.03027 -25.1602 3.01074 -34.9805 3.01074c-8.58984 0 -15.8398 -0.75 -21.8994 -2.2002c-31.9199 -6.09961 -44.75 -28.9199 -45.3799 -67.6104v-20.0703h154.85z" />
    <glyph glyph-name="f_f_i" unicode="ffi" horiz-adv-x="839" 
d="M344.63 501l-0.00878906 35.0996c0 128.71 94.5801 176.25 210.72 176.25c77.5 0 138.51 -17.1904 175.6 -30.5908v-105.97s-55.5195 14.9199 -140.399 14.9199c-74.1699 0 -94.6201 -23.04 -95.1201 -76.46l-0.0400391 -13.25h306.2v-501h-150.76v387.94h-155.44
v-387.94h-150.76v387.94h-154.94v-387.94h-150.76v536.1c0 134.78 101.15 176.24 193.58 176.24c20.79 0 40.9697 -2.08984 59.4395 -5.64941v-118.82c-13.5703 2.03027 -25.1504 3.01074 -34.9805 3.01074c-8.58984 0 -15.8301 -0.75 -21.9004 -2.20996
c-32.8398 -6.33984 -45 -30.3496 -45.3301 -70.4395l-0.0400391 -17.2305h154.94z" />
    <glyph glyph-name="f_f_j" unicode="ffj" horiz-adv-x="839" 
d="M344.63 501l-0.00195312 35.0898c0 128.72 94.5801 176.25 210.72 176.25c77.5 0 138.51 -17.1904 175.6 -30.5908v-105.97s-55.5195 14.9199 -140.399 14.9199c-71.8096 0 -94.1191 -21.6104 -95.0488 -73.0801l-0.110352 -16.6201h306.2v-515
c0 -127.35 -97.5996 -170.409 -190.05 -170.409c-10.8701 0 -21.6797 0.700195 -32.8096 1.41016v120c3.78027 -0.25 7.33984 -0.379883 10.7002 -0.379883c58.6904 0 61.4004 36.3496 61.4004 77.2695v374.05h-155.45v-387.94h-150.76v387.94h-154.94v-387.94h-150.76
v536.1c0 134.78 101.15 176.24 193.58 176.24c20.79 0 40.9697 -2.08984 59.4395 -5.64941v-118.82c-13.5703 2.03027 -25.1504 3.01074 -34.9805 3.01074c-8.58008 0 -15.8301 -0.75 -21.8896 -2.20996c-32.3398 -6.2002 -44.8799 -29.5498 -45.3096 -68.8701
l-0.0703125 -18.7998h154.94z" />
    <glyph glyph-name="f_f_l" unicode="ffl" horiz-adv-x="839" 
d="M344.63 501.13l-0.000976562 35.0996c0 128.71 94.5898 176.25 210.729 176.25c158.41 0 246.23 -65.21 246.23 -65.21v-647.14h-150.75v576.09c-28.3896 9.20996 -53.8193 14.6201 -85.959 14.6201c-50.9004 0 -69.1504 -26.1699 -69.4805 -71.6299
l-0.00976562 -18.0801h94.8096v-113.06h-94.8096v-387.94h-150.76v387.94h-154.94v-387.94h-150.75v536.1c0 134.78 101.15 176.24 193.57 176.24c20.79 0 40.9697 -2.08984 59.4395 -5.64941v-118.82c-13.5703 2.03027 -25.1504 3.01074 -34.9805 3.01074
c-8.58984 0 -15.8398 -0.75 -21.8994 -2.2002c-32.5098 -6.25 -44.9199 -29.8203 -45.3203 -69.3906l-0.0595703 -18.29h154.94z" />
    <glyph glyph-name="fi" unicode="fi" horiz-adv-x="534" 
d="M38.9297 0l0.00976562 536.091c0 128.72 94.5801 176.25 210.72 176.25c77.5 0 138.5 -17.1904 175.6 -30.5908v-105.97s-55.5195 14.9199 -140.409 14.9199c-72.1602 0 -94.1904 -21.8301 -95.0605 -73.5898l-0.0996094 -16.1104h306.21v-501h-150.76v387.93h-155.45
v-387.93h-150.76z" />
    <glyph glyph-name="fl" unicode="fl" horiz-adv-x="533" 
d="M38.9297 0l-0.000976562 536.089c0 128.71 94.5898 176.25 210.729 176.25c158.41 0 246.24 -65.21 246.24 -65.21v-647.14h-150.76v576.09c-28.3896 9.20996 -53.8193 14.6201 -85.959 14.6201c-52.7197 0 -69.4102 -28.1396 -69.5 -74.6592l0.00976562 -15.04h94.8096
v-113.07h-94.8096v-387.93h-150.76z" />
    <glyph glyph-name=".notdef" horiz-adv-x="500" 
d="M0 0v700h500v-700h-500zM250 395l170 255h-340zM280 350l170 -255v510zM80 50h340l-170 255zM50 605v-510l170 255z" />
    <glyph glyph-name="A" unicode="A" horiz-adv-x="641" 
d="M627.02 0h-163.831l-44.9297 159.7h-195.06l-45.0801 -159.7h-163.66l227.98 700h156.59zM259.188 298.3h123.08l-61.54 219.2z" />
    <glyph glyph-name="Aacute" unicode="&#xc1;" horiz-adv-x="641" 
d="M374.06 777.77h-98.1504l61.04 126.34h132.73zM627.02 -0h-163.831l-44.9297 159.7h-195.06l-45.0801 -159.7h-163.66l227.98 700h156.59zM259.188 298.3h123.08l-61.54 219.2z" />
    <glyph glyph-name="Abreve" unicode="&#x102;" horiz-adv-x="641" 
d="M422.47 899.19h63.5605c0 -88.9697 -69.8896 -148.64 -164.92 -148.64c-95.04 0 -164.92 59.6699 -164.92 148.64h63.5498c5.95996 -54.9004 56.7002 -72.4707 101.37 -72.4707c44.5195 0 95.3994 17.5703 101.359 72.4707zM627.021 0h-163.821l-44.9297 159.7h-195.06
l-45.0801 -159.7h-163.66l227.98 700h156.58zM259.199 298.3h123.07l-61.54 219.2z" />
    <glyph glyph-name="Acaron" unicode="&#x1cd;" horiz-adv-x="641" 
d="M389.22 773.92h-133.73l-116.02 146.55h113.78l69 -85.4805l68.3203 85.4805h113.85zM627.009 -0h-163.821l-44.9297 159.7h-195.06l-45.0801 -159.7h-163.66l227.98 700h156.58zM259.188 298.3h123.07l-61.54 219.2z" />
    <glyph glyph-name="Acircumflex" unicode="&#xc2;" horiz-adv-x="641" 
d="M506.01 773.33h-113.851l-68.3096 85.4697l-69 -85.4697h-113.78l116.01 146.54h133.73zM627.02 0h-163.821l-44.9297 159.7h-195.06l-45.0801 -159.7h-163.66l227.98 700h156.58zM259.198 298.3h123.07l-61.54 219.2z" />
    <glyph glyph-name="Adieresis" unicode="&#xc4;" horiz-adv-x="641" 
d="M221.18 899.21c37.79 0 66.9199 -29.1299 66.9199 -69.4697c0 -38.6396 -29.1299 -69.4697 -67.7695 -69.4697c-39.4902 0 -70.3203 30.8301 -70.3203 69.4697c0 40.3398 30.8301 69.4697 71.1699 69.4697zM433.899 899.21c37.79 0 66.9199 -29.1299 66.9199 -69.4697
c0 -38.6396 -29.1299 -69.4697 -67.7695 -69.4697c-39.4902 0 -70.3203 30.8301 -70.3203 69.4697c0 40.3398 30.8301 69.4697 71.1699 69.4697zM627.01 -0h-163.821l-44.9297 159.7h-195.06l-45.0801 -159.7h-163.66l227.98 700h156.58zM259.188 298.3h123.07l-61.54 219.2
z" />
    <glyph glyph-name="Agrave" unicode="&#xc0;" horiz-adv-x="641" 
d="M388.94 776.92h-98.1504l-95.6201 126.33h132.73zM627.021 -0h-163.831l-44.9297 159.7h-195.06l-45.0801 -159.7h-163.66l227.98 700h156.59zM259.189 298.3h123.08l-61.54 219.2z" />
    <glyph glyph-name="Amacron" unicode="&#x100;" horiz-adv-x="641" 
d="M451.86 798.57h-264.24v76.0303h264.24v-76.0303zM627.01 0h-163.821l-44.9297 159.7h-195.06l-45.0801 -159.7h-163.66l227.98 700h156.58zM259.188 298.3h123.07l-61.54 219.2z" />
    <glyph glyph-name="Aogonek" unicode="&#x104;" horiz-adv-x="650" 
d="M627.01 -1l-80.3926 -0.0117188c-43.8096 -43.7598 -53.9492 -72.7197 -53.9492 -96.7295c0 -20.9697 12.5801 -32.2695 29.5098 -32.2695c26.2197 -1 41.1602 18 60.4502 43l55.7803 -20c-33.3496 -59 -78.75 -96 -146.02 -96c-34.1504 0 -99.3701 16 -99.3701 90
c0 28 13.8701 66 70.1504 113.08l-44.9102 159.61h-195.06l-45.0801 -159.68h-163.66l227.98 699.98h156.59zM259.188 298.269h123.07l-61.54 219.2z" />
    <glyph glyph-name="Aring" unicode="&#xc5;" horiz-adv-x="641" 
d="M321.08 962.82c64.9004 0 121.779 -54.8691 121.779 -121.35c0 -64.54 -55.8203 -121.36 -121.78 -121.36c-66.0195 0 -121.779 57.7695 -121.779 121.359c0 65.5303 56.8203 121.351 121.78 121.351zM321.079 893.802c-28.5195 0 -52.0596 -22.8398 -52.0596 -52.3301
c0 -28.0303 23.7598 -52.4805 52.0596 -52.4805c28.1504 0 51.9102 24.4502 51.9102 52.4805c0 29.4902 -23.54 52.3301 -51.9102 52.3301zM627.02 0.00195312h-163.831l-44.9297 159.7h-195.06l-45.0801 -159.7h-163.66l227.98 700h156.59zM259.188 298.302h123.08
l-61.54 219.2z" />
    <glyph glyph-name="Atilde" unicode="&#xc3;" horiz-adv-x="641" 
d="M202.03 778.01l-51.7881 68.541c5.20996 5.50977 59.8301 63.8496 116.44 63.8496c46.4502 0 66.79 -37.5 103.83 -37.5c35.7998 0 65.8994 41.7402 69.3291 45.3203l52.1699 -68.6904c-4.16992 -3.87012 -58.8701 -61.6201 -114.73 -61.6201
c-46.46 0 -70.9102 37.2002 -110.9 37.2002c-31.6201 0 -60.0303 -42.1904 -64.3506 -47.1006zM627.022 0.000976562h-163.821l-44.9297 159.7h-195.06l-45.0801 -159.7h-163.66l227.98 700h156.58zM259.201 298.301h123.07l-61.54 219.2z" />
    <glyph glyph-name="AE" unicode="&#xc6;" horiz-adv-x="794" 
d="M761.17 561.4h-294.94l6.58008 -142.51h263.56v-138.61h-254.11l6.53027 -141.69h276.14v-138.59h-416.06l-8.12988 159.7h-117.54l-45.0801 -159.7h-163.66l227.98 700h518.73v-138.6zM259.189 298.301h72.1797l-11.6797 216.23z" />
    <glyph glyph-name="B" unicode="B" horiz-adv-x="594" 
d="M58.1904 700.07l299.32 -0.000976562c119.72 0 188.77 -87.8896 188.77 -186.62c0 -73.0498 -24.1104 -127.609 -68.1807 -160.199c54.4004 -32.4502 83.9805 -91.9307 83.9805 -156.271c0 -125.01 -70.79 -196.979 -189.58 -196.979h-314.31v700.07zM215.871 419.619
h102.691c45.4697 0 70.1895 25.1602 70.1895 73.2803c0 37.5195 -24.2803 68.4199 -69.3105 68.4199h-103.57v-141.7zM215.713 279.81l0.000976562 -141.69h118.4c45.4697 0 70.1895 25.1602 70.1895 73.2705c0 37.5195 -24.2803 68.4199 -69.3105 68.4199h-119.28z" />
    <glyph glyph-name="C" unicode="C" horiz-adv-x="565" 
d="M46.7002 239.27v225.229c0 163.32 112.21 249.431 257.91 249.431c120.6 0 200.83 -60.6904 231.49 -154.29l-114.14 -51.1201c-16.9102 44.3398 -59.5801 66.8398 -104.86 66.8398c-59.9502 0 -112.891 -36.8096 -112.891 -110.859v-225.22
c0 -74.0498 52.9404 -110.859 112.891 -110.859c45.2803 0 87.9502 22.5 104.86 66.8398l114.14 -51.1201c-30.6602 -93.5996 -110.891 -154.14 -231.49 -154.14c-145.7 0 -257.91 85.96 -257.91 249.27z" />
    <glyph glyph-name="Cacute" unicode="&#x106;" horiz-adv-x="565" 
d="M342.55 777.77h-98.1504l61.04 126.34h132.73zM46.6992 239.279v225.229c0 163.31 112.21 249.42 257.91 249.42c120.6 0 200.83 -60.6797 231.49 -154.279l-114.14 -51.1299c-16.9102 44.3398 -59.5801 66.8496 -104.86 66.8496
c-59.9502 0 -112.891 -36.8096 -112.891 -110.869v-225.21c0 -74.0596 52.9404 -110.869 112.891 -110.869c45.2803 0 87.9502 22.5098 104.86 66.8496l114.14 -51.1299c-30.6602 -93.5996 -110.891 -154.14 -231.49 -154.14c-145.7 0 -257.91 85.9697 -257.91 249.279z" />
    <glyph glyph-name="Ccaron" unicode="&#x10c;" horiz-adv-x="565" 
d="M345.91 773.92h-133.739l-116.01 146.55h113.78l69 -85.4805l68.3096 85.4805h113.85zM46.6904 239.27v225.229c0 163.32 112.21 249.431 257.91 249.431c120.6 0 200.83 -60.6904 231.49 -154.29l-114.14 -51.1201c-16.9102 44.3398 -59.5801 66.8398 -104.86 66.8398
c-59.9502 0 -112.891 -36.8096 -112.891 -110.859v-225.22c0 -74.0498 52.9404 -110.859 112.891 -110.859c45.2803 0 87.9502 22.5 104.86 66.8398l114.14 -51.1201c-30.6602 -93.5996 -110.891 -154.14 -231.49 -154.14c-145.7 0 -257.91 85.96 -257.91 249.27z" />
    <glyph glyph-name="Ccedilla" unicode="&#xc7;" horiz-adv-x="565" 
d="M46.7002 239.27l-0.00878906 225.229c0 163.32 112.22 249.431 257.91 249.431c120.6 0 200.84 -60.6904 231.49 -154.29l-114.13 -51.1201c-16.9102 44.3398 -59.5898 66.8398 -104.859 66.8398c-59.9502 0 -112.9 -36.8096 -112.9 -110.859v-225.22
c0 -74.0498 52.9502 -110.859 112.9 -110.859c45.2695 0 87.9492 22.5 104.859 66.8398l114.13 -51.1201c-25.3604 -75.6201 -83.1406 -129.44 -168.57 -147.141c-18.4297 -4 -38.0801 -6 -58.9102 -7l-19.6201 -28c7.33008 1.16992 14.75 1.66016 22.0801 1.66016
c5.19043 0 10.3301 -0.25 15.3799 -0.660156c46.2402 -6 82.3203 -32 82.3203 -88c0 -77 -66.1699 -104 -135.92 -104c-48.1201 0 -96.8701 21 -124.99 33l23.6797 56c29.7002 -12 59.1006 -19 87.9004 -22c26.96 -2 49.4795 10 49.4795 32c0 23 -12.9697 34 -38.21 34
c-15.1201 0 -30.1006 -4 -49.041 -12l-28.4199 26l49.6602 78c-114.55 20.7998 -196.21 103.91 -196.21 243.271z" />
    <glyph glyph-name="Cdotaccent" unicode="&#x10a;" horiz-adv-x="565" 
d="M284.34 899.2c37.79 0 66.9199 -29.1299 66.9199 -69.4697c0 -38.6396 -29.1299 -69.4697 -67.7695 -69.4697c-39.4902 0 -70.3203 30.8301 -70.3203 69.4697c0 40.3398 30.8301 69.4697 71.1699 69.4697zM46.7002 239.271v225.229
c0 163.32 112.21 249.431 257.91 249.431c120.6 0 200.83 -60.6904 231.49 -154.29l-114.14 -51.1201c-16.9102 44.3398 -59.5801 66.8398 -104.86 66.8398c-59.9502 0 -112.891 -36.8096 -112.891 -110.859v-225.22c0 -74.0498 52.9404 -110.859 112.891 -110.859
c45.2803 0 87.9502 22.5 104.86 66.8398l114.14 -51.1201c-30.6602 -93.5996 -110.891 -154.14 -231.49 -154.14c-145.7 0 -257.91 85.96 -257.91 249.27z" />
    <glyph glyph-name="D" unicode="D" horiz-adv-x="614" 
d="M58.1904 700h247.02c172.73 0 262.181 -112.24 262.181 -248.601v-225.06c0 -172.78 -124.95 -226.34 -245.69 -226.34h-263.51v700zM215.7 561.4v-422.81h106c61.3096 0 88.1797 16.6396 88.1797 87.75v225.05c0 71.5801 -32.9697 110.01 -104.67 110.01h-89.5098z" />
    <glyph glyph-name="Eth" unicode="&#xd0;" horiz-adv-x="646" 
d="M90.5 700l247.02 0.00976562c172.73 0 262.181 -112.25 262.181 -248.61v-225.06c0 -172.78 -124.95 -226.34 -245.69 -226.34h-263.51v280.2h-80.5v138.6h80.5v281.2zM248.02 561.41v-142.609h95.7402v-138.59h-95.7402v-141.61h105.99
c61.3096 0 88.1797 16.6396 88.1797 87.75v225.06c0 71.5703 -32.9697 110 -104.67 110h-89.5z" />
    <glyph glyph-name="Dcaron" unicode="&#x10e;" horiz-adv-x="614" 
d="M375.09 773.92h-133.73l-116.02 146.55h113.78l69 -85.4805l68.3203 85.4805h113.85zM58.1797 700h247.02c172.73 0 262.181 -112.24 262.181 -248.601v-225.06c0 -172.78 -124.94 -226.34 -245.69 -226.34h-263.51v700zM215.689 561.4l0.00976562 -422.81h105.99
c61.3096 0 88.1797 16.6396 88.1797 87.75v225.05c0 71.5801 -32.9697 110.01 -104.67 110.01h-89.5098z" />
    <glyph glyph-name="Dcroat" unicode="&#x110;" horiz-adv-x="641" 
d="M86.4502 700h247.02c172.73 0 262.181 -112.25 262.181 -248.61v-225.06c0 -172.78 -124.95 -226.34 -245.7 -226.34h-263.5v311.92h-72.2002v76.0195h72.2002v312.07zM243.96 561.4l-0.000976562 -173.47h104.26v-76.0195h-104.26v-173.32h105.99
c61.3203 0 88.1807 16.6396 88.1807 87.75v225.06c0 71.5703 -32.96 110 -104.66 110h-89.5098z" />
    <glyph glyph-name="E" unicode="E" horiz-adv-x="554" 
d="M519.2 561.4l-303.5 -0.000976562v-142.51h279.6v-138.6h-279.6v-141.69h308.45v-138.6h-465.96v700h461.01v-138.6z" />
    <glyph glyph-name="Eacute" unicode="&#xc9;" horiz-adv-x="554" 
d="M331.33 777.77h-98.1494l61.0498 126.34h132.72zM519.2 561.399l-303.5 0.00878906v-142.52h279.6v-138.6h-279.6v-141.69h308.45v-138.6h-465.96v700h461.01v-138.6z" />
    <glyph glyph-name="Ecaron" unicode="&#x11a;" horiz-adv-x="554" 
d="M327.61 773.92h-133.73l-116.02 146.55h113.78l69 -85.4805l68.3203 85.4805h113.85zM519.2 561.4l-303.5 -0.000976562v-142.51h279.59v-138.6h-279.59v-141.69h308.44v-138.6h-465.96v700h461.02v-138.6z" />
    <glyph glyph-name="Ecircumflex" unicode="&#xca;" horiz-adv-x="554" 
d="M444.39 773.33h-113.841l-68.3203 85.4697l-69 -85.4697h-113.77l116.01 146.54h133.73zM519.199 561.4l-303.5 -0.000976562v-142.51h279.6v-138.6h-279.6v-141.69h308.45v-138.6h-465.96v700h461.01v-138.6z" />
    <glyph glyph-name="Edieresis" unicode="&#xcb;" horiz-adv-x="554" 
d="M159.57 899.21c37.79 0 66.9199 -29.1299 66.9199 -69.4697c0 -38.6396 -29.1299 -69.4697 -67.7695 -69.4697c-39.4902 0 -70.3203 30.8301 -70.3203 69.4697c0 40.3398 30.8301 69.4697 71.1699 69.4697zM372.29 899.21c37.79 0 66.9199 -29.1299 66.9199 -69.4697
c0 -38.6396 -29.1299 -69.4697 -67.7695 -69.4697c-39.4902 0 -70.3203 30.8301 -70.3203 69.4697c0 40.3398 30.8301 69.4697 71.1699 69.4697zM519.2 561.4l-303.5 -0.000976562v-142.51h279.59v-138.6h-279.59v-141.69h308.44v-138.6h-465.96v700h461.02v-138.6z" />
    <glyph glyph-name="Edotaccent" unicode="&#x116;" horiz-adv-x="554" 
d="M263.64 899.15c37.79 0 66.9199 -29.1299 66.9199 -69.4697c0 -38.6396 -29.1299 -69.4697 -67.7695 -69.4697c-39.4902 0 -70.3203 30.8301 -70.3203 69.4697c0 40.3398 30.8301 69.4697 71.1699 69.4697zM519.199 561.4l-303.5 -0.000976562v-142.51h279.6v-138.6
h-279.6v-141.69h308.45v-138.6h-465.96v700h461.01v-138.6z" />
    <glyph glyph-name="Egrave" unicode="&#xc8;" horiz-adv-x="554" 
d="M382.22 776.92h-98.1494l-95.6201 126.33h132.72zM519.2 561.4l-303.5 -0.000976562v-142.51h279.59v-138.6h-279.59v-141.69h308.44v-138.6h-465.96v700h461.02v-138.6z" />
    <glyph glyph-name="Emacron" unicode="&#x112;" horiz-adv-x="554" 
d="M423.24 798.57h-264.24v76.0303h264.24v-76.0303zM519.15 561.4l-303.5 -0.000976562v-142.51h279.6v-138.6h-279.6v-141.69h308.45v-138.6h-465.96v700h461.01v-138.6z" />
    <glyph glyph-name="Eogonek" unicode="&#x118;" horiz-adv-x="560" 
d="M519.16 561.26l-303.42 -0.000976562v-142.45h279.52v-138.59h-279.52v-141.63h308.37v-138.59h-84.7695c-32.9297 -35.79 -57.5293 -68.25 -57.5293 -99.6797c0 -21.6699 13.5195 -32.3604 31.3594 -32.3604c25.0596 0 39.7393 19.6396 58.5596 44.04l55.7803 -22
c-33.3604 -58 -78.7705 -94 -146.011 -94c-34.1299 0 -99.3398 14 -99.3398 89c0 35 25.7402 75 71.1904 115.15h-295.12v699.86h460.93v-138.75z" />
    <glyph glyph-name="F" unicode="F" horiz-adv-x="538" 
d="M509.15 561.4l-293.45 -0.000976562v-142.51h264.59v-138.6h-264.59v-280.29h-157.51v700h450.96v-138.6z" />
    <glyph glyph-name="G" unicode="G" horiz-adv-x="614" 
d="M46.7002 228.72l-0.00292969 235.768c0 163.31 109.42 249.42 261.36 249.42c125.53 0 206 -60.2402 236.84 -153.271l-124.45 -52.5703c-22.6699 46.7402 -49.3896 67.2705 -108.72 67.2705c-71.3896 0 -107.51 -28.6201 -107.51 -110.851v-235.77
c0 -75.7598 45.6504 -100.109 103.011 -100.109c57.7695 0 96.2598 23.8799 96.2598 100.11v38.9805h-100.34v130.94h257.86v-398.64h-114.11l-5.84961 49.8896c-37.3096 -41.0596 -95.8193 -59.8994 -154.879 -59.8994c-115.17 0 -239.47 74.5 -239.47 238.73z" />
    <glyph glyph-name="Gbreve" unicode="&#x11e;" horiz-adv-x="614" 
d="M408.89 899.19h63.5605c0 -88.9697 -69.8799 -148.64 -164.92 -148.64c-95.0303 0 -164.92 59.6699 -164.92 148.64h63.5596c5.95996 -54.9004 56.6904 -72.4707 101.36 -72.4707c44.5195 0 95.4092 17.5703 101.359 72.4707zM46.71 228.721l-0.00292969 235.768
c0 163.31 109.42 249.42 261.36 249.42c125.53 0 206 -60.2402 236.84 -153.271l-124.45 -52.5703c-22.6699 46.7402 -49.3896 67.2705 -108.72 67.2705c-71.3896 0 -107.51 -28.6201 -107.51 -110.851v-235.77c0 -75.7598 45.6504 -100.109 103.011 -100.109
c57.7695 0 96.2598 23.8799 96.2598 100.11v38.9805h-100.34v130.94h257.86v-398.64h-114.11l-5.84961 49.8896c-37.3096 -41.0596 -95.8193 -59.8994 -154.879 -59.8994c-115.17 0 -239.47 74.5 -239.47 238.73z" />
    <glyph glyph-name="Gcommaaccent" unicode="&#x122;" horiz-adv-x="614" 
d="M46.7002 228.72l-0.00292969 235.768c0 163.31 109.42 249.42 261.36 249.42c125.53 0 206 -60.2402 236.84 -153.271l-124.45 -52.5703c-22.6699 46.7402 -49.3896 67.2705 -108.72 67.2705c-71.3896 0 -107.51 -28.6201 -107.51 -110.851v-235.77
c0 -75.7598 45.6504 -100.109 103.011 -100.109c57.7695 0 96.2598 23.8799 96.2598 100.11v38.9805h-100.34v130.94h257.86v-398.64h-114.11l-5.84961 49.8896c-37.3096 -41.0596 -95.8193 -59.8994 -154.879 -59.8994c-115.17 0 -239.47 74.5 -239.47 238.73z
M239.957 -231.013l23.501 73c-11.2305 10 -18.4502 24 -18.4502 39c0 29 23.7695 53 52.4395 53s52.4297 -24 52.4297 -53c0 -8 -2.29004 -16 -6.2998 -24l-41.5 -88h-62.1201z" />
    <glyph glyph-name="Gdotaccent" unicode="&#x120;" horiz-adv-x="614" 
d="M298.3 904.24c37.79 0 66.9199 -29.1299 66.9199 -69.4697c0 -38.6396 -29.1299 -69.4697 -67.7695 -69.4697c-39.4902 0 -70.3203 30.8301 -70.3203 69.4697c0 40.3398 30.8301 69.4697 71.1699 69.4697zM46.7002 228.721l-0.00292969 235.768
c0 163.31 109.42 249.42 261.36 249.42c125.53 0 206 -60.2402 236.84 -153.271l-124.45 -52.5703c-22.6699 46.7402 -49.3896 67.2705 -108.72 67.2705c-71.3896 0 -107.51 -28.6201 -107.51 -110.851v-235.77c0 -75.7598 45.6504 -100.109 103.011 -100.109
c57.7695 0 96.2598 23.8799 96.2598 100.11v38.9805h-100.34v130.94h257.86v-398.64h-114.11l-5.84961 49.8896c-37.3096 -41.0596 -95.8193 -59.8994 -154.879 -59.8994c-115.17 0 -239.47 74.5 -239.47 238.73z" />
    <glyph glyph-name="H" unicode="H" horiz-adv-x="636" 
d="M577.6 0h-157.51v280.29h-204.39v-280.29h-157.51v700h157.51v-281.12h204.39v281.12h157.51v-700z" />
    <glyph glyph-name="Hbar" unicode="&#x126;" horiz-adv-x="705" 
d="M612.44 594.5h76.8301v-75.6602h-76.8301v-518.84h-157.52v280.28h-204.38v-280.28h-157.52v518.84h-76.4102v75.6602h76.4102v105.5h157.52v-105.5h204.38v105.5h157.52v-105.5zM250.54 518.84v-99.9502h204.38v99.9502h-204.38z" />
    <glyph glyph-name="I" unicode="I" horiz-adv-x="273" 
d="M215.7 0h-157.51v700h157.51v-700z" />
    <glyph glyph-name="IJ" unicode="&#x132;" horiz-adv-x="655" 
d="M215.7 0h-157.51v700h157.51v-700zM605.83 699.03l0.000976562 -475.311c0 -151.27 -101.8 -232.56 -242.99 -232.56c-23.54 0 -48.1797 2.25977 -73.6299 6.83984v137.86c19.8701 -4.69043 39.5801 -7.37012 58.0098 -7.37012c56.5898 0 101.1 25.2803 101.1 95.2402
v475.3h157.51z" />
    <glyph glyph-name="Iacute" unicode="&#xcd;" horiz-adv-x="273" 
d="M185.63 777.77h-98.1494l61.0498 126.34h132.72zM215.7 -0h-157.51v700h157.51v-700z" />
    <glyph glyph-name="Icaron" unicode="&#x1cf;" horiz-adv-x="273" 
d="M205.21 773.92h-133.738l-116.48 146.55h114.31l68.9404 -85.4805l68.3096 85.4805h113.85zM215.691 -0h-157.51v700h157.51v-700z" />
    <glyph glyph-name="Icircumflex" unicode="&#xce;" horiz-adv-x="273" 
d="M321.99 773.33h-113.841l-68.3203 85.4697l-68.9297 -85.4697h-113.9l116.07 146.54h133.73zM215.699 0h-157.51v700h157.51v-700z" />
    <glyph glyph-name="Idieresis" unicode="&#xcf;" horiz-adv-x="273" 
d="M37.1699 899.21c37.79 0 66.9092 -29.1299 66.9092 -69.4697c0 -38.6396 -29.1299 -69.4697 -67.7695 -69.4697c-40.3096 0 -70.3096 30.8301 -70.3096 69.4697c0 40.3398 30 69.4697 71.1699 69.4697zM249.89 899.21c37.79 0 66.9199 -29.1299 66.9199 -69.4697
c0 -38.6396 -29.1299 -69.4697 -67.7695 -69.4697c-39.4902 0 -70.3203 30.8301 -70.3203 69.4697c0 40.3398 30.8301 69.4697 71.1699 69.4697zM215.699 -0h-157.51v700h157.51v-700z" />
    <glyph glyph-name="Idotaccent" unicode="&#x130;" horiz-adv-x="273" 
d="M140.22 904.52c37.79 0 66.9199 -29.1299 66.9199 -69.4697c0 -38.6396 -29.1299 -69.4697 -67.7695 -69.4697c-39.4902 0 -70.3203 30.8301 -70.3203 69.4697c0 40.3398 30.8301 69.4697 71.1699 69.4697zM215.7 -0h-157.51v700h157.51v-700z" />
    <glyph glyph-name="Igrave" unicode="&#xcc;" horiz-adv-x="273" 
d="M210.62 776.92h-98.1504l-95.6201 126.33h132.73zM215.7 -0h-157.51v700h157.51v-700z" />
    <glyph glyph-name="Imacron" unicode="&#x12a;" horiz-adv-x="273" 
d="M267.85 813.04h-264.24v76.0195h264.24v-76.0195zM215.699 0h-157.51v700h157.51v-700z" />
    <glyph glyph-name="Iogonek" unicode="&#x12e;" horiz-adv-x="273" 
d="M215.7 700l0.0107422 -700.011c-45.5 -44.8301 -55.8301 -73.71 -55.8301 -97.6797c0 -21.79 13.5303 -33.3496 31.3701 -33.3496c25.0703 0 39.75 19.6396 58.5801 44.04l55.7803 -22c-33.3496 -58 -78.75 -94 -146.03 -94c-34.1504 0 -99.3701 15 -99.3701 89
c0 29 14.2598 66 69.2598 114h-71.2803v700h157.51z" />
    <glyph glyph-name="J" unicode="J" horiz-adv-x="382" 
d="M332.57 699.03l0.000976562 -475.311c0 -151.27 -101.8 -232.56 -242.99 -232.56c-23.54 0 -48.1797 2.25977 -73.6299 6.83984v137.86c19.8701 -4.69043 39.5801 -7.37012 58.0098 -7.37012c56.5898 0 101.1 25.2803 101.1 95.2402v475.3h157.51z" />
    <glyph glyph-name="K" unicode="K" horiz-adv-x="627" 
d="M356.75 400.84l255.51 -400.839h-188.88l-164.22 277.39l-43.46 -53.9404v-223.45h-157.51v700h157.51v-243.46l182.01 243.46h197.04z" />
    <glyph glyph-name="Kcommaaccent" unicode="&#x136;" horiz-adv-x="627" 
d="M356.75 400.83l255.51 -400.829h-188.88l-164.22 277.39l-43.4502 -53.9404v-223.45h-157.52v700h157.52v-243.46l182 243.46h197.04zM245.49 -230.999l23.5107 73c-11.2305 10 -18.4502 24 -18.4502 39c0 29 23.7598 53 52.4297 53s52.4395 -24 52.4395 -53
c0 -8 -2.29004 -16 -6.2998 -24l-41.5 -88h-62.1299z" />
    <glyph glyph-name="L" unicode="L" horiz-adv-x="485" 
d="M215.7 138.6h251.17v-138.6h-408.68v700h157.51v-561.4z" />
    <glyph glyph-name="Lacute" unicode="&#x139;" horiz-adv-x="485" 
d="M184.62 777.77h-98.1504l61.04 126.34h132.73zM215.7 138.6h251.17v-138.6h-408.68v700h157.51v-561.4z" />
    <glyph glyph-name="Lcaron" unicode="&#x13d;" horiz-adv-x="485" 
d="M299.83 560.21l36.6504 114.799c-17.6201 15.2305 -28.9004 37.7207 -28.9004 62.541c0 45.4502 37.6396 83.0898 83.0898 83.0898s83.0898 -37.6396 83.0898 -83.0898c0 -14.1299 -3.63965 -27.4902 -10.0098 -39.21l-65.0498 -138.13h-98.8701zM215.7 138.589h251.17
v-138.6h-408.68v700h157.51v-561.4z" />
    <glyph glyph-name="Lcommaaccent" unicode="&#x13b;" horiz-adv-x="485" 
d="M215.7 138.6h251.17v-138.6h-408.68v700h157.51v-561.4zM190.4 -231l23.5107 73c-11.2305 10 -18.4502 24 -18.4502 39c0 29 23.7598 53 52.4297 53s52.4395 -24 52.4395 -53c0 -8 -2.29004 -16 -6.2998 -24l-41.5 -88h-62.1299z" />
    <glyph glyph-name="Ldot" unicode="&#x13f;" horiz-adv-x="485" 
d="M215.7 138.6h251.17v-138.6h-408.68v700h157.51v-561.4zM388.351 510.569c45.4502 0 83.0898 -37.6396 83.0898 -83.0898s-37.6396 -83.0605 -83.0898 -83.0605s-83.2705 37.6104 -83.2705 83.0605s37.8203 83.0898 83.2705 83.0898z" />
    <glyph glyph-name="Lslash" unicode="&#x141;" horiz-adv-x="563" 
d="M293.72 464.72l111.021 49.9697l57.6797 -122.59l-168.7 -75.7598v-177.75h251.17v-138.59h-408.68v245.75l-74.8203 -33.5596l-51.3896 124.8l126.21 56.7598v306.25h157.51v-235.28z" />
    <glyph glyph-name="M" unicode="M" horiz-adv-x="755" 
d="M697.46 0h-156.689v344.6l-108.98 -265.42h-112.48l-108.69 265.42v-344.6h-156.68v700h160.27l161.49 -389.93l161.48 389.93h160.28v-700z" />
    <glyph glyph-name="N" unicode="N" horiz-adv-x="646" 
d="M593.29 0h-165.141l-217.45 384.94v-384.94h-157.51v700h156.69l225.9 -400.51v400.51h157.51v-700z" />
    <glyph glyph-name="Nacute" unicode="&#x143;" horiz-adv-x="646" 
d="M365.65 772.66h-98.1504l61.04 126.34h132.73zM593.3 0h-165.141l-217.46 384.94v-384.94h-157.51v700h156.69l225.91 -400.51v400.51h157.51v-700z" />
    <glyph glyph-name="Ncaron" unicode="&#x147;" horiz-adv-x="646" 
d="M387.19 773.92h-133.73l-116.02 146.55h113.78l69 -85.4805l68.3203 85.4805h113.84zM593.29 -0h-165.141l-217.46 384.94v-384.94h-157.51v700h156.69l225.91 -400.51v400.51h157.51v-700z" />
    <glyph glyph-name="Ncommaaccent" unicode="&#x145;" horiz-adv-x="646" 
d="M593.29 0h-165.141l-217.45 384.94v-384.94h-157.51v700h156.69l225.9 -400.51v400.51h157.51v-700zM262.51 -231l23.5107 73c-11.2305 10 -18.4502 24 -18.4502 39c0 29 23.7598 53 52.4297 53s52.4395 -24 52.4395 -53c0 -8 -2.29004 -16 -6.30957 -24l-41.5 -88
h-62.1201z" />
    <glyph glyph-name="Eng" unicode="&#x14a;" horiz-adv-x="646" 
d="M593.29 700l-0.000976562 -738.009c0 -119 -87.3496 -162 -172.17 -168c-9.45996 -0.570312 -18.9502 -1.15039 -28.7197 -1.15039c-7.15039 0 -14.4404 0.30957 -21.9707 1.15918v119c16.8203 0 29.5 1 39.79 5c19.7803 7 27.5303 23 30.2803 39l0.990234 18
l-230.79 409.94v-384.94h-157.51v700h156.69l225.91 -400.51v400.51h157.5z" />
    <glyph glyph-name="Ntilde" unicode="&#xd1;" horiz-adv-x="646" 
d="M200 778.01l-51.7881 68.541c5.20996 5.50977 59.8301 63.8496 116.44 63.8496c46.4502 0 66.79 -37.5 103.83 -37.5c35.7998 0 65.8994 41.7402 69.3291 45.3203l52.1699 -68.6904c-4.16992 -3.87012 -58.8701 -61.6201 -114.73 -61.6201
c-46.46 0 -70.9102 37.2002 -110.9 37.2002c-31.6201 0 -60.0303 -42.1904 -64.3506 -47.1006zM593.302 0.000976562h-165.141l-217.46 384.94v-384.94h-157.51v700h156.69l225.91 -400.51v400.51h157.51v-700z" />
    <glyph glyph-name="O" unicode="O" horiz-adv-x="613" 
d="M46.7002 228.45v235.771c0 163.31 109.41 249.43 261.36 249.43c165.12 0 258.05 -103.16 258.05 -250.25v-234.95c0 -178.04 -143.35 -238.45 -258.88 -238.45c-114.34 0 -260.53 59.9805 -260.53 238.45zM408.601 228.451l0.000976562 234.948
c0 76.5098 -32.46 111.649 -100.54 111.649c-68.96 0 -103.85 -30.0195 -103.85 -110.829v-235.77c0 -75.7598 45.6699 -100.109 103.02 -100.109c57.7695 0 101.369 23.8799 101.369 100.11z" />
    <glyph glyph-name="Oacute" unicode="&#xd3;" horiz-adv-x="613" 
d="M361.1 772.66h-98.1494l61.0498 126.34h132.72zM46.7002 228.45l0.00878906 235.771c0 163.31 109.41 249.43 261.351 249.43c165.12 0 258.061 -103.16 258.061 -250.25v-234.95c0 -178.04 -143.35 -238.45 -258.89 -238.45c-114.33 0 -260.53 59.9805 -260.53 238.45z
M408.609 228.451l-0.000976562 234.948c0 76.5098 -32.4697 111.649 -100.55 111.649c-68.9502 0 -103.84 -30.0195 -103.84 -110.829v-235.77c0 -75.7598 45.6602 -100.109 103.021 -100.109c57.7598 0 101.37 23.8799 101.37 100.11z" />
    <glyph glyph-name="Ocaron" unicode="&#x1d1;" horiz-adv-x="613" 
d="M374.52 773.92h-133.73l-116.02 146.55h113.78l69 -85.4805l68.3203 85.4805h113.85zM46.6895 228.45l0.00878906 235.771c0 163.31 109.41 249.43 261.351 249.43c165.12 0 258.061 -103.16 258.061 -250.25v-234.95c0 -178.04 -143.35 -238.45 -258.89 -238.45
c-114.33 0 -260.53 59.9805 -260.53 238.45zM408.599 228.451l-0.000976562 234.948c0 76.5098 -32.4697 111.649 -100.55 111.649c-68.9502 0 -103.84 -30.0195 -103.84 -110.829v-235.77c0 -75.7598 45.6602 -100.109 103.021 -100.109
c57.7598 0 101.37 23.8799 101.37 100.11z" />
    <glyph glyph-name="Ocircumflex" unicode="&#xd4;" horiz-adv-x="613" 
d="M491.31 773.33h-113.851l-68.3096 85.4697l-69 -85.4697h-113.78l116.01 146.54h133.73zM46.6992 228.45l0.00878906 235.771c0 163.31 109.41 249.43 261.351 249.43c165.12 0 258.061 -103.16 258.061 -250.25v-234.95c0 -178.04 -143.35 -238.45 -258.89 -238.45
c-114.33 0 -260.53 59.9805 -260.53 238.45zM408.608 228.451l-0.000976562 234.948c0 76.5098 -32.4697 111.649 -100.55 111.649c-68.9502 0 -103.84 -30.0195 -103.84 -110.829v-235.77c0 -75.7598 45.6602 -100.109 103.021 -100.109
c57.7598 0 101.37 23.8799 101.37 100.11z" />
    <glyph glyph-name="Odieresis" unicode="&#xd6;" horiz-adv-x="613" 
d="M206.48 899.21c37.79 0 66.9199 -29.1299 66.9199 -69.4697c0 -38.6396 -29.1299 -69.4697 -67.7695 -69.4697c-39.4902 0 -70.3203 30.8301 -70.3203 69.4697c0 40.3398 30.8301 69.4697 71.1699 69.4697zM419.2 899.21c37.79 0 66.9199 -29.1299 66.9199 -69.4697
c0 -38.6396 -29.1299 -69.4697 -67.7695 -69.4697c-39.4902 0 -70.3203 30.8301 -70.3203 69.4697c0 40.3398 30.8301 69.4697 71.1699 69.4697zM46.7002 228.45v235.771c0 163.31 109.41 249.43 261.36 249.43c165.12 0 258.05 -103.16 258.05 -250.25v-234.95
c0 -178.04 -143.35 -238.45 -258.88 -238.45c-114.34 0 -260.53 59.9805 -260.53 238.45zM408.601 228.451l0.000976562 234.948c0 76.5098 -32.46 111.649 -100.54 111.649c-68.96 0 -103.85 -30.0195 -103.85 -110.829v-235.77
c0 -75.7598 45.6699 -100.109 103.02 -100.109c57.7695 0 101.369 23.8799 101.369 100.11z" />
    <glyph glyph-name="Ograve" unicode="&#xd2;" horiz-adv-x="613" 
d="M378.33 776.92h-98.1504l-95.6201 126.33h132.73zM46.6992 228.45v235.771c0 163.31 109.41 249.43 261.36 249.43c165.12 0 258.05 -103.16 258.05 -250.25v-234.95c0 -178.04 -143.35 -238.45 -258.88 -238.45c-114.34 0 -260.53 59.9805 -260.53 238.45z
M408.6 228.451l0.000976562 234.948c0 76.5098 -32.46 111.649 -100.54 111.649c-68.96 0 -103.85 -30.0195 -103.85 -110.829v-235.77c0 -75.7598 45.6699 -100.109 103.02 -100.109c57.7695 0 101.369 23.8799 101.369 100.11z" />
    <glyph glyph-name="Ohungarumlaut" unicode="&#x150;" horiz-adv-x="613" 
d="M262.29 776.08h-91.5791l53.3496 128.03h122.17zM435.841 776.08h-91.5791l53.3398 128.03h122.18zM46.6914 228.45l0.00878906 235.771c0 163.31 109.41 249.43 261.351 249.43c165.12 0 258.061 -103.16 258.061 -250.25v-234.95
c0 -178.04 -143.35 -238.45 -258.89 -238.45c-114.33 0 -260.53 59.9805 -260.53 238.45zM408.601 228.451l-0.000976562 234.948c0 76.5098 -32.4697 111.649 -100.55 111.649c-68.9502 0 -103.84 -30.0195 -103.84 -110.829v-235.77
c0 -75.7598 45.6602 -100.109 103.021 -100.109c57.7598 0 101.37 23.8799 101.37 100.11z" />
    <glyph glyph-name="Omacron" unicode="&#x14c;" horiz-adv-x="613" 
d="M438.52 798.57h-264.23v76.0303h264.23v-76.0303zM46.6992 228.45v235.771c0 163.31 109.41 249.43 261.36 249.43c165.12 0 258.05 -103.16 258.05 -250.25v-234.95c0 -178.04 -143.35 -238.45 -258.88 -238.45c-114.34 0 -260.53 59.9805 -260.53 238.45z
M408.6 228.451l0.000976562 234.948c0 76.5098 -32.46 111.649 -100.54 111.649c-68.96 0 -103.85 -30.0195 -103.85 -110.829v-235.77c0 -75.7598 45.6699 -100.109 103.02 -100.109c57.7695 0 101.369 23.8799 101.369 100.11z" />
    <glyph glyph-name="Oslash" unicode="&#xd8;" horiz-adv-x="613" 
d="M519.96 750l-33.0303 -95.0684c51.6797 -44.4805 79.1895 -111.5 79.1895 -191.53v-234.94c0 -178.04 -143.35 -238.46 -258.89 -238.46c-16.2002 0 -33.04 1.20996 -50.0098 3.78027l-15.21 -43.7803h-149.16l34 97.8496
c-47.04 37.5703 -80.1504 95.6699 -80.1504 180.61v235.77c0 163.31 109.41 249.42 261.351 249.42c17.1201 0 33.46 -1.11035 49 -3.26074l13.7598 39.6104h149.15zM204.22 270.512l105.81 304.529l-1.96973 0.00976562c-68.9502 0 -103.84 -30.0098 -103.84 -110.819
v-193.72zM303.989 128.371l3.25 -0.0302734c57.7598 0 101.37 23.8799 101.37 100.11v201.04z" />
    <glyph glyph-name="Otilde" unicode="&#xd5;" horiz-adv-x="613" 
d="M187.33 778.01l-51.7881 68.541c5.20996 5.50977 59.8301 63.8496 116.44 63.8496c46.4502 0 66.79 -37.5 103.83 -37.5c35.7998 0 65.8994 41.7402 69.3291 45.3203l52.1699 -68.6904c-4.16992 -3.87012 -58.8701 -61.6201 -114.73 -61.6201
c-46.46 0 -70.9102 37.2002 -110.9 37.2002c-31.6201 0 -60.0303 -42.1904 -64.3506 -47.1006zM46.7021 228.451l0.00878906 235.771c0 163.31 109.41 249.43 261.351 249.43c165.12 0 258.061 -103.16 258.061 -250.25v-234.95c0 -178.04 -143.35 -238.45 -258.89 -238.45
c-114.33 0 -260.53 59.9805 -260.53 238.45zM408.611 228.452l-0.000976562 234.948c0 76.5098 -32.4697 111.649 -100.55 111.649c-68.9502 0 -103.84 -30.0195 -103.84 -110.829v-235.77c0 -75.7598 45.6602 -100.109 103.021 -100.109
c57.7598 0 101.37 23.8799 101.37 100.11z" />
    <glyph glyph-name="OE" unicode="&#x152;" horiz-adv-x="932" 
d="M41.4902 228.72v235.769c0 163.32 109.41 249.431 261.351 249.431c54.8496 0 99.9697 -13.5996 134.239 -37.46v23.54h461.9v-138.6h-304.39v-142.51h279.59v-138.6h-279.59v-141.69h308.15v-138.6h-465.66v27.1299
c-39.4004 -26.71 -89.2607 -37.1299 -135.061 -37.1299c-114.34 0 -260.53 60.25 -260.53 238.72zM403.391 227.078l-0.000976562 236.588c0 76.5098 -32.4697 111.649 -100.55 111.649c-68.9502 0 -103.84 -30.0195 -103.84 -110.829v-235.77
c0 -75.7598 45.6602 -100.109 103.021 -100.109c57.3203 0 101.37 24.7803 101.37 98.4707z" />
    <glyph glyph-name="P" unicode="P" horiz-adv-x="591" 
d="M58.1904 700l261.511 -0.0107422c154.89 0 239.569 -110.36 239.569 -227.12c0 -146.14 -89.4004 -237.109 -241.221 -236.999h-102.35v-235.87h-157.51v700zM215.701 561.409v-186.529h100.42c59.8496 0 92.3896 33.1201 92.3896 96.46
c0 49.3896 -31.96 90.0693 -91.2295 90.0693h-101.58z" />
    <glyph glyph-name="Thorn" unicode="&#xde;" horiz-adv-x="591" 
d="M215.7 583.48l104.001 -0.0117188c154.89 0 239.569 -110.37 239.569 -227.12c0 -146.14 -89.4004 -237.109 -241.221 -236.999h-102.35v-119.35h-157.51v700h157.51v-116.52zM215.701 444.889l0.000976562 -186.53h100.42c59.8496 0 92.3994 33.1299 92.3994 96.46
c0 49.4004 -31.96 90.0703 -91.2402 90.0703h-101.58z" />
    <glyph glyph-name="Q" unicode="Q" horiz-adv-x="613" 
d="M566.11 463.4l0.000976562 -234.959c0 -68.2402 -21.0596 -119.2 -53.54 -156.101l53.54 -64.54l-80.25 -65.8096l-58.7598 70.8301c-38.7402 -15.9502 -80.8906 -22.8203 -119.871 -22.8203c-114.33 0 -260.53 59.9805 -260.53 238.45v235.77
c0 163.31 109.41 249.43 261.36 249.43c165.12 0 258.05 -103.16 258.05 -250.25zM351.171 266.852l55.1309 -66.4414c1.50977 8.44043 2.2998 17.7607 2.2998 28.0303v234.95c0 76.5098 -32.46 111.649 -100.54 111.649c-68.96 0 -103.85 -30.0195 -103.85 -110.829
v-235.77c0 -75.7598 45.6699 -100.109 103.02 -100.109c7.91016 0 15.5498 0.450195 22.8496 1.41992l-59.1602 71.2998z" />
    <glyph glyph-name="R" unicode="R" horiz-adv-x="608" 
d="M58.1904 700l261.521 0.000976562c154.89 0 239.569 -107.9 239.569 -222.11c0 -100.61 -44.3398 -172.67 -124.07 -205.55l-10.3398 -1.94043l163.11 -270.4h-182.15l-137.83 246.45h-52.2998v-246.45h-157.51v700zM215.711 561.411l0.000976562 -175.94h100.42
c59.8496 0 92.3994 31.5703 92.3994 91.2207c0 46.5195 -31.96 84.8193 -91.2402 84.7197h-101.58z" />
    <glyph glyph-name="Racute" unicode="&#x154;" horiz-adv-x="608" 
d="M348.97 772.66h-98.1494l61.0498 126.34h132.72zM58.1904 700l261.521 0.000976562c154.89 0 239.569 -107.9 239.569 -222.11c0 -100.61 -44.3398 -172.67 -124.07 -205.55l-10.3398 -1.94043l163.11 -270.4h-182.15l-137.83 246.45h-52.2998v-246.45h-157.51v700z
M215.711 561.411l0.000976562 -175.94h100.42c59.8496 0 92.3994 31.5703 92.3994 91.2207c0 46.5195 -31.96 84.8193 -91.2402 84.7197h-101.58z" />
    <glyph glyph-name="Rcaron" unicode="&#x158;" horiz-adv-x="608" 
d="M372.01 773.92h-133.739l-116.01 146.55h113.78l69 -85.4805l68.3096 85.4805h113.85zM58.1807 700l261.52 0.000976562c154.9 0 239.58 -107.9 239.58 -222.11c0 -100.61 -44.3496 -172.67 -124.08 -205.55l-10.3398 -1.94043l163.12 -270.4h-182.15l-137.83 246.45
h-52.2998v-246.45h-157.52v700zM215.71 561.411v-175.94h100.42c59.8496 0 92.3896 31.5703 92.3896 91.2207c0 46.5195 -31.96 84.8193 -91.2295 84.7197h-101.58z" />
    <glyph glyph-name="Rcommaaccent" unicode="&#x156;" horiz-adv-x="608" 
d="M58.1904 700h261.521c154.89 0 239.569 -107.89 239.569 -222.1c0 -98.9502 -42.9502 -170.15 -120.32 -203.54l-14.0898 -3.95996l163.11 -270.4h-182.15l-137.83 246.45h-52.2998v-246.45h-157.51v700zM215.711 561.42l0.000976562 -175.95h100.42
c59.8496 0 92.3994 31.5703 92.3994 91.2305c0 46.5098 -31.96 84.8193 -91.2402 84.7197h-101.58zM238.481 -231l23.501 73c-11.2305 10 -18.4502 24 -18.4502 39c0 29 23.7695 53 52.4395 53s52.4297 -24 52.4297 -53c0 -8 -2.29004 -16 -6.2998 -24l-41.5 -88h-62.1201z
" />
    <glyph glyph-name="S" unicode="S" horiz-adv-x="566" 
d="M26.9102 209.7l149.22 -0.00195312c0.44043 -50.1299 24.1602 -80.0996 110.42 -80.0996c63.9502 0 99.5 25.71 99.5 69.04c0 49.6299 -42.1104 56.21 -122.181 79.9004c-138.71 40.6904 -227.27 86.5205 -227.27 222.801c0 130.38 82.2402 210.38 236.16 210.38
c152.65 0 241.53 -79.5801 241.83 -218.05h-149.59c-0.299805 60.0996 -35.9697 80.4492 -92.2393 80.4492c-57.2695 0 -83.5996 -28.0898 -83.5996 -60.6094c0 -38.5996 18.2002 -59.5596 128.08 -85.4893c172.63 -39.96 220.81 -114.46 220.81 -228.71
c0 -105.84 -66.1797 -211.31 -244.87 -211.31c-161.28 0 -265.82 81.9297 -266.271 221.699z" />
    <glyph glyph-name="Sacute" unicode="&#x15a;" horiz-adv-x="566" 
d="M327.18 772.66h-98.1494l61.0498 126.34h132.72zM26.9102 209.7l149.22 -0.00195312c0.44043 -50.1299 24.1602 -80.0996 110.42 -80.0996c63.9502 0 99.5 25.71 99.5 69.04c0 49.6299 -42.1104 56.21 -122.181 79.9004c-138.71 40.6904 -227.27 86.5205 -227.27 222.801
c0 130.38 82.2402 210.38 236.16 210.38c152.65 0 241.53 -79.5801 241.83 -218.05h-149.59c-0.299805 60.0996 -35.9697 80.4492 -92.2393 80.4492c-57.2695 0 -83.5996 -28.0898 -83.5996 -60.6094c0 -38.5996 18.2002 -59.5596 128.08 -85.4893
c172.63 -39.96 220.81 -114.46 220.81 -228.71c0 -105.84 -66.1797 -211.31 -244.87 -211.31c-161.28 0 -265.82 81.9297 -266.271 221.699z" />
    <glyph glyph-name="Scaron" unicode="&#x160;" horiz-adv-x="566" 
d="M350.22 773.92h-133.739l-116.01 146.55h113.78l69 -85.4805l68.3096 85.4805h113.85zM26.9102 209.7l149.21 -0.00195312c0.450195 -50.1299 24.1699 -80.0996 110.42 -80.0996c63.96 0 99.5098 25.71 99.5098 69.04c0 49.6299 -42.1104 56.21 -122.181 79.9004
c-138.71 40.6904 -227.27 86.5205 -227.27 222.801c0 130.38 82.2305 210.38 236.15 210.38c152.66 0 241.54 -79.5801 241.84 -218.05h-149.6c-0.290039 60.0996 -35.9697 80.4492 -92.2295 80.4492c-57.2695 0 -83.5996 -28.0898 -83.5996 -60.6094
c0 -38.5996 18.2002 -59.5596 128.08 -85.4893c172.63 -39.96 220.81 -114.46 220.81 -228.71c0 -105.84 -66.1797 -211.31 -244.88 -211.31c-161.28 0 -265.82 81.9297 -266.261 221.699z" />
    <glyph glyph-name="Scedilla" unicode="&#x15e;" horiz-adv-x="566" 
d="M26.9102 209.7l149.209 -0.00390625c0.44043 -50.1299 24.1602 -80.0898 110.42 -80.0898c63.9502 0 99.5 25.7002 99.5 69.0303c0 49.6299 -42.1104 56.21 -122.181 79.9004c-138.71 40.6904 -227.27 86.5303 -227.27 222.811c0 130.38 82.2402 210.37 236.16 210.37
c152.65 0 241.53 -79.5801 241.83 -218.05h-149.59c-0.299805 60.1104 -35.9697 80.4502 -92.2393 80.4502c-57.2695 0 -83.5996 -28.0898 -83.5996 -60.6094c0 -38.5996 18.2002 -59.5596 128.08 -85.4893c172.63 -39.96 220.81 -114.46 220.81 -228.71
c0 -102.84 -62.46 -205.31 -229.74 -211.31l-16.7197 -24c10.9199 2 22.1504 4 33.0107 3c48.46 -2 86.7803 -31 86.7803 -90c0 -77 -66.1699 -103 -135.92 -103c-48.1201 0 -96.8701 21 -124.99 32l23.6797 56c29.7002 -11 59.1006 -18 87.9004 -22
c26.96 -2 49.4795 11 49.4795 33s-12.9697 32 -38.21 32c-15.1201 0 -30.1006 -3 -49.041 -10l-28.4199 25l45.4502 72c-131.91 14.8398 -213.96 94.1299 -214.39 217.7z" />
    <glyph glyph-name="Scommaaccent" unicode="&#x218;" horiz-adv-x="569" 
d="M26.9102 209.7l149.22 -0.00195312c0.44043 -50.1299 24.1602 -80.0898 110.42 -80.0898c63.9502 0 99.5 25.7002 99.5 69.0303c0 49.6299 -42.1104 56.21 -122.181 79.9004c-138.71 40.6904 -227.27 86.5303 -227.27 222.811c0 130.38 82.2402 210.37 236.16 210.37
c152.65 0 241.53 -79.5801 241.83 -218.05h-149.59c-0.299805 60.1104 -35.9697 80.4502 -92.2393 80.4502c-57.2695 0 -83.5996 -28.0898 -83.5996 -60.6094c0 -38.6299 18.29 -59.5801 128.22 -85.5303c172.59 -39.9502 220.67 -114.47 220.67 -228.67
c0 -105.84 -66.1797 -211.31 -244.87 -211.31c-161.28 0 -265.82 81.9297 -266.271 221.699zM233.57 -231.002l23.5107 73c-11.2305 10 -18.4502 24 -18.4502 39c0 29 23.7695 53 52.4395 53s52.4297 -24 52.4297 -53c0 -8 -2.29004 -16 -6.2998 -24l-41.5 -88h-62.1299z
" />
    <glyph glyph-name="T" unicode="T" horiz-adv-x="530" 
d="M508.3 561.4h-168.18v-561.4h-157.51v561.4h-162.4v138.6h488.09v-138.6z" />
    <glyph glyph-name="Tbar" unicode="&#x166;" horiz-adv-x="530" 
d="M508.3 561.4h-168.17v-163.39h92.1797v-76.0303h-92.1797v-321.99h-157.51v321.99h-86.4102v76.0303h86.4102v163.39h-162.4v138.6h488.08v-138.6z" />
    <glyph glyph-name="Tcaron" unicode="&#x164;" horiz-adv-x="530" 
d="M333.12 773.92h-133.729l-116.02 146.55h113.78l69 -85.4805l68.3096 85.4805h113.85zM508.301 561.4h-168.18v-561.4h-157.51v561.4h-162.4v138.6h488.09v-138.6z" />
    <glyph glyph-name="Tcedilla" unicode="&#x162;" horiz-adv-x="530" 
d="M508.3 561.4l-168.179 -0.00976562v-562.4h-47.2598l-19.3096 -28c9.74023 1.63965 19.6602 3.26953 29.3398 3.26953c49.96 0 90.4404 -29.5098 90.4404 -90.2598c0 -77 -66.1699 -103 -135.92 -103c-48.1201 0 -96.8701 20 -124.99 32l23.6797 56
c29.7002 -11 59.1006 -19 87.9004 -22c26.96 -2 49.4795 11 49.4795 33s-12.9697 33 -38.21 33c-15.1201 0 -30.1006 -4 -49.041 -11l-28.4199 25l46.4102 73h-41.6104v561.4h-162.4v138.6h488.09v-138.6z" />
    <glyph glyph-name="uni021A" unicode="&#x21a;" horiz-adv-x="529" 
d="M508.3 561.4h-168.18v-561.4h-157.51v561.4h-162.4v138.6h488.09v-138.6zM202.87 -231l23.5107 73c-11.2305 10 -18.4502 24 -18.4502 39c0 29 23.7598 53 52.4297 53s52.4395 -24 52.4395 -53c0 -8 -2.29004 -16 -6.30957 -24l-41.5 -88h-62.1201z" />
    <glyph glyph-name="U" unicode="U" horiz-adv-x="625" 
d="M574.62 699.94l0.0117188 -471.18c0 -178.11 -143.41 -238.761 -258.88 -238.761c-114.28 0 -260.54 60.2197 -260.54 238.76v471.18h157.51v-471.18c0 -75.7598 45.6699 -100.109 103.02 -100.109c57.7695 0 101.369 23.8799 101.369 100.11v471.18h157.51z" />
    <glyph glyph-name="Uacute" unicode="&#xda;" horiz-adv-x="625" 
d="M358.95 772.66h-98.1504l61.04 126.34h132.73zM574.63 699.94l-0.000976562 -471.18c0 -178.11 -143.41 -238.761 -258.88 -238.761c-114.27 0 -260.529 60.2197 -260.529 238.76v471.18h157.51v-471.18c0 -75.7598 45.6602 -100.109 103.021 -100.109
c57.7598 0 101.37 23.8799 101.37 100.11v471.18h157.51z" />
    <glyph glyph-name="Ucaron" unicode="&#x1d3;" horiz-adv-x="625" 
d="M381.39 773.92h-133.729l-116.02 146.55h113.78l69 -85.4805l68.3096 85.4805h113.85zM574.63 699.939l-0.000976562 -471.18c0 -178.11 -143.41 -238.761 -258.88 -238.761c-114.27 0 -260.529 60.2197 -260.529 238.76v471.18h157.51v-471.18
c0 -75.7598 45.6602 -100.109 103.021 -100.109c57.7598 0 101.37 23.8799 101.37 100.11v471.18h157.51z" />
    <glyph glyph-name="Ucircumflex" unicode="&#xdb;" horiz-adv-x="625" 
d="M498.17 773.33h-113.84l-68.3203 85.4697l-69 -85.4697h-113.78l116.02 146.54h133.73zM574.63 699.94l0.0117188 -471.18c0 -178.11 -143.41 -238.761 -258.88 -238.761c-114.28 0 -260.54 60.2197 -260.54 238.76v471.18h157.51v-471.18
c0 -75.7598 45.6699 -100.109 103.02 -100.109c57.7695 0 101.369 23.8799 101.369 100.11v471.18h157.51z" />
    <glyph glyph-name="Udieresis" unicode="&#xdc;" horiz-adv-x="625" 
d="M213.34 899.21c37.79 0 66.9199 -29.1299 66.9199 -69.4697c0 -38.6396 -29.1299 -69.4697 -67.7695 -69.4697c-39.4902 0 -70.3203 30.8301 -70.3203 69.4697c0 40.3398 30.8301 69.4697 71.1699 69.4697zM426.07 899.21c37.79 0 66.9199 -29.1299 66.9199 -69.4697
c0 -38.6396 -29.1299 -69.4697 -67.7695 -69.4697c-39.4902 0 -70.3203 30.8301 -70.3203 69.4697c0 40.3398 30.8301 69.4697 71.1699 69.4697zM574.62 699.95l0.0117188 -471.18c0 -178.11 -143.41 -238.771 -258.88 -238.771c-114.28 0 -260.54 60.2197 -260.54 238.76
v471.19h157.51v-471.19c0 -75.7598 45.6699 -100.109 103.02 -100.109c57.7695 0 101.369 23.8896 101.369 100.109v471.19h157.51z" />
    <glyph glyph-name="Udieresisacute" unicode="&#x1d7;" horiz-adv-x="631" 
d="M377.48 920.69h-98.1504l61.04 126.34h132.73zM218.87 899.851c37.79 0 66.9199 -29.1299 66.9199 -69.4697c0 -38.6396 -29.1299 -69.4697 -67.7695 -69.4697c-39.4902 0 -70.3203 30.8301 -70.3203 69.4697c0 40.3398 30.8301 69.4697 71.1699 69.4697z
M431.601 899.851c37.79 0 66.9199 -29.1299 66.9199 -69.4697c0 -38.6396 -29.1299 -69.4697 -67.7695 -69.4697c-39.4902 0 -70.3203 30.8301 -70.3203 69.4697c0 40.3398 30.8301 69.4697 71.1699 69.4697zM574.62 699.95l0.0117188 -471.18
c0 -178.11 -143.41 -238.771 -258.88 -238.771c-114.28 0 -260.54 60.2197 -260.54 238.76v471.19h157.51v-471.19c0 -75.7598 45.6699 -100.109 103.02 -100.109c57.7695 0 101.369 23.8896 101.369 100.109v471.19h157.51z" />
    <glyph glyph-name="Udieresiscaron" unicode="&#x1d9;" horiz-adv-x="625" 
d="M381.39 922.04h-133.729l-116.02 146.55h113.78l69 -85.4805l68.3096 85.4805h113.85zM213.34 896.98c37.79 0 66.9199 -29.1299 66.9199 -69.4697c0 -38.6396 -29.1299 -69.4697 -67.7695 -69.4697c-39.4902 0 -70.3203 30.8301 -70.3203 69.4697
c0 40.3398 30.8301 69.4697 71.1699 69.4697zM426.07 896.98c37.79 0 66.9199 -29.1299 66.9199 -69.4697c0 -38.6396 -29.1299 -69.4697 -67.7695 -69.4697c-39.4902 0 -70.3203 30.8301 -70.3203 69.4697c0 40.3398 30.8301 69.4697 71.1699 69.4697zM574.62 699.94
l0.0117188 -471.18c0 -178.11 -143.41 -238.761 -258.88 -238.761c-114.28 0 -260.54 60.2197 -260.54 238.76v471.18h157.51v-471.18c0 -75.7598 45.6699 -100.109 103.02 -100.109c57.7695 0 101.369 23.8799 101.369 100.11v471.18h157.51z" />
    <glyph glyph-name="Udieresisgrave" unicode="&#x1db;" horiz-adv-x="631" 
d="M380.06 921.91h-98.1602l-95.4697 126.33h132.58zM218.869 899.851c37.79 0 66.9199 -29.1299 66.9199 -69.4697c0 -38.6396 -29.1299 -69.4697 -67.7695 -69.4697c-39.4902 0 -70.3203 30.8301 -70.3203 69.4697c0 40.3398 30.8301 69.4697 71.1699 69.4697z
M431.6 899.851c37.79 0 66.9199 -29.1299 66.9199 -69.4697c0 -38.6396 -29.1299 -69.4697 -67.7695 -69.4697c-39.4902 0 -70.3203 30.8301 -70.3203 69.4697c0 40.3398 30.8301 69.4697 71.1699 69.4697zM574.619 699.95l0.0117188 -471.18
c0 -178.11 -143.41 -238.771 -258.88 -238.771c-114.28 0 -260.54 60.2197 -260.54 238.76v471.19h157.51v-471.19c0 -75.7598 45.6699 -100.109 103.02 -100.109c57.7695 0 101.369 23.8896 101.369 100.109v471.19h157.51z" />
    <glyph glyph-name="Udieresismacron" unicode="&#x1d5;" horiz-adv-x="631" 
d="M454.66 929.27h-264.23v76.0303h264.23v-76.0303zM218.87 899.85c37.79 0 66.9199 -29.1299 66.9199 -69.4697c0 -38.6396 -29.1299 -69.4697 -67.7695 -69.4697c-39.4902 0 -70.3203 30.8301 -70.3203 69.4697c0 40.3398 30.8301 69.4697 71.1699 69.4697z
M431.601 899.85c37.79 0 66.9199 -29.1299 66.9199 -69.4697c0 -38.6396 -29.1299 -69.4697 -67.7695 -69.4697c-39.4902 0 -70.3203 30.8301 -70.3203 69.4697c0 40.3398 30.8301 69.4697 71.1699 69.4697zM574.62 699.939l0.0117188 -471.18
c0 -178.11 -143.41 -238.761 -258.88 -238.761c-114.28 0 -260.54 60.2197 -260.54 238.76v471.18h157.51v-471.18c0 -75.7598 45.6699 -100.109 103.02 -100.109c57.7695 0 101.369 23.8799 101.369 100.11v471.18h157.51z" />
    <glyph glyph-name="Ugrave" unicode="&#xd9;" horiz-adv-x="625" 
d="M378.04 776.92h-98.1494l-95.6201 126.33h132.72zM574.631 699.939l-0.000976562 -471.18c0 -178.11 -143.41 -238.761 -258.88 -238.761c-114.27 0 -260.529 60.2197 -260.529 238.76v471.18h157.51v-471.18c0 -75.7598 45.6602 -100.109 103.021 -100.109
c57.7598 0 101.37 23.8799 101.37 100.11v471.18h157.51z" />
    <glyph glyph-name="Uhungarumlaut" unicode="&#x170;" horiz-adv-x="631" 
d="M265.56 776.08h-91.5693l53.3398 128.03h122.18zM439.11 776.08h-91.5791l53.3496 128.03h122.17zM574.621 699.94l-0.000976562 -471.18c0 -178.11 -143.41 -238.761 -258.88 -238.761c-114.27 0 -260.529 60.2197 -260.529 238.76v471.18h157.51v-471.18
c0 -75.7598 45.6602 -100.109 103.021 -100.109c57.7598 0 101.37 23.8799 101.37 100.11v471.18h157.51z" />
    <glyph glyph-name="Umacron" unicode="&#x16a;" horiz-adv-x="631" 
d="M441.65 798.57h-264.24v76.0303h264.24v-76.0303zM574.62 699.95l0.0117188 -471.18c0 -178.11 -143.41 -238.771 -258.88 -238.771c-114.28 0 -260.54 60.2197 -260.54 238.76v471.19h157.51v-471.19c0 -75.7598 45.6699 -100.109 103.02 -100.109
c57.7695 0 101.369 23.8896 101.369 100.109v471.19h157.51z" />
    <glyph glyph-name="Uogonek" unicode="&#x172;" horiz-adv-x="631" 
d="M577.6 699.94l0.0107422 -470.791c0 -114.6 -60.5303 -178.79 -131.96 -210.16c-60.3496 -57.0996 -73.8594 -89.5996 -73.8594 -117.68c0 -21 12.5703 -32.3096 29.5 -32.3096c26.2197 -1 41.1602 19 60.4502 44l55.7803 -22c-33.3604 -58 -78.7705 -94 -146.03 -94
c-34.1504 0 -99.3701 14 -99.3701 89c0 26 12.1904 61 58.9004 104c-37.7598 0 -53.7598 2 -75.2998 6c-98.5303 19.1299 -197.53 86.0098 -197.53 232.76v471.18h157.51v-471.18c0 -75.7598 45.6699 -100.109 103.02 -100.109c57.7695 0 101.369 23.8799 101.369 100.11
v471.18h157.51z" />
    <glyph glyph-name="Uring" unicode="&#x16e;" horiz-adv-x="625" 
d="M313.24 962.82c64.9004 0 121.779 -54.8691 121.779 -121.35c0 -64.54 -55.8203 -121.36 -121.78 -121.36c-66.0195 0 -121.779 57.7695 -121.779 121.359c0 65.5303 56.8203 121.351 121.78 121.351zM313.239 893.802c-28.5195 0 -52.0596 -22.8398 -52.0596 -52.3301
c0 -28.0303 23.7598 -52.4805 52.0596 -52.4805c28.1504 0 51.9102 24.4502 51.9102 52.4805c0 29.4902 -23.54 52.3301 -51.9102 52.3301zM574.619 699.941l0.0117188 -471.18c0 -178.11 -143.41 -238.761 -258.88 -238.761c-114.28 0 -260.54 60.2197 -260.54 238.76
v471.18h157.51v-471.18c0 -75.7598 45.6699 -100.109 103.02 -100.109c57.7695 0 101.369 23.8799 101.369 100.11v471.18h157.51z" />
    <glyph glyph-name="V" unicode="V" horiz-adv-x="637" 
d="M431.38 0h-230.041l-189.85 700h162.99l141.73 -537.91l141.72 537.91h163.09z" />
    <glyph glyph-name="W" unicode="W" horiz-adv-x="882" 
d="M719.86 0h-204.411l-73.8096 343.7l-73.8096 -343.7h-204.41l-148.96 700h162.8l89.5303 -515.6l99.3604 515.6h150.99l99.3496 -515.75l89.0898 515.75h162.94z" />
    <glyph glyph-name="Wacute" unicode="&#x1e82;" horiz-adv-x="882" 
d="M493.4 771.16h-98.1494l61.0498 126.33h132.72zM719.861 0h-204.411l-73.8096 343.7l-73.8096 -343.7h-204.41l-148.96 700h162.8l89.5303 -515.6l99.3604 515.6h150.99l99.3496 -515.75l89.0898 515.75h162.94z" />
    <glyph glyph-name="Wcircumflex" unicode="&#x174;" horiz-adv-x="882" 
d="M626.52 773.33h-113.851l-68.3096 85.4697l-69 -85.4697h-113.78l116.01 146.54h133.73zM719.869 0h-204.411l-73.8096 343.7l-73.8096 -343.7h-204.42l-148.95 700h162.79l89.54 -515.6l99.3496 515.6h150.99l99.3604 -515.75l89.0898 515.75h162.94z" />
    <glyph glyph-name="Wdieresis" unicode="&#x1e84;" horiz-adv-x="882" 
d="M341.69 899.21c37.79 0 66.9199 -29.1299 66.9199 -69.4697c0 -38.6396 -29.1299 -69.4697 -67.7695 -69.4697c-39.4902 0 -70.3203 30.8301 -70.3203 69.4697c0 40.3398 30.8301 69.4697 71.1699 69.4697zM554.421 899.21c37.79 0 66.9199 -29.1299 66.9199 -69.4697
c0 -38.6396 -29.1299 -69.4697 -67.7695 -69.4697c-39.4902 0 -70.3203 30.8301 -70.3203 69.4697c0 40.3398 30.8301 69.4697 71.1699 69.4697zM719.871 -0h-204.411l-73.8096 343.7l-73.8096 -343.7h-204.42l-148.95 700h162.79l89.54 -515.6l99.3496 515.6h150.99
l99.3604 -515.75l89.0898 515.75h162.94z" />
    <glyph glyph-name="Wgrave" unicode="&#x1e80;" horiz-adv-x="882" 
d="M495.11 776.06h-98.1602l-95.4697 126.34h132.58zM719.86 -0h-204.411l-73.8096 343.7l-73.8096 -343.7h-204.41l-148.96 700h162.8l89.5303 -515.6l99.3604 515.6h150.99l99.3496 -515.75l89.0898 515.75h162.94z" />
    <glyph glyph-name="X" unicode="X" horiz-adv-x="666" 
d="M442.5 361.5l209.69 -361.5h-183.07l-135.81 240.46l-134.52 -240.46h-184.33l210.73 361.56l-194.98 338.44h181.52l121.31 -240.55l121.31 240.55h183.17z" />
    <glyph glyph-name="Y" unicode="Y" horiz-adv-x="635" 
d="M396.11 289.86v-289.86h-157.51v288.36l-224.13 411.64h181.16l121.31 -265.42l121.31 265.42h183.44z" />
    <glyph glyph-name="Yacute" unicode="&#xdd;" horiz-adv-x="635" 
d="M362.85 772.66h-98.1504l61.04 126.34h132.73zM396.109 289.86v-289.86h-157.51v288.36l-224.13 411.64h181.16l121.31 -265.42l121.31 265.42h183.44z" />
    <glyph glyph-name="Ycircumflex" unicode="&#x176;" horiz-adv-x="635" 
d="M502.66 773.33h-113.84l-68.3203 85.4697l-69 -85.4697h-113.78l116.02 146.54h133.73zM396.11 289.86v-289.86h-157.51v288.36l-224.13 411.64h181.16l121.31 -265.42l121.31 265.42h183.44z" />
    <glyph glyph-name="Ydieresis" unicode="&#x178;" horiz-adv-x="635" 
d="M217.84 899.21c37.79 0 66.9199 -29.1299 66.9199 -69.4697c0 -38.6396 -29.1299 -69.4697 -67.7695 -69.4697c-39.4902 0 -70.3203 30.8301 -70.3203 69.4697c0 40.3398 30.8301 69.4697 71.1699 69.4697zM430.56 899.21c37.79 0 66.9199 -29.1299 66.9199 -69.4697
c0 -38.6396 -29.1299 -69.4697 -67.7695 -69.4697c-39.4902 0 -70.3203 30.8301 -70.3203 69.4697c0 40.3398 30.8301 69.4697 71.1699 69.4697zM396.109 289.86v-289.86h-157.51v288.36l-224.13 411.64h181.16l121.31 -265.41l121.31 265.41h183.44z" />
    <glyph glyph-name="Ygrave" unicode="&#x1ef2;" horiz-adv-x="635" 
d="M391.06 776.92h-98.1494l-95.6201 126.33h132.72zM396.11 289.86v-289.86h-157.51v288.36l-224.13 411.64h181.16l121.31 -265.42l121.31 265.42h183.44z" />
    <glyph glyph-name="Z" unicode="Z" horiz-adv-x="575" 
d="M540.76 606.33l-296.529 -467.73h301.47v-138.6h-516.24v93.6699l296.52 467.73h-275.92v138.6h490.7v-93.6699z" />
    <glyph glyph-name="Zacute" unicode="&#x179;" horiz-adv-x="575" 
d="M347.63 772.66h-98.1504l61.04 126.34h132.73zM540.77 606.33l-296.53 -467.73h301.47v-138.6h-516.25v93.6699l296.53 467.73h-275.93v138.6h490.71v-93.6699z" />
    <glyph glyph-name="Zcaron" unicode="&#x17d;" horiz-adv-x="575" 
d="M360.37 773.92h-133.729l-116.01 146.55h113.77l69 -85.4805l68.3203 85.4805h113.84zM540.761 606.33l-296.529 -467.73h301.47v-138.6h-516.24v93.6699l296.52 467.73h-275.92v138.6h490.7v-93.6699z" />
    <glyph glyph-name="Zdotaccent" unicode="&#x17b;" horiz-adv-x="575" 
d="M305.42 904.47c37.79 0 66.9199 -29.1299 66.9199 -69.4697c0 -38.6396 -29.1299 -69.4697 -67.7695 -69.4697c-39.4902 0 -70.3203 30.8301 -70.3203 69.4697c0 40.3398 30.8301 69.4697 71.1699 69.4697zM540.76 606.33l-296.529 -467.73h301.47v-138.6h-516.24
v93.6699l296.52 467.73h-275.92v138.6h490.7v-93.6699z" />
    <glyph glyph-name="a" unicode="a" horiz-adv-x="475" 
d="M120.87 357.52l-74.6211 69.291c36.1104 42.9805 92.3008 82.8008 180.891 82.8008c154.69 0 214.66 -88.9102 214.66 -207.72v-301.9h-114.08l-3.90039 25.5498c-30.3496 -21.7598 -73.3896 -33.5498 -117.47 -33.5498c-91.8896 1 -181.14 49.7695 -181.14 172.52
c0 128.83 103.11 159.58 190.4 159.58c26.3799 0 52.9795 -2.9502 75.4297 -6.90039c-0.30957 44.2197 -21.4395 72.25 -76.0293 72.25c-30.2002 0 -63.4902 -11.4404 -94.1406 -31.9209zM291.039 121.131l0.000976562 96.291
c-16.9004 2.20996 -34.5508 4.0498 -51.0908 4.0498c-41.5303 0 -76.4502 -11.4004 -76.4502 -56.9707c0 -43.3701 31.6104 -56.9697 70.5703 -56.9697c20.21 0 41.1602 5.13965 56.9697 13.5996z" />
    <glyph glyph-name="a.ss01" horiz-adv-x="490" 
d="M451.52 0h-114.08l-3.90039 26c-30.3496 -21.7598 -73.3896 -33 -117.47 -33c-91.6602 0 -189.37 50.6904 -189.37 178.681v154.99c0 130.6 86.6396 181.399 177.88 181.399c44.29 0 90.6504 -12.1602 128.96 -32.7705l3.90039 25.7002h114.08v-501zM300.76 118.08
l-0.00878906 266.13c-18.2598 5.74023 -40.7998 9.61035 -64.3496 9.61035c-50.9805 0 -58.9502 -25.1699 -58.9502 -78.0996v-144.86c0.849609 -35.2002 11.4697 -62.8701 63.0693 -62.8701c21.96 0 41.8896 3.29004 60.2393 10.0898z" />
    <glyph glyph-name="aacute" unicode="&#xe1;" horiz-adv-x="475" 
d="M291.35 573.66h-98.1504l61.04 126.34h132.73zM120.869 357.521l-74.6211 69.291c36.1104 42.9805 92.3008 82.8008 180.891 82.8008c154.69 0 214.66 -88.9102 214.66 -207.72v-301.9h-114.08l-3.90039 25.5498c-30.3496 -21.7598 -73.3896 -33.5498 -117.47 -33.5498
c-91.8896 1 -181.14 49.7695 -181.14 172.52c0 128.83 103.11 159.58 190.4 159.58c26.3799 0 52.9795 -2.9502 75.4297 -6.90039c-0.30957 44.2197 -21.4395 72.25 -76.0293 72.25c-30.2002 0 -63.4902 -11.4404 -94.1406 -31.9209zM291.038 121.132l0.000976562 96.291
c-16.9004 2.20996 -34.5508 4.0498 -51.0908 4.0498c-41.5303 0 -76.4502 -11.4004 -76.4502 -56.9707c0 -43.3701 31.6104 -56.9697 70.5703 -56.9697c20.21 0 41.1602 5.13965 56.9697 13.5996z" />
    <glyph glyph-name="abreve" unicode="&#x103;" horiz-adv-x="475" 
d="M354.65 700.19h63.5605c0 -88.9697 -69.8896 -148.64 -164.92 -148.64c-95.04 0 -164.92 59.6699 -164.92 148.64h63.5498c5.95996 -54.9004 56.7002 -72.4707 101.37 -72.4707c44.5195 0 95.3994 17.5703 101.359 72.4707zM120.871 357.521l-74.6201 69.291
c36.1201 42.9805 92.3105 82.8008 180.891 82.8008c154.69 0 214.66 -88.9102 214.66 -207.72v-301.9h-114.07l-3.90039 25.5498c-30.3496 -21.7598 -73.3994 -33.5498 -117.47 -33.5498c-91.9004 1 -181.141 49.7695 -181.141 172.52
c0 128.83 103.11 159.58 190.391 159.58c26.3896 0 52.9795 -2.9502 75.4395 -6.90039c-0.30957 44.2197 -21.4395 72.25 -76.0391 72.25c-30.2002 0 -63.4902 -11.4404 -94.1406 -31.9209zM291.041 121.132l0.00976562 96.291
c-16.9102 2.20996 -34.5498 4.0498 -51.0898 4.0498c-41.54 0 -76.46 -11.4004 -76.46 -56.9707c0 -43.3701 31.6104 -56.9697 70.5703 -56.9697c20.2197 0 41.1699 5.13965 56.9697 13.5996z" />
    <glyph glyph-name="acaron" unicode="&#x1ce;" horiz-adv-x="475" 
d="M321.4 574.92h-133.73l-116.02 146.55h113.78l69 -85.4805l68.3203 85.4805h113.85zM120.86 357.52l-74.6201 69.291c36.1201 42.9805 92.3105 82.8008 180.891 82.8008c154.69 0 214.66 -88.9102 214.66 -207.72v-301.9h-114.07l-3.90039 25.5498
c-30.3496 -21.7598 -73.3994 -33.5498 -117.47 -33.5498c-91.9004 1 -181.141 49.7695 -181.141 172.52c0 128.83 103.11 159.58 190.391 159.58c26.3896 0 52.9795 -2.9502 75.4395 -6.90039c-0.30957 44.2197 -21.4395 72.25 -76.0391 72.25
c-30.2002 0 -63.4902 -11.4404 -94.1406 -31.9209zM291.03 121.131l0.00976562 96.291c-16.9102 2.20996 -34.5498 4.0498 -51.0898 4.0498c-41.54 0 -76.46 -11.4004 -76.46 -56.9707c0 -43.3701 31.6104 -56.9697 70.5703 -56.9697
c20.2197 0 41.1699 5.13965 56.9697 13.5996z" />
    <glyph glyph-name="acircumflex" unicode="&#xe2;" horiz-adv-x="475" 
d="M438.19 574.33h-113.851l-68.3096 85.4697l-69 -85.4697h-113.78l116.01 146.54h133.73zM120.87 357.521l-74.6211 69.291c36.1104 42.9805 92.3008 82.8008 180.891 82.8008c154.69 0 214.66 -88.9102 214.66 -207.72v-301.9h-114.08l-3.90039 25.5498
c-30.3496 -21.7598 -73.3896 -33.5498 -117.47 -33.5498c-91.8896 1 -181.14 49.7695 -181.14 172.52c0 128.83 103.11 159.58 190.4 159.58c26.3799 0 52.9795 -2.9502 75.4297 -6.90039c-0.30957 44.2197 -21.4395 72.25 -76.0293 72.25
c-30.2002 0 -63.4902 -11.4404 -94.1406 -31.9209zM291.039 121.132l0.000976562 96.291c-16.9004 2.20996 -34.5508 4.0498 -51.0908 4.0498c-41.5303 0 -76.4502 -11.4004 -76.4502 -56.9707c0 -43.3701 31.6104 -56.9697 70.5703 -56.9697
c20.21 0 41.1602 5.13965 56.9697 13.5996z" />
    <glyph glyph-name="adieresis" unicode="&#xe4;" horiz-adv-x="475" 
d="M153.36 700.21c37.79 0 66.9199 -29.1299 66.9199 -69.4697c0 -38.6396 -29.1299 -69.4697 -67.7695 -69.4697c-39.4902 0 -70.3203 30.8301 -70.3203 69.4697c0 40.3398 30.8301 69.4697 71.1699 69.4697zM366.08 700.21c37.79 0 66.9199 -29.1299 66.9199 -69.4697
c0 -38.6396 -29.1299 -69.4697 -67.7695 -69.4697c-39.4902 0 -70.3203 30.8301 -70.3203 69.4697c0 40.3398 30.8301 69.4697 71.1699 69.4697zM120.86 357.52l-74.6201 69.291c36.1201 42.9805 92.3105 82.8008 180.891 82.8008c154.69 0 214.66 -88.9102 214.66 -207.72
v-301.9h-114.07l-3.90039 25.5498c-30.3496 -21.7598 -73.3994 -33.5498 -117.47 -33.5498c-91.9004 1 -181.141 49.7695 -181.141 172.52c0 128.83 103.11 159.58 190.391 159.58c26.3896 0 52.9795 -2.9502 75.4395 -6.90039
c-0.30957 44.2197 -21.4395 72.25 -76.0391 72.25c-30.2002 0 -63.4902 -11.4404 -94.1406 -31.9209zM291.03 121.131l0.00976562 96.291c-16.9102 2.20996 -34.5498 4.0498 -51.0898 4.0498c-41.54 0 -76.46 -11.4004 -76.46 -56.9707
c0 -43.3701 31.6104 -56.9697 70.5703 -56.9697c20.2197 0 41.1699 5.13965 56.9697 13.5996z" />
    <glyph glyph-name="agrave" unicode="&#xe0;" horiz-adv-x="475" 
d="M330.8 573.66h-98.1494l-95.6201 126.34h132.72zM120.87 357.521l-74.6211 69.291c36.1104 42.9805 92.3008 82.8008 180.891 82.8008c154.69 0 214.66 -88.9102 214.66 -207.72v-301.9h-114.08l-3.90039 25.5498c-30.3496 -21.7598 -73.3896 -33.5498 -117.47 -33.5498
c-91.8896 1 -181.14 49.7695 -181.14 172.52c0 128.83 103.11 159.58 190.4 159.58c26.3799 0 52.9795 -2.9502 75.4297 -6.90039c-0.30957 44.2197 -21.4395 72.25 -76.0293 72.25c-30.2002 0 -63.4902 -11.4404 -94.1406 -31.9209zM291.039 121.132l0.000976562 96.291
c-16.9004 2.20996 -34.5508 4.0498 -51.0908 4.0498c-41.5303 0 -76.4502 -11.4004 -76.4502 -56.9707c0 -43.3701 31.6104 -56.9697 70.5703 -56.9697c20.21 0 41.1602 5.13965 56.9697 13.5996z" />
    <glyph glyph-name="amacron" unicode="&#x101;" horiz-adv-x="475" 
d="M384.04 588.51h-264.23v76.0195h264.23v-76.0195zM120.869 357.52l-74.6211 69.291c36.1104 42.9805 92.3008 82.8008 180.891 82.8008c154.69 0 214.66 -88.9102 214.66 -207.72v-301.9h-114.08l-3.90039 25.5498c-30.3496 -21.7598 -73.3896 -33.5498 -117.47 -33.5498
c-91.8896 1 -181.14 49.7695 -181.14 172.52c0 128.83 103.11 159.58 190.4 159.58c26.3799 0 52.9795 -2.9502 75.4297 -6.90039c-0.30957 44.2197 -21.4395 72.25 -76.0293 72.25c-30.2002 0 -63.4902 -11.4404 -94.1406 -31.9209zM291.038 121.131l0.000976562 96.291
c-16.9004 2.20996 -34.5508 4.0498 -51.0908 4.0498c-41.5303 0 -76.4502 -11.4004 -76.4502 -56.9707c0 -43.3701 31.6104 -56.9697 70.5703 -56.9697c20.21 0 41.1602 5.13965 56.9697 13.5996z" />
    <glyph glyph-name="aogonek" unicode="&#x105;" horiz-adv-x="475" 
d="M120.86 357.52l-74.6221 69.3008c36.1104 42.9805 92.3008 82.8008 180.891 82.8008c154.69 0 214.66 -88.9199 214.66 -207.72v-302.91h-30.4697c-43.3701 -44.8301 -53.7598 -72.5703 -53.7598 -97.6807c0 -21 12.5703 -32.3096 29.5 -32.3096
c26.2197 -2 41.1602 18 60.46 44l55.7803 -22c-33.3496 -58 -78.7598 -94 -146.029 -94c-34.1504 0 -99.3701 14 -99.3701 88c0 29 13.7305 67 69.8105 115l-3.90039 25.5498c-30.3496 -21.7598 -73.3994 -33.5498 -117.47 -33.5498
c-91.9004 1 -181.141 49.7695 -181.141 172.52c0 128.83 103.11 159.58 190.391 159.58c26.3896 0 52.9795 -2.9502 75.4395 -6.90039c-0.30957 44.2197 -21.4395 72.25 -76.0293 72.25c-30.2002 0 -63.4902 -11.4404 -94.1406 -31.9307zM291.028 121.13
l0.000976562 96.2988c-16.9004 2.2002 -34.5508 4.04004 -51.0908 4.04004c-41.5303 0 -76.4502 -11.3896 -76.4502 -56.9697c0 -43.3701 31.6104 -56.9697 70.5703 -56.9697c20.21 0 41.1602 5.15039 56.9697 13.6006z" />
    <glyph glyph-name="aring" unicode="&#xe5;" horiz-adv-x="475" 
d="M253.26 768.29c64.9004 0 121.778 -54.8701 121.778 -121.36c0 -64.5596 -55.8096 -121.35 -121.779 -121.35c-66.0195 0 -121.779 57.7695 -121.779 121.359c0 65.5303 56.8203 121.351 121.78 121.351zM253.258 699.271
c-28.5195 0 -52.0596 -22.8486 -52.0596 -52.3389c0 -28.0303 23.7598 -52.4805 52.0596 -52.4805c28.1699 0 51.9102 24.4297 51.9102 52.4795c0 29.4902 -23.54 52.3398 -51.9102 52.3398zM120.868 357.512l-74.6211 69.3008
c36.1104 42.9805 92.3008 82.8008 180.891 82.8008c154.69 0 214.66 -88.9199 214.66 -207.72v-301.91h-114.08l-3.90039 25.5596c-30.3496 -21.7598 -73.3896 -33.5498 -117.47 -33.5498c-91.8896 1 -181.14 49.7598 -181.14 172.51c0 128.83 103.11 159.59 190.4 159.59
c26.3799 0 52.9795 -2.95996 75.4297 -6.90039c-0.30957 44.2197 -21.4395 72.25 -76.0293 72.25c-30.2002 0 -63.4902 -11.4502 -94.1406 -31.9307zM291.037 121.122l0.000976562 96.2988c-16.9004 2.2002 -34.5508 4.04004 -51.0908 4.04004
c-41.5303 0 -76.4502 -11.3896 -76.4502 -56.9697c0 -43.3701 31.6104 -56.9697 70.5703 -56.9697c20.21 0 41.1602 5.15039 56.9697 13.6006z" />
    <glyph glyph-name="atilde" unicode="&#xe3;" horiz-adv-x="475" 
d="M134.21 579.01l-51.7881 68.541c5.20996 5.50977 59.8301 63.8496 116.44 63.8496c46.4502 0 66.79 -37.5 103.83 -37.5c35.7998 0 65.8994 41.7402 69.3291 45.3203l52.1699 -68.6904c-4.16992 -3.87012 -58.8701 -61.6201 -114.73 -61.6201
c-46.46 0 -70.9102 37.2002 -110.9 37.2002c-31.6201 0 -60.0303 -42.1904 -64.3506 -47.1006zM120.872 357.521l-74.6201 69.291c36.1201 42.9805 92.3105 82.8008 180.891 82.8008c154.69 0 214.66 -88.9102 214.66 -207.72v-301.9h-114.07l-3.90039 25.5498
c-30.3496 -21.7598 -73.3994 -33.5498 -117.47 -33.5498c-91.9004 1 -181.141 49.7695 -181.141 172.52c0 128.83 103.11 159.58 190.391 159.58c26.3896 0 52.9795 -2.9502 75.4395 -6.90039c-0.30957 44.2197 -21.4395 72.25 -76.0391 72.25
c-30.2002 0 -63.4902 -11.4404 -94.1406 -31.9209zM291.042 121.132l0.00976562 96.291c-16.9102 2.20996 -34.5498 4.0498 -51.0898 4.0498c-41.54 0 -76.46 -11.4004 -76.46 -56.9707c0 -43.3701 31.6104 -56.9697 70.5703 -56.9697
c20.2197 0 41.1699 5.13965 56.9697 13.5996z" />
    <glyph glyph-name="ae" unicode="&#xe6;" horiz-adv-x="780" 
d="M120.87 357.52l-74.6201 69.3008c36.1104 42.9805 92.3008 82.8008 180.73 82.8008c80.5801 0 133.2 -24.4102 166.24 -63.1699c34.6396 40.7305 90.9092 63.3105 166.359 63.3105c139.8 0 198.29 -83.0996 198.29 -201.319v-114.22h-267.21v-23.0801
c0 -47.3203 34.5996 -67.6699 75.4297 -67.6699c31 0 65.1904 12.1797 87.7002 32.4795l83.6504 -63.0098c-33.8701 -46.9805 -91.2598 -80.9502 -182.99 -81.9502c-46.3398 0 -84.1494 10.3398 -112.649 27.5195v-18.5195h-114.08l-3.90039 25.5596
c-30.0498 -21.6201 -72.6396 -33.5605 -117.46 -33.5605c-91.9004 0 -181.141 49.7695 -181.141 172.52c0 128.83 103.11 159.58 190.391 159.58c26.3896 0 52.9795 -2.9502 75.4395 -6.90039l-0.0595703 3.83008c-1.55957 42.0498 -22.9795 68.4199 -75.9795 68.4199
c-30.2002 0 -63.4902 -11.4404 -94.1406 -31.9209zM617.32 287.271l-0.000976562 25.5801c0 56.0898 -22.3799 80.6699 -59.5996 80.6699c-42.1797 0 -62.5098 -22.2598 -62.5098 -81.1201v-25.1299h122.11zM291.029 121.131l0.00976562 96.291
c-16.9102 2.20996 -34.5498 4.0498 -51.0898 4.0498c-41.54 0 -76.46 -11.4004 -76.46 -56.9707c0 -43.3701 31.6104 -56.9697 70.5703 -56.9697c20.2197 0 41.1699 5.13965 56.9697 13.5996z" />
    <glyph glyph-name="b" unicode="b" horiz-adv-x="489" 
d="M188.94 700l0.0185547 -210.801c26.3203 11.54 60.0703 18.9502 93.9307 18.9502c85.9404 0 180.131 -46.1699 180.131 -181.479v-154.99c0 -128.29 -98.29 -178.68 -189.38 -178.68c-44.0801 0 -87.1201 11.2402 -117.47 33l-3.91016 -26h-114.07v700h150.75z
M312.259 170.859l0.000976562 144.86c0 52.9297 -7.98047 78.0996 -58.9502 78.0996c-23.5498 0 -46.0996 -3.87012 -64.3594 -9.61035v-266.13c18.3496 -6.7998 38.2793 -10.0898 60.2393 -10.0898c51.5996 0 62.2197 27.6699 63.0693 62.8701z" />
    <glyph glyph-name="c" unicode="c" horiz-adv-x="444" 
d="M26.7002 198.07v105.322c0 125.66 72.7803 206.38 213.721 206.38c104.89 0 160.029 -49.29 182.56 -122.08l-124.11 -42.0098c-10.6104 28.9199 -30.8408 43.5898 -58.4512 43.5898c-44.2695 0 -62.96 -25.2305 -62.96 -85.8809v-105.32
c0 -60.6504 18.6904 -85.8809 62.96 -85.8809c27.6104 0 47.8408 14.6699 58.4512 43.5898l124.11 -42.0098c-22.5303 -72.79 -77.6699 -121.78 -182.56 -121.78c-140.94 0 -213.721 80.4199 -213.721 206.08z" />
    <glyph glyph-name="cacute" unicode="&#x107;" horiz-adv-x="444" 
d="M267.38 573.66h-98.1504l61.04 126.34h132.73zM26.6992 198.07v105.322c0 125.66 72.7803 206.38 213.721 206.38c104.89 0 160.029 -49.29 182.56 -122.08l-124.11 -42.0098c-10.6104 28.9199 -30.8408 43.5898 -58.4512 43.5898
c-44.2695 0 -62.96 -25.2305 -62.96 -85.8809v-105.32c0 -60.6504 18.6904 -85.8809 62.96 -85.8809c27.6104 0 47.8408 14.6699 58.4512 43.5898l124.11 -42.0098c-22.5303 -72.79 -77.6699 -121.78 -182.56 -121.78c-140.94 0 -213.721 80.4199 -213.721 206.08z" />
    <glyph glyph-name="ccaron" unicode="&#x10d;" horiz-adv-x="444" 
d="M290.41 574.92h-133.729l-116.01 146.55h113.77l69 -85.4805l68.3203 85.4805h113.84zM26.7002 198.07v105.322c0 125.66 72.7803 206.38 213.721 206.38c104.89 0 160.029 -49.29 182.56 -122.08l-124.11 -42.0098c-10.6104 28.9199 -30.8408 43.5898 -58.4512 43.5898
c-44.2695 0 -62.96 -25.2305 -62.96 -85.8809v-105.32c0 -60.6504 18.6904 -85.8809 62.96 -85.8809c27.6104 0 47.8408 14.6699 58.4512 43.5898l124.11 -42.0098c-22.5303 -72.79 -77.6699 -121.78 -182.56 -121.78c-140.94 0 -213.721 80.4199 -213.721 206.08z" />
    <glyph glyph-name="ccedilla" unicode="&#xe7;" horiz-adv-x="444" 
d="M26.7002 198.07l-0.00878906 105.211c0 125.66 72.7803 206.38 213.721 206.38c104.89 0 160.029 -49.2998 182.56 -122.09l-124.11 -42.0098c-10.6104 28.9199 -30.8408 43.5996 -58.4512 43.5996c-44.2695 0 -62.96 -25.2402 -62.96 -85.8906v-105.31
c0 -60.6504 18.6904 -85.8906 62.96 -85.8906c27.6104 0 47.8408 14.6797 58.4512 43.5996l124.11 -42.0098c-16.9902 -48.4102 -47.8398 -86.0205 -96.8301 -105.66c-21.0596 -9 -46.1191 -15 -75.6689 -16l-18.6904 -27c8.78027 1.92969 17.6406 3.04004 26.3203 3.04004
c4.76953 0 9.47949 -0.330078 14.1094 -1.04004c44.7305 -5 79.3506 -34 79.3506 -89c0 -77 -66.1602 -103 -135.91 -103c-48.1201 0 -96.8799 20 -124.99 32l23.6797 56c29.6904 -11 59.1006 -19 87.9004 -22c26.96 -2 49.4697 11 49.4697 33s-12.96 32 -38.21 32
c-15.1104 0 -30.0908 -3 -49.0312 -10l-28.4199 25l48.2598 76c-104.12 18.6299 -157.61 93.3398 -157.61 201.07z" />
    <glyph glyph-name="cdotaccent" unicode="&#x10b;" horiz-adv-x="444" 
d="M224.42 700.21c37.79 0 66.9199 -29.1299 66.9199 -69.4697c0 -38.6396 -29.1299 -69.4697 -67.7695 -69.4697c-39.4902 0 -70.3203 30.8301 -70.3203 69.4697c0 40.3398 30.8301 69.4697 71.1699 69.4697zM26.7002 198.07v105.322
c0 125.66 72.7803 206.38 213.721 206.38c104.89 0 160.029 -49.29 182.56 -122.08l-124.11 -42.0098c-10.6104 28.9199 -30.8408 43.5898 -58.4512 43.5898c-44.2695 0 -62.96 -25.2305 -62.96 -85.8809v-105.32c0 -60.6504 18.6904 -85.8809 62.96 -85.8809
c27.6104 0 47.8408 14.6699 58.4512 43.5898l124.11 -42.0098c-22.5303 -72.79 -77.6699 -121.78 -182.56 -121.78c-140.94 0 -213.721 80.4199 -213.721 206.08z" />
    <glyph glyph-name="d" unicode="d" horiz-adv-x="489" 
d="M451.52 0h-114.081l-3.90039 26c-30.3496 -21.7598 -73.3896 -33 -117.47 -33c-91.6602 0 -189.37 50.6904 -189.37 178.681v154.99c0 135.31 94.1904 181.479 180.131 181.479c33.8604 0 67.6104 -7.41016 93.9307 -18.9502v210.8h150.76v-700zM300.759 118.08
l-0.00878906 266.13c-18.2598 5.74023 -40.7998 9.61035 -64.3496 9.61035c-50.9805 0 -58.9502 -25.1699 -58.9502 -78.0996v-144.86c0.849609 -35.2002 11.4697 -62.8701 63.0693 -62.8701c21.96 0 41.8896 3.29004 60.2393 10.0898z" />
    <glyph glyph-name="eth" unicode="&#xf0;" horiz-adv-x="594" 
d="M526.87 687.63l-56.459 -55.6416c44.4805 -46.1797 69.5703 -110.14 69.5703 -183.319v-222.54c0 -132.74 -106.9 -237.13 -244.17 -237.13c-137.28 0 -244.33 104.36 -244.33 237.13c0 119.79 100.82 214 235.811 214c34.79 0 77.5098 -10.4697 111.149 -37.3096
v56.5801c0 19.1797 -4.87012 39.9795 -16.4004 56.8691l-45.8604 -45.3799l-53 53.71l38.7002 38.29c-12.1602 5.4502 -26.7705 8.89062 -44.4209 8.89062c-52.29 0 -98.0098 -28.4199 -115.85 -43.9395l-90.8701 103.36c23.5195 21.0996 98.4697 79.1797 202.46 79.1797
c51.1602 0 97.1504 -11.8496 135.86 -32.9395l64.8096 63.8896zM295.812 313.858c-61.0996 0 -93.5889 -40.3203 -93.5889 -93.0703s33.5898 -93.21 93.5898 -93.21c60.0098 0 93.4297 41.6104 93.4297 93.2207c-0.459961 52.79 -32.9404 93.0596 -93.4307 93.0596z" />
    <glyph glyph-name="dcaron" unicode="&#x10f;" horiz-adv-x="672" 
d="M498.38 560.21l36.6504 114.799c-17.6201 15.2305 -28.9004 37.7207 -28.9004 62.541c0 45.4502 37.6396 83.0898 83.0898 83.0898s83.0898 -37.6396 83.0898 -83.0898c0 -14.1299 -3.63965 -27.4902 -10.0098 -39.21l-65.0498 -138.13h-98.8701zM451.521 -0.000976562
h-114.081l-3.90039 26c-30.3496 -21.7598 -73.3896 -33 -117.47 -33c-91.6602 0 -189.37 50.6904 -189.37 178.681v154.99c0 135.31 94.1904 181.479 180.131 181.479c33.8604 0 67.6104 -7.41016 93.9307 -18.9502v210.8h150.76v-700zM300.76 118.079l-0.00878906 266.13
c-18.2598 5.74023 -40.7998 9.61035 -64.3496 9.61035c-50.9805 0 -58.9502 -25.1699 -58.9502 -78.0996v-144.86c0.849609 -35.2002 11.4697 -62.8701 63.0693 -62.8701c21.96 0 41.8896 3.29004 60.2393 10.0898z" />
    <glyph glyph-name="dcroat" unicode="&#x111;" horiz-adv-x="542" 
d="M451.52 641.96h76.7695v-75.9297h-76.7695v-566.03h-114.07l-3.91016 26c-30.3398 -21.7598 -73.3896 -33 -117.46 -33c-91.6699 0 -189.38 50.6904 -189.38 178.681v154.98c0 135.31 94.2002 181.479 180.16 181.479c33.8604 0 67.5908 -7.40039 93.9004 -18.9502
v76.8398h-96.7803v75.9297h96.7803v58.04h150.76v-58.04zM300.77 118.08l0.000976562 266.13c-18.2598 5.74023 -40.8096 9.61035 -64.3594 9.61035c-50.9697 0 -58.9502 -25.1699 -58.9502 -78.0996v-144.87c0.849609 -35.1904 11.4795 -62.8701 63.0791 -62.8701
c21.9502 0 41.8799 3.29004 60.2295 10.0996z" />
    <glyph glyph-name="e" unicode="e" horiz-adv-x="461" 
d="M26.7002 188.32l-0.00976562 119.681c0 122.55 72.6699 201.77 215.14 201.77c139.79 0 198.28 -83.0996 198.28 -201.319v-114.23h-267.2v-22.7803c0 -48.1504 33.79 -67.6699 75.6699 -67.6699c32.6602 0 66.0205 12.0898 87.3105 32.0498l83.7998 -62.8799
c-33.8701 -46.9805 -91.2598 -81.9502 -182.7 -81.9502c-154.56 0 -210.29 100.36 -210.29 197.33zM299.561 287.271l-0.000976562 25.5801c0 56.0996 -22.3799 80.6699 -59.5996 80.6699c-42.1797 0 -62.5098 -22.25 -62.5098 -81.1104v-25.1396h122.11z" />
    <glyph glyph-name="e.ss01" horiz-adv-x="462" 
d="M26.7002 188.32l-0.0107422 119.679c0 112.58 61.3301 188.59 181.6 200.21c10.6602 1.03027 21.7705 1.56055 33.3506 1.56055c128.59 0 200.18 -79 200.18 -175.27c0 -114.55 -89.8701 -149.609 -179.34 -149.609c-31.1797 0 -62.3096 4.25977 -89.5693 10.8994
v-24.3496c0 -48.1504 33.79 -67.6699 75.6699 -67.6699c32.6602 0 66.0205 12.0898 87.3105 32.0498l83.7998 -62.8799c-33.8701 -46.9805 -91.2598 -81.9502 -182.7 -81.9502c-154.56 0 -210.29 100.36 -210.29 197.33zM175.72 330.199l-0.0107422 -33.1104
c15.0596 -7.45996 42.5293 -15.2002 68.5098 -15.2002c32.9404 0 63.2607 12.4404 63.2607 53.5205c0 36.1299 -23.71 56.9502 -64.29 56.9502c-41.0098 0 -67.4697 -21.3301 -67.4697 -62.1602z" />
    <glyph glyph-name="eacute" unicode="&#xe9;" horiz-adv-x="461" 
d="M281.52 573.66h-98.1494l61.0498 126.34h132.72zM26.7002 188.32v119.681c0 122.55 72.6699 201.77 215.13 201.77c139.8 0 198.29 -83.0996 198.29 -201.319v-114.23h-267.21v-22.7803c0 -48.1504 33.7998 -67.6699 75.6797 -67.6699
c32.6504 0 66.0107 12.0898 87.3105 32.0498l83.7998 -62.8799c-33.8799 -46.9805 -91.2695 -81.9502 -182.699 -81.9502c-154.57 0 -210.301 100.36 -210.301 197.33zM299.57 287.271l-0.00976562 25.5801c0 56.0996 -22.3701 80.6699 -59.5898 80.6699
c-42.1904 0 -62.5205 -22.25 -62.5205 -81.1104v-25.1396h122.12z" />
    <glyph glyph-name="ecaron" unicode="&#x11b;" horiz-adv-x="461" 
d="M304.56 574.92h-133.739l-116.01 146.55h113.78l69 -85.4805l68.3096 85.4805h113.85zM26.6904 188.32v119.681c0 122.55 72.6699 201.77 215.13 201.77c139.8 0 198.29 -83.0996 198.29 -201.319v-114.23h-267.21v-22.7803
c0 -48.1504 33.7998 -67.6699 75.6797 -67.6699c32.6504 0 66.0107 12.0898 87.3105 32.0498l83.7998 -62.8799c-33.8799 -46.9805 -91.2695 -81.9502 -182.699 -81.9502c-154.57 0 -210.301 100.36 -210.301 197.33zM299.561 287.271l-0.00976562 25.5801
c0 56.0996 -22.3701 80.6699 -59.5898 80.6699c-42.1904 0 -62.5205 -22.25 -62.5205 -81.1104v-25.1396h122.12z" />
    <glyph glyph-name="ecircumflex" unicode="&#xea;" horiz-adv-x="461" 
d="M421.34 574.33h-113.84l-68.3203 85.4697l-69 -85.4697h-113.78l116.02 146.54h133.73zM26.7002 188.32v119.681c0 122.55 72.6699 201.77 215.13 201.77c139.8 0 198.29 -83.0996 198.29 -201.319v-114.23h-267.21v-22.7803
c0 -48.1504 33.7998 -67.6699 75.6797 -67.6699c32.6504 0 66.0107 12.0898 87.3105 32.0498l83.7998 -62.8799c-33.8799 -46.9805 -91.2695 -81.9502 -182.699 -81.9502c-154.57 0 -210.301 100.36 -210.301 197.33zM299.57 287.271l-0.00976562 25.5801
c0 56.0996 -22.3701 80.6699 -59.5898 80.6699c-42.1904 0 -62.5205 -22.25 -62.5205 -81.1104v-25.1396h122.12z" />
    <glyph glyph-name="edieresis" unicode="&#xeb;" horiz-adv-x="461" 
d="M136.51 700.21c37.79 0 66.9199 -29.1299 66.9199 -69.4697c0 -38.6396 -29.1299 -69.4697 -67.7695 -69.4697c-39.4902 0 -70.3203 30.8301 -70.3203 69.4697c0 40.3398 30.8301 69.4697 71.1699 69.4697zM349.24 700.21c37.79 0 66.9199 -29.1299 66.9199 -69.4697
c0 -38.6396 -29.1299 -69.4697 -67.7695 -69.4697c-39.4902 0 -70.3203 30.8301 -70.3203 69.4697c0 40.3398 30.8301 69.4697 71.1699 69.4697zM26.7002 188.32l-0.00976562 119.681c0 122.55 72.6699 201.77 215.14 201.77c139.79 0 198.28 -83.0996 198.28 -201.319
v-114.23h-267.2v-22.7803c0 -48.1504 33.79 -67.6699 75.6699 -67.6699c32.6602 0 66.0205 12.0898 87.3105 32.0498l83.7998 -62.8799c-33.8701 -46.9805 -91.2598 -81.9502 -182.7 -81.9502c-154.56 0 -210.29 100.36 -210.29 197.33zM299.561 287.271
l-0.000976562 25.5801c0 56.0996 -22.3799 80.6699 -59.5996 80.6699c-42.1797 0 -62.5098 -22.25 -62.5098 -81.1104v-25.1396h122.11z" />
    <glyph glyph-name="edotaccent" unicode="&#x117;" horiz-adv-x="461" 
d="M238.57 700.21c37.79 0 66.9199 -29.1299 66.9199 -69.4697c0 -38.6396 -29.1299 -69.4697 -67.7695 -69.4697c-39.4902 0 -70.3203 30.8301 -70.3203 69.4697c0 40.3398 30.8301 69.4697 71.1699 69.4697zM26.7002 188.32l-0.00976562 119.681
c0 122.55 72.6699 201.77 215.14 201.77c139.79 0 198.28 -83.0996 198.28 -201.319v-114.23h-267.2v-22.7803c0 -48.1504 33.79 -67.6699 75.6699 -67.6699c32.6602 0 66.0205 12.0898 87.3105 32.0498l83.7998 -62.8799
c-33.8701 -46.9805 -91.2598 -81.9502 -182.7 -81.9502c-154.56 0 -210.29 100.36 -210.29 197.33zM299.561 287.271l-0.000976562 25.5801c0 56.0996 -22.3799 80.6699 -59.5996 80.6699c-42.1797 0 -62.5098 -22.25 -62.5098 -81.1104v-25.1396h122.11z" />
    <glyph glyph-name="egrave" unicode="&#xe8;" horiz-adv-x="461" 
d="M326.94 573.66h-98.1602l-95.4697 126.34h132.58zM26.6904 188.32v119.681c0 122.55 72.6699 201.77 215.13 201.77c139.8 0 198.29 -83.0996 198.29 -201.319v-114.23h-267.21v-22.7803c0 -48.1504 33.7998 -67.6699 75.6797 -67.6699
c32.6504 0 66.0107 12.0898 87.3105 32.0498l83.7998 -62.8799c-33.8799 -46.9805 -91.2695 -81.9502 -182.699 -81.9502c-154.57 0 -210.301 100.36 -210.301 197.33zM299.561 287.271l-0.00976562 25.5801c0 56.0996 -22.3701 80.6699 -59.5898 80.6699
c-42.1904 0 -62.5205 -22.25 -62.5205 -81.1104v-25.1396h122.12z" />
    <glyph glyph-name="emacron" unicode="&#x113;" horiz-adv-x="461" 
d="M367.19 614.04h-264.23v76.0195h264.23v-76.0195zM26.7002 188.32l-0.00976562 119.681c0 122.55 72.6699 201.77 215.14 201.77c139.79 0 198.28 -83.0996 198.28 -201.319v-114.23h-267.2v-22.7803c0 -48.1504 33.79 -67.6699 75.6699 -67.6699
c32.6602 0 66.0205 12.0898 87.3105 32.0498l83.7998 -62.8799c-33.8701 -46.9805 -91.2598 -81.9502 -182.7 -81.9502c-154.56 0 -210.29 100.36 -210.29 197.33zM299.561 287.271l-0.000976562 25.5801c0 56.0996 -22.3799 80.6699 -59.5996 80.6699
c-42.1797 0 -62.5098 -22.25 -62.5098 -81.1104v-25.1396h122.11z" />
    <glyph glyph-name="eogonek" unicode="&#x119;" horiz-adv-x="461" 
d="M26.7002 188.32v119.839c0 122.55 72.6699 201.76 215.14 201.76c139.79 0 198.28 -83.0996 198.28 -201.319v-114.22h-267.2v-22.79c0 -48.1504 33.79 -67.6699 75.6699 -67.6699c32.6602 0 66.0205 12.0898 87.3105 32.0596l83.7998 -62.8799
c-17.4004 -23.9004 -40.8506 -44.5605 -71.7002 -59.1104c-54.4902 -52.3096 -66.5898 -84.0996 -66.5898 -109.859c0 -22.5098 13.5303 -33.1699 31.46 -33.1699c25.0195 0 39.6895 18.6904 58.4893 44.04l55.7803 -22c-33.3496 -58 -78.7598 -94 -146.029 -94
c-34.1396 0 -99.3594 15 -99.3594 89c0 27 12.2998 61 58.2998 104c-23.2998 0 -44.54 2 -63.8799 6c-107.4 23.2803 -149.471 106.61 -149.471 190.32zM299.57 287.429l-0.000976562 25.5801c0 56.0898 -22.3799 80.6699 -59.5996 80.6699
c-42.1797 0 -62.5098 -22.2598 -62.5098 -81.1201v-25.1299h122.11z" />
    <glyph glyph-name="f" unicode="f" horiz-adv-x="308" 
d="M38.9297 0v536.089c0 134.78 101.15 176.24 193.5 176.24c20.8203 0 41.0205 -2.08984 59.5205 -5.64941v-118.82c-13.5703 2.03027 -25.1504 3.01074 -34.9805 3.01074c-8.58984 0 -15.8398 -0.75 -21.9102 -2.2002
c-33.9004 -6.62012 -45.21 -32.0498 -45.3604 -73.7803l-0.00976562 -13.8896h94.8096v-113.07h-94.8096v-387.93h-150.76z" />
    <glyph glyph-name="g" unicode="g" horiz-adv-x="489" 
d="M26.7002 181.03v148.44c0 128.29 98.2803 178.98 189.38 178.98c44.0703 0 87.1201 -11.54 117.47 -33.2998l3.90039 26h114.07v-495.15c0 -127 -82.0596 -193 -183.96 -193c-61.3604 0 -126.92 21 -185.25 60l57.4697 81
c31.2998 -18.3203 63.6299 -31.0605 92.8799 -31.0605c40.1797 0 64.25 15.6299 68.0996 69.0596v27.2305c-26.25 -12.3398 -60.6602 -19.2295 -95.1299 -19.2295c-87.46 0.849609 -178.93 47.6992 -178.93 181.029zM300.76 118.28l0.00976562 264.78
c-18.3496 6.80957 -38.2793 10.0996 -60.2295 10.0996c-51.6104 0 -62.2305 -27.6797 -63.0801 -62.8701v-143.53c0 -52.9297 7.98047 -78.0996 58.9502 -78.0996c23.5498 0 46.0996 3.87012 64.3496 9.62012z" />
    <glyph glyph-name="gbreve" unicode="&#x11f;" horiz-adv-x="489" 
d="M346.04 700.19h63.5605c0 -88.9697 -69.8896 -148.64 -164.92 -148.64c-95.04 0 -164.92 59.6699 -164.92 148.64h63.5498c5.95996 -54.9004 56.7002 -72.4707 101.37 -72.4707c44.5195 0 95.3994 17.5703 101.359 72.4707zM26.7002 181.03l0.000976562 148.44
c0 128.29 98.29 178.98 189.38 178.98c44.0801 0 87.1201 -11.54 117.47 -33.2998l3.90039 26h114.08v-495.15c0 -127 -82.0596 -193 -183.97 -193c-61.3604 0 -126.91 21 -185.25 60l57.4697 81c31.3096 -18.3203 63.6396 -31.0605 92.8896 -31.0605
c40.1699 0 64.25 15.6299 68.0996 69.0596v27.2305c-26.2598 -12.3398 -60.6699 -19.2295 -95.1299 -19.2295c-87.46 0.849609 -178.94 47.6992 -178.94 181.029zM300.771 118.28l0.00878906 264.78c-18.3496 6.80957 -38.2793 10.0996 -60.2393 10.0996
c-51.5996 0 -62.2197 -27.6797 -63.0693 -62.8701v-143.53c0 -52.9297 7.96973 -78.0996 58.9502 -78.0996c23.5498 0 46.0898 3.87012 64.3496 9.62012z" />
    <glyph glyph-name="gcommaaccent" unicode="&#x123;" horiz-adv-x="489" 
d="M313.15 732.3l-23.5107 -73.1484c11.2305 -9.80957 18.4502 -24.1699 18.4502 -39.5303c0 -28.4102 -23.75 -52.4502 -52.4297 -52.4502c-28.6699 0 -52.4395 24.0195 -52.4395 52.4492c0 8.80957 2.29004 16.7695 6.2998 24.7197l41.5 87.96h62.1299zM26.6992 181.031
v148.44c0 128.29 98.2803 178.98 189.38 178.98c44.0703 0 87.1201 -11.54 117.47 -33.2998l3.90039 26h114.07v-495.15c0 -127 -82.0596 -193 -183.96 -193c-61.3604 0 -126.92 21 -185.25 60l57.4697 81c31.2998 -18.3203 63.6299 -31.0605 92.8799 -31.0605
c40.1797 0 64.25 15.6299 68.0996 69.0596v27.2305c-26.25 -12.3398 -60.6602 -19.2295 -95.1299 -19.2295c-87.46 0.849609 -178.93 47.6992 -178.93 181.029zM300.759 118.281l0.00976562 264.78c-18.3496 6.80957 -38.2793 10.0996 -60.2295 10.0996
c-51.6104 0 -62.2305 -27.6797 -63.0801 -62.8701v-143.53c0 -52.9297 7.98047 -78.0996 58.9502 -78.0996c23.5498 0 46.0996 3.87012 64.3496 9.62012z" />
    <glyph glyph-name="gdotaccent" unicode="&#x121;" horiz-adv-x="489" 
d="M246.81 700.21c37.79 0 66.9199 -29.1299 66.9199 -69.4697c0 -38.6396 -29.1299 -69.4697 -67.7695 -69.4697c-39.4902 0 -70.3203 30.8301 -70.3203 69.4697c0 40.3398 30.8301 69.4697 71.1699 69.4697zM26.6992 181.03l0.000976562 148.44
c0 128.29 98.29 178.98 189.38 178.98c44.0801 0 87.1201 -11.54 117.47 -33.2998l3.90039 26h114.08v-495.15c0 -127 -82.0596 -193 -183.97 -193c-61.3604 0 -126.91 21 -185.25 60l57.4697 81c31.3096 -18.3203 63.6396 -31.0605 92.8896 -31.0605
c40.1699 0 64.25 15.6299 68.0996 69.0596v27.2305c-26.2598 -12.3398 -60.6699 -19.2295 -95.1299 -19.2295c-87.46 0.849609 -178.94 47.6992 -178.94 181.029zM300.771 118.28l0.00878906 264.78c-18.3496 6.80957 -38.2793 10.0996 -60.2393 10.0996
c-51.5996 0 -62.2197 -27.6797 -63.0693 -62.8701v-143.53c0 -52.9297 7.96973 -78.0996 58.9502 -78.0996c23.5498 0 46.0898 3.87012 64.3496 9.62012z" />
    <glyph glyph-name="h" unicode="h" horiz-adv-x="501" 
d="M193.94 700l-0.000976562 -211.101c26.7402 12.4199 59.7305 19.25 93.1309 19.25c86.5098 0 180.93 -46.4102 180.93 -181.04v-327.11h-150.75v316.32c0 51.7402 -7.98047 77.6504 -59.25 77.6504c-22.96 0 -44.7598 -3.71973 -64.0596 -10.21v-383.76h-150.75v700
h150.75z" />
    <glyph glyph-name="hbar" unicode="&#x127;" horiz-adv-x="549" 
d="M242.01 641.22l108.589 0.00878906v-75.7803h-108.6v-76.0801c26.7402 12.4199 59.7207 19.2402 93.1006 19.2402c86.54 0 180.97 -46.4102 180.97 -181.03v-327.12h-150.76v316.32c0 51.7402 -7.96973 77.6504 -59.25 77.6504
c-22.96 0 -44.75 -3.70996 -64.0498 -10.2002v-383.77h-150.76v564.98h-80.0596v75.7803h80.0596v59.2305h150.76v-59.2305z" />
    <glyph glyph-name="i" unicode="i" horiz-adv-x="239" 
d="M122.28 708.71c44.3496 0 78.2607 -33.9209 78.2607 -78.2705c0 -40.1904 -29.5303 -79.0801 -78.2607 -79.0801c-44.3496 0 -79.0898 34.7305 -79.0898 79.0801c0 48.7402 38.8896 78.2705 79.0898 78.2705zM197.251 0.0888672h-150.76v500.82h150.76v-500.82z" />
    <glyph glyph-name="dotlessi" unicode="&#x131;" horiz-adv-x="223" 
d="M190.69 0.0898438h-150.76v500.82h150.76v-500.82z" />
    <glyph glyph-name="iacute" unicode="&#xed;" horiz-adv-x="229" 
d="M151.04 573.66h-98.1504l61.04 126.34h132.73zM190.689 0.0800781h-150.76v500.83h150.76v-500.83z" />
    <glyph glyph-name="icaron" unicode="&#x1d0;" horiz-adv-x="223" 
d="M184.92 574.92h-133.729l-116.19 146.55h114.01l68.9404 -85.4805l68.3096 85.4805h113.85zM190.691 0.0800781h-150.76v500.83h150.76v-500.83z" />
    <glyph glyph-name="icircumflex" unicode="&#xee;" horiz-adv-x="223" 
d="M301.7 574.33h-113.852l-68.3096 85.4697l-68.9404 -85.4697h-113.6l115.78 146.54h133.73zM190.688 0.0898438h-150.76v500.82h150.76v-500.82z" />
    <glyph glyph-name="idieresis" unicode="&#xef;" horiz-adv-x="223" 
d="M16.7998 700.21c37.79 0 66.9199 -29.1299 66.9199 -69.4697c0 -38.6396 -29.1299 -69.4697 -67.7695 -69.4697c-39.9502 0 -70.9502 30.8301 -70.9502 69.4697c0 40.3398 31 69.4697 71.7998 69.4697zM229.6 700.21c37.79 0 66.9199 -29.1299 66.9199 -69.4697
c0 -38.6396 -29.1299 -69.4697 -67.7695 -69.4697c-39.4902 0 -70.3203 30.8301 -70.3203 69.4697c0 40.3398 30.8301 69.4697 71.1699 69.4697zM190.689 0.0898438h-150.76v500.82h150.76v-500.82z" />
    <glyph glyph-name="igrave" unicode="&#xec;" horiz-adv-x="223" 
d="M187.82 573.66h-98.1494l-95.6699 126.34h132.77zM190.69 0.0800781h-150.76v500.83h150.76v-500.83z" />
    <glyph glyph-name="ij" unicode="&#x133;" horiz-adv-x="477" 
d="M360.95 708.79c44.3496 0 78.2607 -33.9111 78.2607 -78.2607c0 -40.2002 -29.5303 -79.0898 -78.2607 -79.0898c-44.3496 0 -79.0898 34.7402 -79.0898 79.0898c0 48.7305 38.8896 78.2607 79.0898 78.2607zM122.281 708.699
c44.3496 0 78.2607 -33.9111 78.2607 -78.2607c0 -40.2002 -29.5303 -79.0898 -78.2607 -79.0898c-44.3496 0 -79.0898 34.7402 -79.0898 79.0898c0 48.7305 38.8896 78.2607 79.0898 78.2607zM435.922 500.988l-0.000976562 -515c0 -120 -87.6699 -163 -173.979 -169
c-8.04004 -0.5 -16.04 -0.75 -24.1396 -0.75s-16.2998 0.25 -24.7295 0.75v120c16.1201 -1 28.3896 1 38.4697 4c32.1396 11 33.6299 39 33.6299 72.8896v487.11h150.75zM197.251 0.078125h-150.76v500.83h150.76v-500.83z" />
    <glyph glyph-name="imacron" unicode="&#x12b;" horiz-adv-x="223" 
d="M243.62 588.51h-263.62v76.0195h263.62v-76.0195zM190.69 0.0898438h-150.76v500.82h150.76v-500.82z" />
    <glyph glyph-name="iogonek" unicode="&#x12f;" horiz-adv-x="223" 
d="M118.78 700.21c37.79 0 66.9199 -29.1299 66.9199 -69.4697c0 -38.6396 -29.1299 -69.4697 -67.7695 -69.4697c-39.4902 0 -70.3203 30.8301 -70.3203 69.4697c0 40.3398 30.8301 69.4697 71.1699 69.4697zM190.69 500.61l0.00976562 -500.6
c-45.8896 -44.8398 -56.2197 -73.7197 -56.2197 -98.6895c0 -21 12.5898 -32.3203 29.5195 -32.3203c26.2197 -1 41.1602 19 60.4502 44l55.7803 -22c-33.3398 -58 -78.75 -94 -146.03 -94c-34.1396 0 -99.3799 14 -99.3799 89c0 28 14.3496 66 69.6299 113
l-64.5195 1.08984v500.52h150.76z" />
    <glyph glyph-name="j" unicode="j" horiz-adv-x="239" 
d="M122.35 708.79c44.3496 0 78.2705 -33.9111 78.2705 -78.2607c0 -40.2002 -29.5303 -79.0898 -78.2705 -79.0898c-44.3496 0 -79.0801 34.7402 -79.0801 79.0898c0 48.7305 38.8896 78.2607 79.0801 78.2607zM197.32 500.999l-0.00976562 -515
c0 -120 -87.6699 -163 -173.97 -169c-8.0498 -0.5 -16.1299 -0.75 -24.3301 -0.75s-16.5098 0.25 -25.0098 0.75v120c17 -1 28.8496 1 38.9395 4c32.1396 11 33.6299 39 33.6299 72.8799v487.12h150.75z" />
    <glyph glyph-name="k" unicode="k" horiz-adv-x="531" 
d="M193.94 357.62l116 149.789h176.74l-173.63 -216.82l209.68 -290.59h-167.19l-127.39 187.65l-34.21 -37.0098v-150.64h-150.75v700h150.75v-342.38z" />
    <glyph glyph-name="kcommaaccent" unicode="&#x137;" horiz-adv-x="531" 
d="M193.94 357.62l116 149.789h176.74l-173.63 -216.82l209.68 -290.59h-167.19l-127.39 187.65l-34.21 -37.0098v-150.64h-150.75v700h150.75v-342.38zM196.87 -231.001l23.5107 73c-11.2305 10 -18.4502 24 -18.4502 39c0 29 23.7598 53 52.4297 53
s52.4395 -24 52.4395 -53c0 -8 -2.29004 -16 -6.2998 -24l-41.5 -88h-62.1299z" />
    <glyph glyph-name="l" unicode="l" horiz-adv-x="226" 
d="M193.94 0h-150.75v700h150.75v-700z" />
    <glyph glyph-name="lacute" unicode="&#x13a;" horiz-adv-x="226" 
d="M171.07 773.48h-98.1494l61.0498 126.34h132.72zM193.951 0h-150.76v700h150.76v-700z" />
    <glyph glyph-name="lcaron" unicode="&#x13e;" horiz-adv-x="415" 
d="M240.8 560.21l36.6504 114.799c-17.6104 15.2305 -28.8906 37.7207 -28.8906 62.541c0 45.4502 37.6396 83.0898 83.0898 83.0898s83.0898 -37.6396 83.0898 -83.0898c0 -14.1299 -3.63965 -27.4902 -10.0195 -39.21l-65.0498 -138.13h-98.8701zM193.94 -0.000976562
h-150.75v700h150.75v-700z" />
    <glyph glyph-name="lcommaaccent" unicode="&#x13c;" horiz-adv-x="226" 
d="M193.94 0h-150.75v700h150.75v-700zM64.4004 -231l23.5107 73c-11.2305 10 -18.4502 24 -18.4502 39c0 29 23.7598 53 52.4297 53s52.4395 -24 52.4395 -53c0 -8 -2.29004 -16 -6.2998 -24l-41.5 -88h-62.1299z" />
    <glyph glyph-name="ldot" unicode="&#x140;" horiz-adv-x="418" 
d="M193.94 0h-150.75v700h150.75v-700zM321.87 439.82c45.4502 0 83.0898 -37.6396 83.0898 -83.0898s-37.6396 -83.0605 -83.0898 -83.0605s-83.2705 37.6104 -83.2705 83.0605s37.8203 83.0898 83.2705 83.0898z" />
    <glyph glyph-name="lslash" unicode="&#x142;" horiz-adv-x="469" 
d="M293.99 465.52l109.261 49.1709l57.6797 -122.58l-166.94 -74.9805v-317.13h-157.51v246.54l-76.5801 -34.3496l-51.3896 124.8l127.97 57.5498v305.46h157.51v-234.48z" />
    <glyph glyph-name="m" unicode="m" horiz-adv-x="750" 
d="M151.16 501l3.86914 -25.8398c34.4902 21.5898 76.5898 33 118.49 33c48.29 0 95.4102 -15.1299 128.25 -46.3799c55.75 35.96 90.4902 46.3799 137.21 46.3799c90.5 0 178.09 -56.7197 178.09 -181.04v-327.11h-149.29v315.87c0 51.1396 -4.75 77.7998 -53.2695 77.7998
c-20.9697 0 -37.0693 -2.40039 -67.2197 -13.1602c4.15039 -15.04 5.5 -36.4502 5.5 -55.3398v-325.18h-149.29v320.63c0 48.6201 -5.63965 73.04 -54 73.04c-22.5195 0 -44.0391 -3.87012 -62.0195 -9.91016v-383.76h-149.29v501h112.97z" />
    <glyph glyph-name="n" unicode="n" horiz-adv-x="496" 
d="M152.26 501l3.89941 -26c34.7803 21.8496 78.2402 33.1494 120.87 33.1494c93.2803 0 185.971 -54.0098 185.971 -181.029v-327.12h-150.75v316.32c0 51.5898 -8.28027 77.5098 -59.7002 77.5098c-22.8096 0 -44.46 -3.58008 -63.6104 -10.0703v-383.76h-150.75v501
h114.07z" />
    <glyph glyph-name="nacute" unicode="&#x144;" horiz-adv-x="496" 
d="M300.42 573.66h-98.1504l61.04 126.34h132.73zM152.27 501l3.88965 -26c34.79 21.8496 78.25 33.1494 120.88 33.1494c93.2695 0 185.97 -54.0098 185.97 -181.029v-327.12h-150.76v316.32c0 51.5898 -8.26953 77.5098 -59.6992 77.5098
c-22.7998 0 -44.4502 -3.58008 -63.6006 -10.0703v-383.76h-150.76v501h114.08z" />
    <glyph glyph-name="ncaron" unicode="&#x148;" horiz-adv-x="496" 
d="M323.45 574.92h-133.729l-116.01 146.55h113.77l69 -85.4805l68.3203 85.4805h113.85zM152.261 501l3.89941 -26c34.7803 21.8496 78.2402 33.1494 120.87 33.1494c93.2803 0 185.971 -54.0098 185.971 -181.029v-327.12h-150.75v316.32
c0 51.5898 -8.28027 77.5098 -59.7002 77.5098c-22.8096 0 -44.46 -3.58008 -63.6104 -10.0703v-383.76h-150.75v501h114.07z" />
    <glyph glyph-name="ncommaaccent" unicode="&#x146;" horiz-adv-x="496" 
d="M152.26 501l3.89941 -26c34.7803 21.8496 78.2402 33.1494 120.87 33.1494c93.2803 0 185.971 -54.0098 185.971 -181.029v-327.12h-150.75v316.32c0 51.5898 -8.28027 77.5098 -59.7002 77.5098c-22.8096 0 -44.46 -3.58008 -63.6104 -10.0703v-383.76h-150.75v501
h114.07zM190.39 -231l23.5107 73c-11.2305 10 -18.4502 24 -18.4502 39c0 29 23.7598 53 52.4297 53s52.4395 -24 52.4395 -53c0 -8 -2.29004 -16 -6.2998 -24l-41.5 -88h-62.1299z" />
    <glyph glyph-name="eng" unicode="&#x14b;" horiz-adv-x="500" 
d="M152.26 501l3.89746 -26.0098c34.79 21.8398 78.25 33.1494 120.87 33.1494c93.29 0 185.98 -54.0098 185.98 -181.029v-365.12c0 -119 -87.5498 -163 -173.27 -168c-8.11035 -1 -16.2002 -1.5 -24.4199 -1.5c-8.20996 0 -16.5498 0.5 -25.1602 1.5v119
c16.29 0 28.6699 1 38.8203 4c31.8496 11 33.2695 40 33.2695 73v326.32c0 51.5996 -8.26953 77.5098 -59.6992 77.5098c-22.8096 0 -44.4492 -3.57031 -63.5996 -10.0605v-383.76h-150.76v501h114.07z" />
    <glyph glyph-name="ntilde" unicode="&#xf1;" horiz-adv-x="496" 
d="M136.25 579.01l-51.7773 68.541c5.20996 5.50977 59.8301 63.8496 116.43 63.8496c46.46 0 66.79 -37.5 103.83 -37.5c35.8096 0 65.9092 41.7402 69.3291 45.3203l52.1797 -68.6904c-4.16992 -3.87012 -58.8799 -61.6201 -114.74 -61.6201
c-46.4502 0 -70.9102 37.2002 -110.9 37.2002c-31.6104 0 -60.0303 -42.1904 -64.3506 -47.1006zM152.263 501.001l3.89941 -26c34.7803 21.8496 78.2402 33.1494 120.87 33.1494c93.2803 0 185.971 -54.0098 185.971 -181.029v-327.12h-150.75v316.32
c0 51.5898 -8.28027 77.5098 -59.7002 77.5098c-22.8096 0 -44.46 -3.58008 -63.6104 -10.0703v-383.76h-150.75v501h114.07z" />
    <glyph glyph-name="o" unicode="o" horiz-adv-x="478" 
d="M26.7002 195.76v108.81c0 124.95 71.46 205.49 215.7 205.49c140.64 0 209.859 -84.8799 209.859 -205.479v-108.82c0 -95.0098 -51.1904 -203.77 -211.54 -203.77c-159.63 0 -214.02 106.81 -214.02 203.77zM301.51 195.749l-0.00976562 108.821
c0 55.0596 -18.7998 84.9893 -60.79 84.9893c-46.7998 0 -63.2598 -25.8301 -63.2598 -84.9902v-108.82c0 -46.1299 16.0498 -83.3398 63.2695 -83.3398c46.1396 0 60.79 36.79 60.79 83.3398z" />
    <glyph glyph-name="oacute" unicode="&#xf3;" horiz-adv-x="478" 
d="M280.51 573.66h-98.1504l61.04 126.34h132.73zM26.6992 195.76v108.81c0 124.95 71.46 205.49 215.7 205.49c140.64 0 209.859 -84.8799 209.859 -205.479v-108.82c0 -95.0098 -51.1904 -203.77 -211.54 -203.77c-159.63 0 -214.02 106.81 -214.02 203.77z
M301.509 195.749l-0.00976562 108.821c0 55.0596 -18.7998 84.9893 -60.79 84.9893c-46.7998 0 -63.2598 -25.8301 -63.2598 -84.9902v-108.82c0 -46.1299 16.0498 -83.3398 63.2695 -83.3398c46.1396 0 60.79 36.79 60.79 83.3398z" />
    <glyph glyph-name="ocaron" unicode="&#x1d2;" horiz-adv-x="478" 
d="M308.01 574.92h-133.729l-116.01 146.55h113.77l69 -85.4805l68.3203 85.4805h113.84zM26.7002 195.76v108.81c0 124.95 71.46 205.49 215.7 205.49c140.64 0 209.87 -84.8799 209.87 -205.479v-108.82c0 -95.0098 -51.1904 -203.77 -211.551 -203.77
c-159.63 0 -214.02 106.81 -214.02 203.77zM301.51 195.749l-0.00976562 108.821c0 55.0596 -18.7998 84.9893 -60.7803 84.9893c-46.7998 0 -63.2598 -25.8301 -63.2598 -84.9902v-108.82c0 -46.1299 16.04 -83.3398 63.2598 -83.3398c46.1396 0 60.79 36.79 60.79 83.3398
z" />
    <glyph glyph-name="ocircumflex" unicode="&#xf4;" horiz-adv-x="478" 
d="M424.79 574.33h-113.84l-68.3203 85.4697l-69 -85.4697h-113.78l116.02 146.54h133.73zM26.7002 195.76v108.81c0 124.95 71.46 205.49 215.7 205.49c140.64 0 209.859 -84.8799 209.859 -205.479v-108.82c0 -95.0098 -51.1904 -203.77 -211.54 -203.77
c-159.63 0 -214.02 106.81 -214.02 203.77zM301.51 195.749l-0.00976562 108.821c0 55.0596 -18.7998 84.9893 -60.79 84.9893c-46.7998 0 -63.2598 -25.8301 -63.2598 -84.9902v-108.82c0 -46.1299 16.0498 -83.3398 63.2695 -83.3398c46.1396 0 60.79 36.79 60.79 83.3398
z" />
    <glyph glyph-name="odieresis" unicode="&#xf6;" horiz-adv-x="478" 
d="M139.97 700.21c37.79 0 66.9199 -29.1299 66.9199 -69.4697c0 -38.6396 -29.1299 -69.4697 -67.7695 -69.4697c-39.4902 0 -70.3203 30.8301 -70.3203 69.4697c0 40.3398 30.8301 69.4697 71.1699 69.4697zM352.689 700.21c37.79 0 66.9199 -29.1299 66.9199 -69.4697
c0 -38.6396 -29.1299 -69.4697 -67.7695 -69.4697c-39.4902 0 -70.3203 30.8301 -70.3203 69.4697c0 40.3398 30.8301 69.4697 71.1699 69.4697zM26.6992 195.76v108.81c0 124.95 71.46 205.49 215.7 205.49c140.64 0 209.859 -84.8799 209.859 -205.479v-108.82
c0 -95.0098 -51.1904 -203.77 -211.54 -203.77c-159.63 0 -214.02 106.81 -214.02 203.77zM301.509 195.749l-0.00976562 108.821c0 55.0596 -18.7998 84.9893 -60.79 84.9893c-46.7998 0 -63.2598 -25.8301 -63.2598 -84.9902v-108.82
c0 -46.1299 16.0498 -83.3398 63.2695 -83.3398c46.1396 0 60.79 36.79 60.79 83.3398z" />
    <glyph glyph-name="ograve" unicode="&#xf2;" horiz-adv-x="478" 
d="M330.39 573.66h-98.1494l-95.4805 126.34h132.59zM26.7002 195.76v108.81c0 124.95 71.46 205.49 215.7 205.49c140.64 0 209.859 -84.8799 209.859 -205.479v-108.82c0 -95.0098 -51.1904 -203.77 -211.54 -203.77c-159.63 0 -214.02 106.81 -214.02 203.77z
M301.51 195.749l-0.00976562 108.821c0 55.0596 -18.7998 84.9893 -60.79 84.9893c-46.7998 0 -63.2598 -25.8301 -63.2598 -84.9902v-108.82c0 -46.1299 16.0498 -83.3398 63.2695 -83.3398c46.1396 0 60.79 36.79 60.79 83.3398z" />
    <glyph glyph-name="ohungarumlaut" unicode="&#x151;" horiz-adv-x="478" 
d="M190.25 571.96h-91.5791l53.3496 128.04h122.17zM363.801 571.96h-91.5791l53.3496 128.04h122.17zM26.7021 195.76v108.81c0 124.95 71.46 205.49 215.7 205.49c140.64 0 209.859 -84.8799 209.859 -205.479v-108.82c0 -95.0098 -51.1904 -203.77 -211.54 -203.77
c-159.63 0 -214.02 106.81 -214.02 203.77zM301.512 195.749l-0.00976562 108.821c0 55.0596 -18.7998 84.9893 -60.79 84.9893c-46.7998 0 -63.2598 -25.8301 -63.2598 -84.9902v-108.82c0 -46.1299 16.0498 -83.3398 63.2695 -83.3398
c46.1396 0 60.79 36.79 60.79 83.3398z" />
    <glyph glyph-name="omacron" unicode="&#x14d;" horiz-adv-x="478" 
d="M371.67 588.51h-264.23v76.0195h264.23v-76.0195zM26.6992 195.76v108.81c0 124.95 71.46 205.49 215.7 205.49c140.64 0 209.859 -84.8799 209.859 -205.479v-108.82c0 -95.0098 -51.1904 -203.77 -211.54 -203.77c-159.63 0 -214.02 106.81 -214.02 203.77z
M301.509 195.749l-0.00976562 108.821c0 55.0596 -18.7998 84.9893 -60.79 84.9893c-46.7998 0 -63.2598 -25.8301 -63.2598 -84.9902v-108.82c0 -46.1299 16.0498 -83.3398 63.2695 -83.3398c46.1396 0 60.79 36.79 60.79 83.3398z" />
    <glyph glyph-name="oslash" unicode="&#xf8;" horiz-adv-x="478" 
d="M392.85 551l-25.0898 -72.3291c56.5303 -35.1699 84.5205 -97.4102 84.5205 -174.09v-108.82c0 -95.0098 -51.1904 -203.77 -211.551 -203.77c-14.54 0 -28.21 0.889648 -41.0498 2.56934l-15.4697 -44.5703h-98.0898l25.9297 74.6797
c-61.7402 39.0703 -85.3398 107.21 -85.3398 171.09v108.82c0 124.95 71.46 205.49 215.7 205.49c13.0801 0 25.5498 -0.740234 37.3994 -2.16992l14.96 43.0996h98.0801zM177.47 213.101l61.2598 176.45c-45.2695 -0.740234 -61.2598 -26.6699 -61.2598 -84.9697v-91.4805z
M301.52 287.881l-60.79 -175.46c46.1396 0 60.79 36.79 60.79 83.3398v92.1201z" />
    <glyph glyph-name="otilde" unicode="&#xf5;" horiz-adv-x="478" 
d="M120.81 579.01l-51.7773 68.541c5.20996 5.50977 59.8301 63.8496 116.43 63.8496c46.46 0 66.79 -37.5 103.83 -37.5c35.8096 0 65.9092 41.7402 69.3291 45.3203l52.1797 -68.6904c-4.16992 -3.87012 -58.8799 -61.6201 -114.74 -61.6201
c-46.4502 0 -70.9102 37.2002 -110.9 37.2002c-31.6104 0 -60.0303 -42.1904 -64.3506 -47.1006zM26.7021 195.761v108.81c0 124.95 71.46 205.49 215.7 205.49c140.64 0 209.87 -84.8799 209.87 -205.479v-108.82c0 -95.0098 -51.1904 -203.77 -211.551 -203.77
c-159.63 0 -214.02 106.81 -214.02 203.77zM301.512 195.75l-0.00976562 108.821c0 55.0596 -18.7998 84.9893 -60.7803 84.9893c-46.7998 0 -63.2598 -25.8301 -63.2598 -84.9902v-108.82c0 -46.1299 16.04 -83.3398 63.2598 -83.3398c46.1396 0 60.79 36.79 60.79 83.3398
z" />
    <glyph glyph-name="oe" unicode="&#x153;" horiz-adv-x="736" 
d="M26.7002 194.07l-0.0107422 108.803c0 124.01 70.4004 205.479 214.021 205.479c96.3799 0 132.47 -41.6201 136.04 -52.6396c3.28027 11.1699 39.7207 52.3496 138.171 52.3496c141.02 0 199.989 -82.6201 199.989 -201.311v-114.23h-267.2v-23.0801
c0 -47.3096 34.5996 -67.6699 75.4297 -67.6699c31 0 65.1904 12.1797 87.7002 32.4697l83.6504 -63c-33.8701 -46.9805 -91.2705 -81.2402 -182.99 -81.2402c-93.7305 0 -132.83 40.9902 -135.061 52.1602c-3.58008 -9.08984 -39.5996 -52.1602 -135.729 -52.1602
c-159.63 0 -214.01 107.1 -214.01 204.069zM574.359 285.563l-0.000976562 25.5898c0 56.0898 -22.3799 80.6699 -59.5996 80.6699c-42.1797 0 -62.5098 -22.2598 -62.5098 -81.1201v-25.1396h122.11zM301.488 193.014v109.86c0 55.0498 -18.7998 84.9902 -60.79 84.9902
c-46.7998 0 -63.2598 -25.8301 -63.2598 -84.9902v-108.82c0 -46.1299 16.04 -83.3398 63.2598 -83.3398c45.6904 0 60.79 36.79 60.79 82.2998z" />
    <glyph glyph-name="p" unicode="p" horiz-adv-x="494" 
d="M157.26 500.85l3.90039 -25.999c30.3496 21.7598 73.3994 33.2998 117.47 33.2998c91.6699 0 189.38 -51 189.38 -178.99v-154.98c0 -134.3 -92.7998 -181.18 -179.24 -181.18c-34.1602 0 -68.2803 7 -94.8301 18.6504v-211.65h-150.75v700.85h114.07zM317.25 185.131
l-0.000976562 144.86c-0.849609 35.2002 -11.4697 62.8701 -63.0693 62.8701c-21.96 0 -41.8896 -3.29004 -60.2393 -10.0898v-266.13c18.2598 -5.74023 40.8096 -9.61035 64.3594 -9.61035c50.9697 0 58.9502 25.1699 58.9502 78.0996z" />
    <glyph glyph-name="thorn" unicode="&#xfe;" horiz-adv-x="529" 
d="M194.69 698.35l-0.00976562 -211.091c26.5596 12.04 60.6699 19.3799 94.8398 19.3799c86.4297 -0.849609 179.229 -47.3193 179.229 -181.629v-151.13c0 -133.92 -93.5996 -179.88 -179.97 -180.88c-33.7197 0 -67.0898 6 -94.0898 19.0996v-206.1h-150.76v892.35
h150.76zM317.99 184.398l0.0117188 129.391c0 52.9404 -7.98047 78.1006 -58.9609 78.1006c-23.5498 0 -46.0898 -3.86035 -64.3496 -9.61035v-265.33c19.1504 -6.49023 40.79 -10.0605 63.5996 -10.0605c51.4297 0 59.6992 25.9102 59.6992 77.5098z" />
    <glyph glyph-name="q" unicode="q" horiz-adv-x="489" 
d="M26.7002 174.18l-0.00976562 155.34c0 128.29 98.2803 178.98 189.38 178.98c44.0703 0 87.1201 -11.54 117.47 -33.2998l3.90039 26h114.07v-701.13h-150.75v211.93c-26.5498 -12 -60.6699 -19 -94.8301 -19c-86.4404 0 -179.23 46.8799 -179.23 181.18zM300.75 116.989
l0.00976562 266.12c-18.3496 6.80957 -38.2793 10.0996 -60.2295 10.0996c-51.6104 0 -62.2305 -27.6797 -63.0801 -62.8701v-144.87c0 -52.9297 7.98047 -78.0996 58.9502 -78.0996c23.5498 0 46.0996 3.87012 64.3496 9.62012z" />
    <glyph glyph-name="r" unicode="r" horiz-adv-x="333" 
d="M152.26 510.36l6.62793 -50.0508c34.8301 39.2695 71.54 48.1396 120.22 48.1396c15.7305 0 31.3604 -1.55957 45.5107 -4.88965v-120.47c-23.25 4.90039 -42.8496 7.89062 -59.0996 7.89062c-9 0 -16.9697 -0.919922 -23.9502 -2.93945
c-35.3096 -6.57031 -52.7393 -33.4307 -52.7393 -85.3809v-302.66h-150.64v510.36h114.07z" />
    <glyph glyph-name="racute" unicode="&#x155;" horiz-adv-x="333" 
d="M211.61 573.66h-98.1494l61.0498 126.34h132.72zM152.261 510.36l6.62793 -50.0508c34.8301 39.2695 71.54 48.1396 120.22 48.1396c15.7305 0 31.3604 -1.55957 45.5107 -4.88965v-120.47c-23.25 4.90039 -42.8496 7.89062 -59.0996 7.89062
c-9 0 -16.9697 -0.919922 -23.9502 -2.93945c-35.3096 -6.57031 -52.7393 -33.4307 -52.7393 -85.3809v-302.66h-150.64v510.36h114.07z" />
    <glyph glyph-name="rcaron" unicode="&#x159;" horiz-adv-x="333" 
d="M234.65 574.92h-133.729l-115.92 146.55h113.68l69 -85.4805l68.3096 85.4805h113.85zM152.262 510.36l6.62793 -50.0508c34.8301 39.2695 71.54 48.1396 120.22 48.1396c15.7305 0 31.3604 -1.55957 45.5107 -4.88965v-120.47
c-23.25 4.90039 -42.8496 7.89062 -59.0996 7.89062c-9 0 -16.9697 -0.919922 -23.9502 -2.93945c-35.3096 -6.57031 -52.7393 -33.4307 -52.7393 -85.3809v-302.66h-150.64v510.36h114.07z" />
    <glyph glyph-name="rcommaaccent" unicode="&#x157;" horiz-adv-x="333" 
d="M152.26 510.36l6.62793 -50.0508c34.8301 39.2695 71.54 48.1396 120.22 48.1396c15.7305 0 31.3604 -1.55957 45.5107 -4.88965v-120.47c-23.25 4.90039 -42.8496 7.89062 -59.0996 7.89062c-9 0 -16.9697 -0.919922 -23.9502 -2.93945
c-35.3096 -6.57031 -52.7393 -33.4307 -52.7393 -85.3809v-302.66h-150.64v510.36h114.07zM53.5273 -230.99l23.501 73c-11.2305 10 -18.4502 24 -18.4502 39c0 29 23.7695 53 52.4395 53s52.4297 -24 52.4297 -53c0 -8 -2.29004 -16 -6.2998 -24l-41.5 -88h-62.1201z" />
    <glyph glyph-name="s" unicode="s" horiz-adv-x="438" 
d="M20.21 149.93l146.58 -0.00195312c3.48047 -22.8203 16.5605 -39.25 49.6406 -39.25c31.0303 0 48.79 16.3096 48.79 39.8193c0 32.9502 -28.0801 38.0605 -76.0703 47.8604c-87.0703 16.4902 -161.7 43.8701 -161.7 155.12c0 93.6299 57.7402 156.74 191.561 156.74
c130.25 0 190.11 -61.3398 190.11 -157.35h-144.44c0.129883 16.9004 -11.8701 36.7705 -44.8398 36.7705c-32.7402 0 -44.8506 -19.5898 -44.8506 -36.3994c0 -22.0703 13.4004 -35.46 71.8105 -46.46c109.14 -19.3496 170.6 -59.9893 170.6 -156.999
c0 -77.5898 -46.5898 -158.78 -188.99 -158.78c-132.95 0 -207.46 58.1299 -208.2 158.93z" />
    <glyph glyph-name="sacute" unicode="&#x15b;" horiz-adv-x="438" 
d="M264.6 573.66h-98.1504l61.04 126.34h132.73zM20.209 149.92h146.58c3.48047 -22.8203 16.5703 -39.2402 49.6406 -39.2402c31.04 0 48.7998 16.3096 48.7998 39.8193c0 32.9404 -28.0801 38.0605 -76.0801 47.8604c-87.0596 16.4902 -161.689 43.8604 -161.689 155.12
c0 93.6299 57.7402 156.729 191.55 156.729c130.26 0 190.12 -61.3301 190.12 -157.34h-144.44c0.120117 16.8896 -11.8799 36.7598 -44.8496 36.7598c-32.7305 0 -44.8506 -19.5801 -44.8506 -36.4004c0 -22.0596 13.4004 -35.46 71.8203 -46.46
c109.13 -19.3398 170.59 -59.9795 170.59 -156.989c0 -77.5996 -46.5898 -158.779 -188.99 -158.779c-132.94 0 -207.45 58.1201 -208.2 158.92z" />
    <glyph glyph-name="scaron" unicode="&#x161;" horiz-adv-x="438" 
d="M287.63 574.92h-133.73l-116.02 146.55h113.78l69 -85.4805l68.3203 85.4805h113.85zM20.209 149.92h146.58c3.48047 -22.8203 16.5605 -39.2402 49.6406 -39.2402c31.0303 0 48.79 16.3096 48.79 39.8193c0 32.9404 -28.0801 38.0605 -76.0703 47.8604
c-87.0703 16.4902 -161.7 43.8604 -161.7 155.12c0 93.6299 57.7402 156.729 191.561 156.729c130.25 0 190.11 -61.3301 190.11 -157.34h-144.44c0.129883 16.8896 -11.8701 36.7598 -44.8398 36.7598c-32.7402 0 -44.8506 -19.5801 -44.8506 -36.4004
c0 -22.0596 13.4004 -35.46 71.8105 -46.46c109.14 -19.3398 170.6 -59.9795 170.6 -156.989c0 -77.5996 -46.5898 -158.779 -188.99 -158.779c-132.95 0 -207.46 58.1201 -208.2 158.92z" />
    <glyph glyph-name="scedilla" unicode="&#x15f;" horiz-adv-x="438" 
d="M20.21 149.93l146.59 -0.259766c3.48047 -22.8203 16.5703 -39.2402 49.6406 -39.2402c31.04 0 48.7998 16.3096 48.7998 39.8193c0 32.9404 -28.0801 38.0605 -76.0801 47.8604c-87.0596 16.4902 -161.689 43.8604 -161.689 155.12
c0 93.6299 57.7402 156.729 191.55 156.729c130.25 0 190.11 -61.3301 190.11 -157.34h-144.44c0.129883 16.8896 -11.8701 36.7598 -44.8398 36.7598c-32.7402 0 -44.8506 -19.5801 -44.8506 -36.4004c0 -22.0596 13.4004 -35.46 71.8105 -46.46
c109.14 -19.3398 170.59 -59.9795 170.59 -156.989c0 -55.9297 -25.0898 -112.939 -90.7295 -140.529c-21.6797 -10 -48.29 -15 -80.9404 -17l-16.7197 -25c13.1201 3 26.4502 4 39.1504 3c45.2598 -6 80.6299 -34 80.6299 -90c0 -77 -66.1699 -104 -135.92 -104
c-48.1201 0 -96.8701 21 -124.99 33l23.6797 56c29.7002 -11 59.1006 -19 87.9004 -22c26.96 -2 49.4795 11 49.4795 33s-12.9697 33 -38.21 32c-15.1201 0 -30.1006 -3 -49.041 -10l-28.4199 25l45.4404 71c-101.97 12.7998 -157.8 68.8193 -158.5 155.93z" />
    <glyph glyph-name="scommaaccent" unicode="&#x219;" horiz-adv-x="438" 
d="M20.21 149.93l146.579 -0.000976562c3.48047 -22.8203 16.5605 -39.25 49.6406 -39.25c31.0303 0 48.79 16.3096 48.79 39.8291c0 32.8701 -27.9502 38.0098 -75.8799 47.79c-87.1299 16.5098 -161.89 43.8594 -161.89 155.18c0 93.6299 57.7402 156.74 191.561 156.74
c130.25 0 190.11 -61.3398 190.11 -157.35h-144.44c0.129883 16.9004 -11.8701 36.7705 -44.8398 36.7705c-32.7402 0 -44.8506 -19.5898 -44.8506 -36.3994c0 -22.0703 13.4004 -35.46 71.8105 -46.46c109.14 -19.3496 170.6 -59.9893 170.6 -156.999
c0 -77.5898 -46.5898 -158.78 -188.99 -158.78c-132.95 0 -207.46 58.1299 -208.2 158.93zM157.149 -231.001l23.501 73c-11.2305 10 -18.4502 24 -18.4502 39c0 29 23.7695 53 52.4395 53s52.4297 -24 52.4297 -53c0 -8 -2.29004 -16 -6.2998 -24l-41.5 -88h-62.1201z" />
    <glyph glyph-name="germandbls" unicode="&#xdf;" horiz-adv-x="563" 
d="M57.4404 0l0.0126953 501.12c0 119.87 75.4502 208.53 225.17 208.53c150.36 0 219.851 -92.0303 219.851 -198.91c0 -83.9902 -50.2402 -111.931 -59.1807 -115.36c12.0596 -3.71973 89.79 -41.6699 89.79 -161.2c0 -115.58 -89.5703 -234.18 -237.011 -234.18h-38.9199
v138.99h38.9199c48.3496 0 79.5693 31.46 79.5693 94.4902c0 62.2998 -34.5 92.0195 -78.79 92.4395l-19.9004 0.00976562v138.6l19.8096 0.00976562c21.8604 0.349609 48.25 16 48.25 55.7803c0 41.2305 -22.5 50.3408 -63.6699 50.3408
c-42.3203 0 -66.46 -27.5303 -66.46 -60.7002v-509.96h-157.44z" />
    <glyph glyph-name="t" unicode="t" horiz-adv-x="321" 
d="M189.69 501l94.8096 0.00976562v-120.5h-94.8096v-181.14c0 -43.9199 6.74023 -75.6201 44.4404 -86.0801c8.32031 -2.2998 18.3301 -3.50977 30.4102 -3.50977c9.41016 0 20.0703 0.730469 32.1699 2.27051v-119.05c-16.5 -2.16016 -33.9805 -3.81055 -51.7705 -3.81055
c-97.5498 0 -206.01 41.7197 -206.01 182.229v451.23h150.76v-121.65z" />
    <glyph glyph-name="tbar" unicode="&#x167;" horiz-adv-x="321" 
d="M189.69 501l94.8193 -0.00878906v-120.49h-94.8096v-49.04h94.8096v-98.3701h-94.8096v-33.7402c0 -43.4805 6.33984 -75.0801 43.46 -85.7705c8.62988 -2.4502 19.0498 -3.75 31.6602 -3.75c9.37012 0 19.9502 0.719727 31.9004 2.20996v-119.04
c-16.8398 -2.16016 -34.6299 -3.81055 -52.6699 -3.81055c-97.21 0 -205.12 42.2803 -205.12 182.23v450.79h150.76v-121.21z" />
    <glyph glyph-name="tcaron" unicode="&#x165;" horiz-adv-x="321" 
d="M236.55 560.21l36.6406 114.799c-17.6104 15.2305 -28.8906 37.7207 -28.8906 62.541c0 45.4502 37.6396 83.0898 83.0898 83.0898s83.0898 -37.6396 83.0898 -83.0898c0 -14.1299 -3.63965 -27.4902 -10.0098 -39.21l-65.0498 -138.13h-98.8701zM189.681 500.999
l94.8213 0.00976562v-120.5h-94.8203v-181.14c0 -43.9199 6.75 -75.6201 44.4502 -86.0801c8.30957 -2.2998 18.3193 -3.50977 30.3994 -3.50977c9.41016 0 20.0801 0.730469 32.1699 2.27051v-119.05c-16.4902 -2.16016 -33.9805 -3.81055 -51.7607 -3.81055
c-97.5596 0 -206.01 41.7197 -206.01 182.229v451.23h150.75v-121.65z" />
    <glyph glyph-name="tcedilla" unicode="&#x163;" horiz-adv-x="321" 
d="M189.69 501l94.8135 0.0078125v-120.49h-94.8203v-181.14c0 -43.9297 6.75 -75.6201 44.4502 -86.0898c8.30957 -2.29004 18.3193 -3.50977 30.3994 -3.50977c9.41016 0 20.0801 0.740234 32.1699 2.27051v-119.05c-16.4902 -2.16016 -33.9805 -3.7998 -51.7607 -3.7998
c-6.88965 0 -13.8301 0.240234 -20.7705 0.799805c-12.6396 0 -25.25 2 -37.5898 5l-15.9805 -23c8.37012 1.90039 16.8105 2.60059 25.1201 2.60059c51.9199 0 94.6504 -28.96 94.6504 -89.5996c0 -77 -66.1602 -104 -135.91 -104c-48.1201 0 -96.8799 21 -124.99 33
l23.6797 56c29.6904 -12 59.1006 -19 87.9004 -22c26.96 -2 49.4697 10 49.4697 32c0 23 -12.96 34 -38.21 34c-15.1104 0 -30.0908 -4 -49.0312 -12l-28.4199 26l54.04 84.1104c-52.0596 26.0596 -89.9697 75.5996 -89.9697 159.31v451.23h150.76v-121.65z" />
    <glyph glyph-name="uni021B" unicode="&#x21b;" horiz-adv-x="321" 
d="M189.69 501l94.8096 0.00976562v-120.5h-94.8096v-181.14c0 -43.9199 6.74023 -75.6201 44.4404 -86.0801c8.32031 -2.2998 18.3301 -3.50977 30.4102 -3.50977c9.41016 0 20.0703 0.730469 32.1699 2.27051v-119.05c-16.5 -2.16016 -33.9805 -3.81055 -51.7705 -3.81055
c-97.5498 0 -206.01 41.7197 -206.01 182.229v451.23h150.76v-121.65zM113.25 -230.99l23.5107 73c-11.2305 10 -18.4502 24 -18.4502 39c0 29 23.7598 53 52.4297 53s52.4395 -24 52.4395 -53c0 -8 -2.29004 -16 -6.2998 -24l-41.5 -88h-62.1299z" />
    <glyph glyph-name="u" unicode="u" 
d="M458.01 0l-114.068 -0.0107422l-3.90039 26c-34.3604 -21.5801 -77.1807 -33 -119.601 -33c-93.7002 0 -187.25 53.2803 -187.25 180.891v327.11h150.76v-316.32c0 -51.5898 8.26953 -77.5 59.6992 -77.5c22.7998 0 44.4502 3.57031 63.6006 10.0605v383.77h150.76v-501z
" />
    <glyph glyph-name="uacute" unicode="&#xfa;" 
d="M294.16 573.66h-98.1504l61.04 126.34h132.73zM458.01 0l-114.068 -0.0107422l-3.90039 26c-34.3604 -21.5801 -77.1807 -33 -119.601 -33c-93.7002 0 -187.25 53.2803 -187.25 180.891v327.11h150.76v-316.32c0 -51.5898 8.26953 -77.5 59.6992 -77.5
c22.7998 0 44.4502 3.57031 63.6006 10.0605v383.77h150.76v-501z" />
    <glyph glyph-name="ucaron" unicode="&#x1d4;" 
d="M317.19 574.92h-133.73l-116.02 146.55h113.78l69 -85.4805l68.3203 85.4805h113.85zM458 -0l-114.07 -0.0107422l-3.90039 26c-34.3496 -21.5801 -77.1699 -33 -119.59 -33c-93.71 0 -187.25 53.2803 -187.25 180.891v327.11h150.75v-316.32
c0 -51.5898 8.28027 -77.5 59.7002 -77.5c22.8096 0 44.46 3.57031 63.6104 10.0605v383.77h150.75v-501z" />
    <glyph glyph-name="ucircumflex" unicode="&#xfb;" 
d="M433.98 574.33h-113.851l-68.3096 85.4697l-69 -85.4697h-113.78l116.01 146.54h133.73zM458.01 0l-114.07 -0.0107422l-3.90039 26c-34.3496 -21.5801 -77.1699 -33 -119.59 -33c-93.71 0 -187.25 53.2803 -187.25 180.891v327.11h150.75v-316.32
c0 -51.5898 8.28027 -77.5 59.7002 -77.5c22.8096 0 44.46 3.57031 63.6104 10.0605v383.77h150.75v-501z" />
    <glyph glyph-name="udieresis" unicode="&#xfc;" 
d="M149.15 700.21c37.79 0 66.9199 -29.1299 66.9199 -69.4697c0 -38.6396 -29.1299 -69.4697 -67.7695 -69.4697c-39.4902 0 -70.3203 30.8301 -70.3203 69.4697c0 40.3398 30.8301 69.4697 71.1699 69.4697zM361.881 700.21c37.79 0 66.9199 -29.1299 66.9199 -69.4697
c0 -38.6396 -29.1299 -69.4697 -67.7695 -69.4697c-39.4902 0 -70.3203 30.8301 -70.3203 69.4697c0 40.3398 30.8301 69.4697 71.1699 69.4697zM458.011 -0l-114.068 -0.0107422l-3.90039 26c-34.3604 -21.5801 -77.1807 -33 -119.601 -33
c-93.7002 0 -187.25 53.2803 -187.25 180.891v327.11h150.76v-316.32c0 -51.5898 8.26953 -77.5 59.6992 -77.5c22.7998 0 44.4502 3.57031 63.6006 10.0605v383.77h150.76v-501z" />
    <glyph glyph-name="udieresisacute" unicode="&#x1d8;" 
d="M296.39 743.64h-98.1494l61.0498 126.33h132.72zM149.15 700.21c37.79 0 66.9199 -29.1299 66.9199 -69.4697c0 -38.6396 -29.1299 -69.4697 -67.7695 -69.4697c-39.4902 0 -70.3203 30.8301 -70.3203 69.4697c0 40.3398 30.8301 69.4697 71.1699 69.4697z
M361.881 700.21c37.79 0 66.9199 -29.1299 66.9199 -69.4697c0 -38.6396 -29.1299 -69.4697 -67.7695 -69.4697c-39.4902 0 -70.3203 30.8301 -70.3203 69.4697c0 40.3398 30.8301 69.4697 71.1699 69.4697zM458.011 -0.00976562l-114.068 -0.00976562l-3.90039 26
c-34.3604 -21.5801 -77.1807 -33 -119.601 -33c-93.7002 0 -187.25 53.29 -187.25 180.89v327.12h150.76v-316.32c0 -51.5898 8.26953 -77.5098 59.6992 -77.5098c22.7998 0 44.4502 3.58008 63.6006 10.0703v383.76h150.76v-501z" />
    <glyph glyph-name="udieresiscaron" unicode="&#x1da;" 
d="M317.19 731.49h-133.73l-116.02 146.54h113.78l69 -85.4697l68.3203 85.4697h113.85zM149.14 700.21c37.79 0 66.9199 -29.1299 66.9199 -69.4697c0 -38.6396 -29.1299 -69.4697 -67.7695 -69.4697c-39.4902 0 -70.3203 30.8301 -70.3203 69.4697
c0 40.3398 30.8301 69.4697 71.1699 69.4697zM361.87 700.21c37.79 0 66.9199 -29.1299 66.9199 -69.4697c0 -38.6396 -29.1299 -69.4697 -67.7695 -69.4697c-39.4902 0 -70.3203 30.8301 -70.3203 69.4697c0 40.3398 30.8301 69.4697 71.1699 69.4697zM458 -0
l-114.068 -0.0107422l-3.90039 26c-34.3604 -21.5801 -77.1807 -33 -119.601 -33c-93.7002 0 -187.25 53.2803 -187.25 180.891v327.11h150.76v-316.32c0 -51.5898 8.26953 -77.5 59.6992 -77.5c22.7998 0 44.4502 3.57031 63.6006 10.0605v383.77h150.76v-501z" />
    <glyph glyph-name="udieresisgrave" unicode="&#x1dc;" 
d="M321.66 744.33h-98.1504l-95.6201 126.34h132.73zM139.79 703.61c37.79 0 66.9199 -29.1299 66.9199 -69.4697c0 -38.6396 -29.1299 -69.4697 -67.7695 -69.4697c-39.4902 0 -70.3203 30.8301 -70.3203 69.4697c0 40.3398 30.8301 69.4697 71.1699 69.4697z
M352.521 703.61c37.79 0 66.9199 -29.1299 66.9199 -69.4697c0 -38.6396 -29.1299 -69.4697 -67.7695 -69.4697c-39.4902 0 -70.3203 30.8301 -70.3203 69.4697c0 40.3398 30.8301 69.4697 71.1699 69.4697zM458.011 -0.00976562l-114.07 -0.00976562l-3.90039 26
c-34.3496 -21.5801 -77.1699 -33 -119.59 -33c-93.71 0 -187.25 53.29 -187.25 180.89v327.12h150.75v-316.32c0 -51.5898 8.28027 -77.5098 59.7002 -77.5098c22.8096 0 44.46 3.58008 63.6104 10.0703v383.76h150.75v-501z" />
    <glyph glyph-name="udieresismacron" unicode="&#x1d6;" 
d="M379.83 743.87h-264.23v76.0195h264.23v-76.0195zM139.79 703.62c37.79 0 66.9199 -29.1299 66.9199 -69.4697c0 -38.6396 -29.1299 -69.4697 -67.7695 -69.4697c-39.4902 0 -70.3203 30.8301 -70.3203 69.4697c0 40.3398 30.8301 69.4697 71.1699 69.4697z
M352.51 703.62c37.79 0 66.9199 -29.1299 66.9199 -69.4697c0 -38.6396 -29.1299 -69.4697 -67.7695 -69.4697c-39.4902 0 -70.3203 30.8301 -70.3203 69.4697c0 40.3398 30.8301 69.4697 71.1699 69.4697zM458.01 0l-114.068 -0.0107422l-3.90039 26
c-34.3604 -21.5801 -77.1807 -33 -119.601 -33c-93.7002 0 -187.25 53.2803 -187.25 180.891v327.11h150.76v-316.32c0 -51.5898 8.26953 -77.5 59.6992 -77.5c22.7998 0 44.4502 3.57031 63.6006 10.0605v383.77h150.76v-501z" />
    <glyph glyph-name="ugrave" unicode="&#xf9;" 
d="M339.58 573.66h-98.1494l-95.4805 126.34h132.58zM458.011 0l-114.07 -0.0107422l-3.90039 26c-34.3496 -21.5801 -77.1699 -33 -119.59 -33c-93.71 0 -187.25 53.2803 -187.25 180.891v327.11h150.75v-316.32c0 -51.5898 8.28027 -77.5 59.7002 -77.5
c22.8096 0 44.46 3.57031 63.6104 10.0605v383.77h150.75v-501z" />
    <glyph glyph-name="uhungarumlaut" unicode="&#x171;" 
d="M192.63 571.96h-91.5791l53.3496 128.04h122.17zM366.181 571.96h-91.5791l53.3496 128.04h122.17zM458.012 -0l-114.068 -0.0107422l-3.90039 26c-34.3604 -21.5801 -77.1807 -33 -119.601 -33c-93.7002 0 -187.25 53.2803 -187.25 180.891v327.11h150.76v-316.32
c0 -51.5898 8.26953 -77.5 59.6992 -77.5c22.7998 0 44.4502 3.57031 63.6006 10.0605v383.77h150.76v-501z" />
    <glyph glyph-name="umacron" unicode="&#x16b;" 
d="M377.79 588.51h-264.24v76.0195h264.24v-76.0195zM458.01 -0l-114.068 -0.0107422l-3.90039 26c-34.3604 -21.5801 -77.1807 -33 -119.601 -33c-93.7002 0 -187.25 53.2803 -187.25 180.891v327.11h150.76v-316.32c0 -51.5898 8.26953 -77.5 59.6992 -77.5
c22.7998 0 44.4502 3.57031 63.6006 10.0605v383.77h150.76v-501z" />
    <glyph glyph-name="uogonek" unicode="&#x173;" 
d="M458.01 -1l-30.6387 -0.0205078c-43.2803 -44.8301 -53.6807 -72.5703 -53.6807 -97.6807c0 -21 12.5703 -32.3096 29.5 -32.3096c26.2197 -2 41.1602 18 60.46 44l55.7803 -22c-33.3496 -58 -78.7598 -94 -146.029 -94c-34.1504 0 -99.3701 14 -99.3701 88
c0 29 13.75 67 69.9102 115l-3.90039 26c-34.3604 -21.5801 -77.1807 -33 -119.601 -33c-93.7002 0 -187.25 53.2803 -187.25 180.891v327.11h150.76v-316.32c0 -51.5898 8.26953 -77.5 59.6992 -77.5c22.7998 0 44.4502 3.57031 63.6006 10.0605v383.77h150.76v-502z" />
    <glyph glyph-name="uring" unicode="&#x16f;" 
d="M249.05 763.82c64.9004 0 121.779 -54.8691 121.779 -121.35c0 -64.54 -55.8203 -121.36 -121.78 -121.36c-66.0195 0 -121.779 57.7695 -121.779 121.359c0 65.5303 56.8203 121.351 121.78 121.351zM249.049 694.802c-28.5195 0 -52.0596 -22.8398 -52.0596 -52.3301
c0 -28.0303 23.7598 -52.4805 52.0596 -52.4805c28.1504 0 51.9102 24.4502 51.9102 52.4805c0 29.4902 -23.54 52.3301 -51.9102 52.3301zM458.009 0.00195312l-114.068 -0.0107422l-3.90039 26c-34.3604 -21.5801 -77.1807 -33 -119.601 -33
c-93.7002 0 -187.25 53.2803 -187.25 180.891v327.11h150.76v-316.32c0 -51.5898 8.26953 -77.5 59.6992 -77.5c22.7998 0 44.4502 3.57031 63.6006 10.0605v383.77h150.76v-501z" />
    <glyph glyph-name="v" unicode="v" horiz-adv-x="506" 
d="M341.27 0.0898438h-175.439l-157.85 500.82h153.6l91.8896 -342.98l92.0498 342.98h153.17z" />
    <glyph glyph-name="w" unicode="w" horiz-adv-x="747" 
d="M587.9 0.0898438h-162.698l-51.4502 215.03l-51.29 -215.03h-162.56l-151.92 500.82h157.64l75.79 -311.68l64.3799 311.68h135.77l64.54 -311.53l75.9297 311.53h157.77z" />
    <glyph glyph-name="wacute" unicode="&#x1e83;" horiz-adv-x="747" 
d="M421.91 573.66h-98.1494l61.0498 126.34h132.72zM587.9 0.0800781h-162.698l-51.4502 215.03l-51.29 -215.03h-162.56l-151.92 500.83h157.64l75.79 -311.68l64.3799 311.68h135.77l64.54 -311.53l75.9297 311.53h157.77z" />
    <glyph glyph-name="wcircumflex" unicode="&#x175;" horiz-adv-x="747" 
d="M558.94 574.33h-113.84l-68.3203 85.4697l-69 -85.4697h-113.78l116.02 146.54h133.73zM587.9 0.0898438h-162.698l-51.4502 215.03l-51.29 -215.03h-162.56l-151.92 500.82h157.64l75.79 -311.68l64.3799 311.68h135.77l64.54 -311.53l75.9297 311.53h157.77z" />
    <glyph glyph-name="wdieresis" unicode="&#x1e85;" horiz-adv-x="747" 
d="M274.11 700.21c37.79 0 66.9199 -29.1299 66.9199 -69.4697c0 -38.6396 -29.1299 -69.4697 -67.7695 -69.4697c-39.4902 0 -70.3203 30.8301 -70.3203 69.4697c0 40.3398 30.8301 69.4697 71.1699 69.4697zM486.841 700.21c37.79 0 66.9199 -29.1299 66.9199 -69.4697
c0 -38.6396 -29.1299 -69.4697 -67.7695 -69.4697c-39.4902 0 -70.3203 30.8301 -70.3203 69.4697c0 40.3398 30.8301 69.4697 71.1699 69.4697zM587.9 0.0898438h-162.71l-51.4404 215.03l-51.2998 -215.03h-162.56l-151.92 500.82h157.65l75.7803 -311.68l64.3896 311.68
h135.77l64.5303 -311.53l75.9404 311.53h157.77z" />
    <glyph glyph-name="wgrave" unicode="&#x1e81;" horiz-adv-x="747" 
d="M438.75 573.66h-98.1494l-95.4805 126.34h132.59zM587.9 0.0800781h-162.698l-51.4502 215.03l-51.29 -215.03h-162.56l-151.92 500.83h157.64l75.79 -311.68l64.3799 311.68h135.77l64.54 -311.53l75.9297 311.53h157.77z" />
    <glyph glyph-name="x" unicode="x" horiz-adv-x="486" 
d="M341.31 249.98l137.17 -249.891h-160.18l-72.5 145.4l-75.5801 -145.4h-162.25l145.57 251.07l-138.72 249.75h162.8l70.1602 -153.2l63.8096 153.2h161.38z" />
    <glyph glyph-name="y" unicode="y" horiz-adv-x="496" 
d="M458.01 501l0.0107422 -494.998c0 -127 -82.0596 -193 -183.979 -193c-61.0596 0 -127.14 21 -185.229 60l57.4697 81c31.0703 -18.3203 63.8799 -31.0605 92.8994 -31.0605c37.5596 0 65.1191 18.71 68.0791 69.0498v27.2402
c-26.25 -12.3398 -60.6602 -19.2402 -95.1299 -19.2402c-87.46 0.849609 -178.93 47.6992 -178.93 181.039v319.96h150.75v-314.53c0 -52.9297 7.98047 -78.0996 58.9502 -78.0996c23.5498 0 46.0996 3.87012 64.3496 9.62012v383.02h150.76z" />
    <glyph glyph-name="yacute" unicode="&#xfd;" horiz-adv-x="496" 
d="M298.71 573.66h-98.1494l61.0498 126.34h132.72zM458.011 501l0.0107422 -494.998c0 -127 -82.0596 -193 -183.979 -193c-61.0596 0 -127.14 21 -185.229 60l57.4697 81c31.0703 -18.3203 63.8799 -31.0605 92.8994 -31.0605c37.5596 0 65.1191 18.71 68.0791 69.0498
v27.2402c-26.25 -12.3398 -60.6602 -19.2402 -95.1299 -19.2402c-87.46 0.849609 -178.93 47.6992 -178.93 181.039v319.96h150.75v-314.53c0 -52.9297 7.98047 -78.0996 58.9502 -78.0996c23.5498 0 46.0996 3.87012 64.3496 9.62012v383.02h150.76z" />
    <glyph glyph-name="ycircumflex" unicode="&#x177;" horiz-adv-x="496" 
d="M438.53 574.33h-113.84l-68.3203 85.4697l-69 -85.4697h-113.78l116.02 146.54h133.73zM458.011 501l0.0107422 -494.998c0 -127 -82.0596 -193 -183.97 -193c-61.0596 0 -127.149 21 -185.239 60l57.4697 81c31.0703 -18.3203 63.8906 -31.0605 92.9102 -31.0605
c37.5498 0 65.1094 18.71 68.0791 69.0498v27.2402c-26.2598 -12.3398 -60.6699 -19.2402 -95.1299 -19.2402c-87.46 0.849609 -178.94 47.6992 -178.94 181.039v319.96h150.76v-314.53c0 -52.9297 7.96973 -78.0996 58.9502 -78.0996
c23.5498 0 46.0898 3.87012 64.3496 9.62012v383.02h150.75z" />
    <glyph glyph-name="ydieresis" unicode="&#xff;" horiz-adv-x="496" 
d="M153.7 700.21c37.79 0 66.9199 -29.1299 66.9199 -69.4697c0 -38.6396 -29.1299 -69.4697 -67.7695 -69.4697c-39.4902 0 -70.3203 30.8301 -70.3203 69.4697c0 40.3398 30.8301 69.4697 71.1699 69.4697zM366.431 700.21c37.79 0 66.9199 -29.1299 66.9199 -69.4697
c0 -38.6396 -29.1299 -69.4697 -67.7695 -69.4697c-39.4902 0 -70.3203 30.8301 -70.3203 69.4697c0 40.3398 30.8301 69.4697 71.1699 69.4697zM458.011 501l0.0107422 -494.998c0 -127 -82.0596 -193 -183.979 -193c-61.0596 0 -127.14 21 -185.229 60l57.4697 81
c31.0703 -18.3203 63.8799 -31.0605 92.8994 -31.0605c37.5596 0 65.1191 18.71 68.0791 69.0498v27.2402c-26.25 -12.3398 -60.6602 -19.2402 -95.1299 -19.2402c-87.46 0.849609 -178.93 47.6992 -178.93 181.039v319.96h150.75v-314.53
c0 -52.9297 7.98047 -78.0996 58.9502 -78.0996c23.5498 0 46.0996 3.87012 64.3496 9.62012v383.02h150.76z" />
    <glyph glyph-name="ygrave" unicode="&#x1ef3;" horiz-adv-x="496" 
d="M344.13 573.66h-98.1494l-95.4805 126.34h132.58zM458.011 501l0.0107422 -494.998c0 -127 -82.0596 -193 -183.979 -193c-61.0596 0 -127.14 21 -185.229 60l57.4697 81c31.0703 -18.3203 63.8799 -31.0605 92.8994 -31.0605c37.5596 0 65.1191 18.71 68.0791 69.0498
v27.2402c-26.25 -12.3398 -60.6602 -19.2402 -95.1299 -19.2402c-87.46 0.849609 -178.93 47.6992 -178.93 181.039v319.96h150.75v-314.53c0 -52.9297 7.98047 -78.0996 58.9502 -78.0996c23.5498 0 46.0996 3.87012 64.3496 9.62012v383.02h150.76z" />
    <glyph glyph-name="z" unicode="z" horiz-adv-x="416" 
d="M389.06 415.57l-180.811 -295.07h187.36v-120.41h-375.4v85.8701l180.61 294.54h-169.1v120.41h357.34v-85.3398z" />
    <glyph glyph-name="zacute" unicode="&#x17a;" horiz-adv-x="416" 
d="M242.14 573.66h-98.1494l61.0498 126.34h132.72zM389.061 415.561l-180.811 -295.07h187.36v-120.41h-375.4v85.8701l180.61 294.55h-169.1v120.41h357.34v-85.3496z" />
    <glyph glyph-name="zcaron" unicode="&#x17e;" horiz-adv-x="416" 
d="M287.73 574.92h-133.729l-116.01 146.55h113.77l69 -85.4805l68.3203 85.4805h113.84zM389.061 415.57l-180.811 -295.07h187.36v-120.41h-375.4v85.8701l180.61 294.54h-169.1v120.41h357.34v-85.3398z" />
    <glyph glyph-name="zdotaccent" unicode="&#x17c;" horiz-adv-x="416" 
d="M206.89 705.08c37.79 0 66.9199 -29.1299 66.9199 -69.4697c0 -38.6396 -29.1299 -69.4697 -67.7695 -69.4697c-39.4902 0 -70.3203 30.8301 -70.3203 69.4697c0 40.3398 30.8301 69.4697 71.1699 69.4697zM389.06 415.57l-180.811 -295.07h187.36v-120.41h-375.4
v85.8701l180.61 294.54h-169.1v120.41h357.34v-85.3398z" />
    <glyph glyph-name="T_h" horiz-adv-x="1002" 
d="M695.2 700l-0.0107422 -211.101c26.7402 12.4199 59.7207 19.25 93.1006 19.25c86.54 0 180.97 -46.4102 180.97 -181.04v-327.11h-150.76v316.32c0 51.7402 -7.96973 77.6504 -59.25 77.6504c-22.96 0 -44.75 -3.70996 -64.0498 -10.2002v-383.77h-150.76v561.4h-204.32
v-561.4h-157.5v561.4h-162.41v138.6h674.99z" />
    <glyph glyph-name="c_h" horiz-adv-x="946" 
d="M26.7002 198.07v105.343c0 123.08 67.1299 178.95 143.22 196.82c22.8203 5.7998 46.3799 8.20996 68.9297 8.20996c11.0898 0 21.9395 -0.580078 32.3398 -1.63965c-4.7998 11.4199 -7.58008 24.2695 -7.58008 38.2998c0 32.3496 14.7598 70.9092 53.3896 112.31
c39.6396 42.4297 95.3193 64.8193 153.89 64.8193c76.4199 0 133.92 -38.6299 168.04 -81.79v-151.53c26.7305 12.4199 59.7207 19.25 93.1006 19.25c86.54 0 180.96 -46.4102 180.96 -181.04v-327.11h-150.76v316.32c0 51.7402 -7.96973 77.6504 -59.25 77.6504
c-22.9502 0 -44.75 -3.70996 -64.0498 -10.2002v-383.77h-150.76v599c-5.86035 1.08008 -11.8701 1.62012 -17.9004 1.62012c-22.2998 0 -44.8398 -7.2998 -60.5596 -20.9297c-21.8398 -17.29 -34.21 -43.4297 -34.21 -73.04c0 -44.5 33.9697 -72.0303 47.4795 -118.971
l-124.1 -42.0098c-10.6201 28.9199 -30.8604 43.5996 -58.46 43.5996c-44.2695 0 -62.96 -25.2305 -62.96 -85.8809v-105.32c0 -60.6504 18.6904 -85.8906 62.96 -85.8906c27.5996 0 47.8398 14.6699 58.46 43.5996l124.1 -42.0098
c-22.5303 -72.79 -77.6699 -121.79 -182.56 -121.79c-140.93 0 -213.72 80.4199 -213.72 206.08z" />
    <glyph glyph-name="c_t" horiz-adv-x="766" 
d="M22.4404 198.59l-0.00195312 105.173c0 116.31 57.9697 188.279 178.41 202.709c11.46 1.20996 23.4102 1.82031 35.8203 1.82031c9.7998 0 19.8896 -0.379883 30.2598 -1.12988c-4.9502 11.5801 -7.75977 24.5898 -7.75977 38.71
c0 33.2998 15.6396 72.7598 55.75 114.229c39.5303 41.0703 94.2803 62.4902 151.7 62.4902c110.37 0 150.03 -59.1104 168.03 -82.1201v-139.63h94.8203v-120.49h-94.8203v-181.14c0 -53.9404 10.6904 -89.6602 74.6406 -89.6602
c9.41992 0 20.1602 0.759766 32.4004 2.33984v-118.89c-18.3096 -2.46973 -37.9795 -4.25977 -57.9795 -4.25977c-96.5801 0 -199.811 45.1904 -199.811 182.521v428.1c-6.38965 1.2002 -12.7197 1.78027 -18.9395 1.78027c-24.6201 0 -47.3301 -9.07031 -63.9102 -24.5801
c-18.8701 -17.6201 -29.9805 -42.5498 -29.9805 -69.4502c0 -44.5 36.6699 -67.2402 47.6396 -118.9l-124.09 -42.0098c-10.6201 28.9199 -30.8604 43.5996 -58.46 43.5996c-44.2695 0 -62.96 -25.2305 -62.96 -85.8809v-105.32c0 -60.6504 18.6904 -85.8906 62.96 -85.8906
c27.5996 0 47.8398 14.6797 58.46 43.6094l124.09 -42.0195c-22.5303 -72.79 -77.6699 -121.3 -182.55 -121.3c-140.93 0 -213.72 79.9297 -213.72 205.59z" />
    <glyph glyph-name="f_b" horiz-adv-x="796" 
d="M38.9297 0l-0.00195312 536.09c0 128.72 94.5801 176.26 210.72 176.26c158.42 0 246.24 -65.21 246.24 -65.21v-157.95c26.3203 11.5498 60.0605 18.9502 93.9102 18.9502c85.9697 0 180.16 -46.1699 180.16 -181.479v-154.98c0 -128.29 -98.29 -178.68 -189.38 -178.68
c-44.0703 0 -87.1201 11.2402 -117.46 33l-3.91016 -26h-114.07v576.09c-28.3896 9.2002 -53.8193 14.6104 -85.959 14.6104c-51.2998 0 -69.21 -26.5898 -69.4795 -72.2998l-0.00976562 -17.4004h94.8096v-113.07h-94.8096v-387.93h-150.76zM619.197 170.859
l0.0117188 144.859c0 52.9404 -7.98047 78.1006 -58.9609 78.1006c-23.5498 0 -46.0996 -3.86035 -64.3594 -9.61035v-266.13c18.3496 -6.7998 38.2793 -10.0996 60.2393 -10.0996c51.5996 0 62.2197 27.6797 63.0693 62.8799z" />
    <glyph glyph-name="f_h" horiz-adv-x="803" 
d="M38.9297 0l-0.00195312 536.1c0 128.71 94.5801 176.25 210.72 176.25c158.42 0 246.24 -65.21 246.24 -65.21v-158.24c26.7402 12.4199 59.7207 19.25 93.1006 19.25c86.54 0 180.97 -46.4102 180.97 -181.04v-327.11h-150.76v316.32
c0 51.7402 -7.96973 77.6504 -59.25 77.6504c-22.96 0 -44.75 -3.70996 -64.0498 -10.2002v-383.77h-150.76v576.09c-28.3799 9.2002 -53.8096 14.6201 -85.96 14.6201c-51.0303 0 -69.1699 -26.3203 -69.4795 -71.8701l-0.00976562 -17.8398h94.8096v-113.07h-94.8096
v-387.93h-150.76z" />
    <glyph glyph-name="f_i" horiz-adv-x="534" 
d="M38.9297 0l-0.000976562 536.101c0 128.71 94.5801 176.25 210.72 176.25c77.5 0 138.5 -17.1904 175.6 -30.6006v-105.96s-55.5195 14.9199 -140.409 14.9199c-72.7197 0 -94.3193 -22.1699 -95.0791 -74.4004l-0.0703125 -15.3096h306.2v-501h-150.75v387.93h-155.45
v-387.93h-150.76z" />
    <glyph glyph-name="f_j" horiz-adv-x="534" 
d="M38.9297 0l0.00878906 536.091c0 128.72 94.5898 176.25 210.729 176.25c77.4902 0 138.5 -17.1904 175.59 -30.5908v-105.97s-55.5195 14.9199 -140.399 14.9199c-68.3896 0 -93.1299 -19.6299 -95.1699 -68.3496v-21.3604h306.21v-515
c0 -120 -87.5996 -163 -173.54 -169c-8.08984 -0.5 -16.1494 -0.75 -24.3193 -0.75s-16.46 0.25 -25 0.75v120c16.3604 -1 28.7705 1 38.9404 4c31.75 11 33.1602 39 33.1602 72.8896v374.05h-155.45v-387.93h-150.76z" />
    <glyph glyph-name="f_k" horiz-adv-x="836" 
d="M43.1904 0l-0.000976562 536.09c0 128.71 94.5801 176.25 210.72 176.25c158.42 0 246.24 -65.21 246.24 -65.21v-289.51l116 149.79h176.74l-173.63 -216.83l209.68 -290.58h-167.19l-127.39 187.65l-34.21 -37v-150.65h-150.76v576.09
c-28.3799 9.2002 -53.8096 14.6201 -85.9492 14.6201c-50.1104 0 -68.9902 -25.3496 -69.46 -70.3398l-0.0302734 -19.3701h94.8096v-113.07h-94.8096v-387.93h-150.76z" />
    <glyph glyph-name="f_l" horiz-adv-x="533" 
d="M38.9297 0l0.00878906 536.09c0 128.71 94.5801 176.25 210.72 176.25c158.42 0 246.24 -65.21 246.24 -65.21v-647.14h-150.76v576.09c-28.3799 9.20996 -53.8096 14.6201 -85.96 14.6201c-50.9297 0 -69.1494 -26.21 -69.4697 -71.6904l-0.0195312 -18.0098h94.8096
v-113.07h-94.8096v-387.93h-150.76z" />
    <glyph glyph-name="s_p" horiz-adv-x="933" 
d="M16.7998 149.92l146.6 0.00195312c3.48047 -22.8203 16.5703 -39.25 49.6504 -39.25c31.0303 0 48.79 16.3096 48.79 39.8291c0 32.8701 -27.9502 38.0098 -75.8701 47.79c-87.1396 16.5098 -161.899 43.8594 -161.899 155.18c0 82.4102 45.0596 142.23 148.89 154.011
c10.6797 1.09961 21.5098 1.63965 33.7402 1.63965c7.84961 0 16.2695 -0.219727 25.5996 -0.660156c-3.44043 11.8799 -5.14062 24.2598 -5.14062 36.8193c0 88.3896 79.4102 162.319 179.62 162.319c107.37 0 194.22 -87.6699 194.319 -194.12v-37.1904
c30.3604 21.7598 72.1406 31.8496 116.211 31.8496c91.6699 0 189.38 -50.9902 189.38 -178.98v-154.98c0 -134.3 -92.7998 -181.18 -179.229 -181.18c-34.1699 0 -68.2803 7 -94.8398 18.6504v-211.65h-150.78v713.48c-0.120117 40.9004 -35.0303 73.6201 -75.0703 73.6201
c-40.7197 0 -73.8398 -33.1201 -73.8398 -73.8301c0 -13.1396 3.61035 -24.3398 9.43066 -33.0898c42.9004 -27.0303 63.3604 -71.1406 63.3604 -127.311h-144.44c0.120117 16.9004 -11.8799 36.7705 -44.8496 36.7705c-32.7305 0 -44.8506 -19.5898 -44.8506 -36.3994
c0 -22.0703 13.4004 -35.4707 71.8203 -46.4707c109.13 -19.3398 170.59 -59.9795 170.59 -156.989c0 -77.5996 -46.5898 -158.779 -188.99 -158.779c-132.94 0 -207.45 58.1201 -208.2 158.92zM755.949 185.122l0.00976562 144.87
c-0.849609 35.1904 -11.4795 62.8701 -63.0791 62.8701c-21.9502 0 -41.8906 -3.29004 -60.2305 -10.0996v-266.13c18.2598 -5.74023 40.7998 -9.61035 64.3496 -9.61035c50.9805 0 58.9502 25.1699 58.9502 78.0996z" />
    <glyph glyph-name="s_t" horiz-adv-x="752" 
d="M25.2695 150l146.551 -0.00976562c3.48047 -22.8203 16.5703 -39.2402 49.6406 -39.2402c31.04 0 48.7998 16.3096 48.7998 39.8193c0 32.9297 -28.0498 38.0498 -76.0303 47.8398c-87.0801 16.5 -161.74 43.8701 -161.74 155.14c0 77.3398 39.9199 135.3 131.79 151.03
c17.4502 3.00977 33.2002 4.31934 57.8604 4.31934c8.82031 0 18.7705 -0.169922 30.3506 -0.490234c-4.16992 10.8203 -6.57031 23.0508 -6.57031 36.3604c0 33.29 14.9805 73.3301 54.6104 114.98c39.6201 41.6504 94.79 63.46 152.7 63.46
c108.68 0 164.34 -79.3203 167.85 -82.1299v-139.6h94.8096v-120.5h-94.8096v-181.14c0 -54.0996 11.2197 -89.71 74.5195 -89.71c9.41016 0 20.1699 0.769531 32.5 2.39941v-119.53c-17.9297 -2.46973 -37.25 -4.25977 -56.96 -4.25977
c-97.0498 0 -200.819 45.2998 -200.819 183.16v428.1c-6.7998 1.54004 -13.6602 2.30957 -20.4404 2.30957c-17.5303 0 -34.46 -5.12012 -48.3203 -15.1299c-27.2695 -16.8398 -43.8799 -46.71 -43.8799 -79.4404c0 -17.9502 3.41992 -32.0801 14.8096 -44.4297
c26.6602 -28.6797 41.6904 -65.1602 41.6904 -110.37h-144.44c0.120117 16.9004 -11.8799 36.7607 -44.8496 36.7607c-32.7305 0 -44.8408 -19.5801 -44.8408 -36.3896c0 -22.0703 13.4004 -35.4707 71.8105 -46.4707c109.14 -19.3398 170.6 -59.9795 170.6 -156.989
c0 -77.5996 -46.5898 -158.85 -188.99 -158.85c-132.95 0 -207.46 58.2002 -208.2 159z" />
    <glyph glyph-name="ordfeminine" unicode="&#xaa;" horiz-adv-x="337" 
d="M99.9902 555.34l-53.248 53.2598c24.3799 31.71 68.6602 51.46 117.61 51.46c100.09 0 139.5 -60.8203 139.5 -143.16v-167.95h-76.5195l-2.23047 15.3604c-19.4902 -11.9199 -46.6699 -20.29 -74.6104 -20.29c-59.5703 0.290039 -117.511 28.2598 -117.511 98.6797
c0 73.6602 67.0195 91.3701 123.52 91.3701c15.0996 0 39.3301 -3.2002 53.7803 -5.54004c-3.15039 37.0898 -16.9004 49.3301 -48.9707 49.3301c-16.4902 0 -40.9004 -3.51953 -61.3203 -22.5195zM212.242 432.069v35.0488
c-4.01953 0.44043 -25.4893 7.68066 -39.9092 7.68066c-20.5303 0 -47.5801 -3.91992 -47.5801 -26.5195c0 -22.1602 20.4697 -26.6699 43.9395 -26.6699c18.8496 0 39.6797 8.53027 43.5498 10.46z" />
    <glyph glyph-name="ordmasculine" unicode="&#xba;" horiz-adv-x="330" 
d="M32.9805 472.41l-0.000976562 59.3203c0 63.9297 38.0498 128.279 132.71 128.279c94.4502 0 131.311 -65.5 131.311 -128.6v-59.3096c0 -61.4902 -36.7695 -128.13 -132.569 -128.13c-95.4902 0 -131.45 67.1299 -131.45 128.439zM198.159 467.511l-0.00878906 68.5205
c0 18.3301 -7.87012 37.9102 -32.5303 37.9102c-24.96 0 -33.6602 -18.6299 -33.6602 -37.6201v-68.5303c0 -16.9902 6.83984 -37.75 32.54 -37.75c25.8496 0 33.6592 20.2598 33.6592 37.4697z" />
    <glyph glyph-name="uni0419" unicode="&#x419;" horiz-adv-x="646" 
d="M422.75 925.1h63.5605c0 -88.9697 -69.8799 -148.64 -164.92 -148.64c-95.0303 0 -164.92 59.6699 -164.92 148.64h63.5596c5.95996 -54.9004 56.6904 -72.46 101.36 -72.46c44.5195 0 95.4092 17.5596 101.359 72.46zM593.301 -0h-157.48v384.94l-217.49 -384.94
h-165.14v700h157.51v-400.51l225.91 400.51h156.69v-700z" />
    <glyph glyph-name="uni0410" unicode="&#x410;" horiz-adv-x="641" 
d="M627.02 0h-163.831l-44.9297 159.7h-195.06l-45.0801 -159.7h-163.66l227.98 700h156.59zM259.188 298.3h123.08l-61.54 219.2z" />
    <glyph glyph-name="uni0411" unicode="&#x411;" horiz-adv-x="593" 
d="M514.57 561.17h-298.73v-138.38h156.68c118.79 0 188.99 -67.8701 188.99 -211.4c0 -143.52 -70.2002 -211.39 -188.99 -211.39h-314.31v700.07h456.36v-138.9zM215.729 284.67v-146.551h118.39c45.4697 0 70.1895 25.1602 70.1895 73.2705
c0 48.1201 -24.7197 73.2803 -70.1895 73.2803h-118.39z" />
    <glyph glyph-name="uni0412" unicode="&#x412;" horiz-adv-x="594" 
d="M58.1904 700.07l299.32 -0.000976562c119.72 0 188.77 -87.8896 188.77 -186.62c0 -73.0498 -24.1104 -127.609 -68.1807 -160.199c54.4004 -32.4502 83.9805 -91.9307 83.9805 -156.271c0 -125.01 -70.79 -196.979 -189.58 -196.979h-314.31v700.07zM215.871 561.319
l0.000976562 -141.7h102.69c45.4697 0 70.1895 25.1602 70.1895 73.2803c0 37.5195 -24.2803 68.4199 -69.3105 68.4199h-103.57zM215.712 279.81l0.000976562 -141.69h118.4c45.4697 0 70.1895 25.1602 70.1895 73.2705c0 37.5195 -24.2803 68.4199 -69.3105 68.4199
h-119.28z" />
    <glyph glyph-name="uni0413" unicode="&#x413;" horiz-adv-x="537" 
d="M514.55 561.17h-298.73v-561.17h-157.63v700.07h456.36v-138.9z" />
    <glyph glyph-name="uni0414" unicode="&#x414;" horiz-adv-x="727" 
d="M621.22 135.72l78.5107 0.00878906v-281.73h-145.81v146.11h-379.98v-146.11h-145.82v281.73h79.4004c22.8096 22.5703 36.8193 54.6602 36.8193 93.3906v470.99h476.88v-564.39zM301.851 561.429v-329.811c0 -36.3203 -6.34961 -68.3398 -18.0195 -95.8896h179.71v425.7
h-161.69z" />
    <glyph glyph-name="uni0415" unicode="&#x415;" horiz-adv-x="554" 
d="M519.2 561.4l-303.5 -0.000976562v-142.51h279.6v-138.6h-279.6v-141.69h308.45v-138.6h-465.96v700h461.01v-138.6z" />
    <glyph glyph-name="uni0416" unicode="&#x416;" horiz-adv-x="1011" 
d="M745.46 373.42l252.05 -373.42h-180.35l-232.36 366.26v-366.26h-157.64v366.26l-232.36 -366.26h-180.34l252.05 373.42l-222.92 326.59h175.79l207.79 -331.54v331.54h157.63v-331.54l207.79 331.54h175.79z" />
    <glyph glyph-name="uni0417" unicode="&#x417;" horiz-adv-x="522" 
d="M176.29 523.86l-132.429 54.0498c18.0801 44.3398 85.1504 134.49 202.87 134.49c118.27 0 222.319 -75.5596 222.319 -205.199c0 -76.5498 -47.8496 -121.49 -78.0596 -142.79c35.04 -22.4404 89.6797 -69.3604 89.6797 -158.801
c0 -143.53 -104.88 -216.62 -234.09 -216.62c-124.11 0 -192.53 74.4697 -217.86 113.68l116.29 75.3496c18.3398 -28.3496 57.8799 -50.4492 101.57 -50.4492c45.5498 0 81.75 36.0498 81.75 81.4502c0 44.9502 -41.3604 87.4805 -97.5107 87.4805h-41v125.09h41
c52.5996 0 89.21 37.3496 89.21 78.8096c0 41.75 -31.8496 74.0498 -73.2998 74.0498c-49.0498 0 -67.1602 -42.5498 -70.4404 -50.5898z" />
    <glyph glyph-name="uni0418" unicode="&#x418;" horiz-adv-x="646" 
d="M593.29 0h-157.48v384.94l-217.48 -384.94h-165.14v700h157.51v-400.51l225.9 400.51h156.69v-700z" />
    <glyph glyph-name="uni041A" unicode="&#x41a;" horiz-adv-x="645" 
d="M376.47 373.42l252.05 -373.42h-180.34l-232.36 366.27v-366.27h-157.64v700.01h157.64v-331.54l207.78 331.54h175.79z" />
    <glyph glyph-name="uni041B" unicode="&#x41b;" horiz-adv-x="653" 
d="M612.71 0h-157.679v561.32h-161.69v-333.98c0 -160.14 -106.4 -236.34 -273.73 -236.34v136.2c60.8096 0 116.22 23.0996 116.22 97.6396v475.16h476.88v-700z" />
    <glyph glyph-name="uni041C" unicode="&#x41c;" horiz-adv-x="755" 
d="M697.46 0h-156.689v344.6l-108.98 -265.42h-112.48l-108.69 265.42v-344.6h-156.68v700h160.27l161.49 -389.93l161.48 389.93h160.28v-700z" />
    <glyph glyph-name="uni041D" unicode="&#x41d;" horiz-adv-x="636" 
d="M577.6 0h-157.51v280.29h-204.39v-280.29h-157.51v700h157.51v-281.12h204.39v281.12h157.51v-700z" />
    <glyph glyph-name="uni041E" unicode="&#x41e;" horiz-adv-x="613" 
d="M46.7002 228.45v235.771c0 163.31 109.41 249.43 261.36 249.43c165.12 0 258.05 -103.16 258.05 -250.25v-234.95c0 -178.04 -143.35 -238.45 -258.88 -238.45c-114.34 0 -260.53 59.9805 -260.53 238.45zM408.601 228.451l0.000976562 234.948
c0 76.5098 -32.46 111.649 -100.54 111.649c-68.96 0 -103.85 -30.0195 -103.85 -110.829v-235.77c0 -75.7598 45.6699 -100.109 103.02 -100.109c57.7695 0 101.369 23.8799 101.369 100.11z" />
    <glyph glyph-name="uni041F" unicode="&#x41f;" horiz-adv-x="636" 
d="M577.6 0h-157.67v561.32h-204.11v-561.32h-157.63v700h519.41v-700z" />
    <glyph glyph-name="uni0420" unicode="&#x420;" horiz-adv-x="591" 
d="M58.1904 700l261.511 -0.0107422c154.89 0 239.569 -110.36 239.569 -227.12c0 -146.14 -89.4004 -237.109 -241.221 -236.999h-102.35v-235.87h-157.51v700zM215.701 561.409v-186.529h100.42c59.8496 0 92.3896 33.1201 92.3896 96.46
c0 49.3896 -31.96 90.0693 -91.2295 90.0693h-101.58z" />
    <glyph glyph-name="uni0421" unicode="&#x421;" horiz-adv-x="565" 
d="M46.7002 239.27v225.229c0 163.32 112.21 249.431 257.91 249.431c120.6 0 200.83 -60.6904 231.49 -154.29l-114.14 -51.1201c-16.9102 44.3398 -59.5801 66.8398 -104.86 66.8398c-59.9502 0 -112.891 -36.8096 -112.891 -110.859v-225.22
c0 -74.0498 52.9404 -110.859 112.891 -110.859c45.2803 0 87.9502 22.5 104.86 66.8398l114.14 -51.1201c-30.6602 -93.5996 -110.891 -154.14 -231.49 -154.14c-145.7 0 -257.91 85.96 -257.91 249.27z" />
    <glyph glyph-name="uni0422" unicode="&#x422;" horiz-adv-x="530" 
d="M508.3 561.4h-168.18v-561.4h-157.51v561.4h-162.4v138.6h488.09v-138.6z" />
    <glyph glyph-name="uni0423" unicode="&#x423;" horiz-adv-x="630" 
d="M606.42 700l-251.15 -589.06c-27.3496 -63.9404 -77.8096 -122.94 -165.93 -122.94h-90.5996v137.76h60.8096c48.7803 0 71.2705 31.5898 83.251 64.7998l8.09961 21.2305l-225.48 488.21h163.12l134.71 -314.1l122.64 314.1h160.53z" />
    <glyph glyph-name="uni0424" unicode="&#x424;" horiz-adv-x="785" 
d="M471.52 635.9l17.3613 -0.231445c144.93 0 254.21 -79.0596 254.21 -285.68c0 -207.35 -109.37 -285.77 -255.75 -285.77l-15.8203 -0.129883v-64.0996h-157.62v64.0996l-15.7803 0.129883c-146.89 0 -255.67 78.7002 -255.67 285.771
c0 207.53 110.27 285.75 256.18 285.75l15.3799 0.160156v64.0996h157.51v-64.0996zM313.9 497.299l-14.9307 -0.219727c-71.5 -2.53027 -99.0195 -36.1904 -99.0195 -147.091c0 -110.88 28.3203 -144.399 99.1006 -146.93l14.8496 -0.219727v294.46zM471.62 202.839
l15.7988 0.269531c70.0303 2.7998 98.1504 36.5098 98.1504 146.88c0 110.44 -27.3496 144.271 -98.1494 147.051l-15.7998 0.259766v-294.46z" />
    <glyph glyph-name="uni0425" unicode="&#x425;" horiz-adv-x="666" 
d="M442.5 361.5l209.69 -361.5h-183.07l-135.81 240.46l-134.52 -240.46h-184.33l210.73 361.56l-194.98 338.44h181.52l121.31 -240.55l121.31 240.55h183.17z" />
    <glyph glyph-name="uni0427" unicode="&#x427;" horiz-adv-x="608" 
d="M192.51 700.85v-256.68c0 -45.4102 26.4297 -69.3506 71.5498 -69.3506c40.4902 0 107.811 9.19043 128.091 12.9404v312.24h157.5v-700h-157.5v249.63c-60.2803 -7.80957 -116.471 -18.0693 -180.011 -18.0693c-98.96 0 -178.21 71.0996 -178.21 170.909v298.38h158.58z
" />
    <glyph glyph-name="uni0426" unicode="&#x426;" horiz-adv-x="686" 
d="M576.88 135.53h82.1201v-281.53h-145.81v146h-455.73v699.91h157.68v-561.32h204.11v561.32h157.63v-564.38z" />
    <glyph glyph-name="uni0428" unicode="&#x428;" horiz-adv-x="941" 
d="M882.89 0h-824.659v699.94h157.68v-561.32h175.83v561.32h157.68v-561.32h175.83v561.32h157.64v-699.94z" />
    <glyph glyph-name="uni0429" unicode="&#x429;" horiz-adv-x="993" 
d="M882.89 135.56l82.1309 -0.000976562v-281.56h-145.81v146h-760.98v699.94h157.68v-561.32h175.83v561.32h157.68v-561.32h175.83v561.32h157.64v-564.38z" />
    <glyph glyph-name="uni042F" unicode="&#x42f;" horiz-adv-x="605" 
d="M547.68 0l-157.52 -0.000976562v246.45h-52.2998l-137.82 -246.45h-182.15l163.12 270.4l-13.3799 3.57031c-77.8203 33.29 -121.04 104.66 -121.04 203.92c0 114.21 84.6797 222.11 239.58 222.11h261.51v-700zM390.16 561.409l-101.58 0.00976562
c-59.2695 0.0996094 -91.2295 -38.21 -91.2295 -84.7197c0 -59.6602 32.54 -91.2305 92.3896 -91.2305h100.42v175.94z" />
    <glyph glyph-name="uni042C" unicode="&#x42c;" horiz-adv-x="591" 
d="M215.88 422.78h156.64c118.79 0 189 -67.8701 189 -211.39c0 -143.53 -70.21 -211.391 -189 -211.391h-314.31v700.03h157.67v-277.25zM215.72 284.66v-146.551h118.4c45.46 0 70.1797 25.1602 70.1797 73.2803c0 48.1104 -24.7197 73.2705 -70.1797 73.2705h-118.4z" />
    <glyph glyph-name="uni042A" unicode="&#x42a;" horiz-adv-x="678" 
d="M303.62 422.78l156.64 0.000976562c118.78 0 188.99 -67.8701 188.99 -211.39c0 -143.53 -70.21 -211.391 -188.99 -211.391h-314.31v564.43h-137.44v135.6h295.11v-277.25zM303.46 284.661v-146.551h118.4c45.46 0 70.1797 25.1602 70.1797 73.2803
c0 48.1104 -24.7197 73.2705 -70.1797 73.2705h-118.4z" />
    <glyph glyph-name="uni042B" unicode="&#x42b;" horiz-adv-x="872" 
d="M215.86 422.78l156.64 0.0107422c118.79 0 189 -67.8799 189 -211.399c0 -143.53 -70.21 -211.391 -189 -211.391h-314.31v700.02h157.67v-277.24zM813.46 0.000976562h-157.55v700.03h157.55v-700.03zM215.7 284.671v-146.551h118.39
c45.4697 0 70.1895 25.1602 70.1895 73.2705c0 48.1201 -24.7197 73.2803 -70.1895 73.2803h-118.39z" />
    <glyph glyph-name="uni042D" unicode="&#x42d;" horiz-adv-x="565" 
d="M143.6 507.1l-114.13 51.1299c30.6504 93.5996 110.891 154.279 231.49 154.279c145.7 0 257.91 -86.1104 257.91 -249.42v-225.22c0 -163.31 -112.21 -249.869 -257.91 -249.869c-120.6 0 -200.84 61.1396 -231.49 154.739l114.13 51.1201
c16.9004 -44.3398 59.5801 -66.8496 104.85 -66.8496c59.9502 0 112.9 36.8096 112.9 110.859v51.2305h-186.63v122.75h186.63v51.2402c0 74.0498 -52.9502 110.85 -112.91 110.85c-45.2695 0 -87.9395 -22.5098 -104.84 -66.8398z" />
    <glyph glyph-name="uni042E" unicode="&#x42e;" horiz-adv-x="881" 
d="M314.66 418.96l-0.0107422 43.6709c0 163.31 109.42 249.42 261.36 249.42c165.12 0 258.061 -103.16 258.061 -250.26v-234.95c0 -178.04 -143.35 -238.85 -258.89 -238.85c-114.33 0 -260.521 60.3896 -260.521 238.85v53.5195h-99.0898v-280.36h-157.38v700h157.38
v-281.04h99.0898zM676.55 226.851l0.000976562 234.951c0 76.5098 -32.46 111.649 -100.54 111.649c-68.96 0 -103.84 -30.0098 -103.84 -110.819v-235.78c0 -75.75 45.6602 -100.11 103.01 -100.11c57.7695 0 101.369 23.8896 101.369 100.109z" />
    <glyph glyph-name="uni0430" unicode="&#x430;" horiz-adv-x="475" 
d="M120.87 357.52l-74.6211 69.291c36.1104 42.9805 92.3008 82.8008 180.891 82.8008c154.69 0 214.66 -88.9102 214.66 -207.72v-301.9h-114.08l-3.90039 25.5498c-30.3496 -21.7598 -73.3896 -33.5498 -117.47 -33.5498c-91.8896 1 -181.14 49.7695 -181.14 172.52
c0 128.83 103.11 159.58 190.4 159.58c26.3799 0 52.9795 -2.9502 75.4297 -6.90039c-0.30957 44.2197 -21.4395 72.25 -76.0293 72.25c-30.2002 0 -63.4902 -11.4404 -94.1406 -31.9209zM291.039 121.131l0.000976562 96.291
c-16.9004 2.20996 -34.5508 4.0498 -51.0908 4.0498c-41.5303 0 -76.4502 -11.4004 -76.4502 -56.9707c0 -43.3701 31.6104 -56.9697 70.5703 -56.9697c20.21 0 41.1602 5.13965 56.9697 13.5996z" />
    <glyph glyph-name="uni0431" unicode="&#x431;" horiz-adv-x="493" 
d="M406.66 699.99l0.00976562 -122.981c-52.9199 -2.0498 -125.8 -3.16016 -176.569 -24.5498c-44.96 -17.7002 -79.21 -44.6299 -84.8203 -104.67c28.0303 30.7305 66.9805 48.8809 120.971 48.8809c120.92 0 186.01 -89.0596 186.01 -205.479v-98.9697
c0 -95 -51.2002 -204.22 -211.54 -204.22c-159.63 0 -214.02 107.25 -214 204.22v103.69c0.349609 196.38 7.17969 285.96 105.199 352.17c65.4404 45.6299 207.66 49.2295 274.74 51.9092zM301.51 192.209l0.000976562 98.9697c0 55.0498 -18.8096 84.9902 -60.79 84.9902
c-46.8203 0 -63.2607 -25.8203 -63.2607 -84.9902v-98.9697c0 -46.1299 16.04 -83.3398 63.2598 -83.3398c46.1504 0 60.79 36.7803 60.79 83.3398z" />
    <glyph glyph-name="uni0432" unicode="&#x432;" horiz-adv-x="479" 
d="M38.9297 500.67l234.501 0.0107422c97.9199 0 164.68 -56.4902 164.68 -133.55c0 -86.4199 -63.2803 -113.15 -63.2803 -113.15s75.2803 -27.7402 75.2803 -112.82c0 -93.4102 -65.4902 -141.16 -155.03 -141.16h-256.15v500.67zM189.36 299.421l60.0898 0.000976562
c27.9004 0 44.3301 15.1104 44.3301 44.5303c0 25.3096 -16.2598 42.6191 -44 42.6191h-60.4199v-87.1504zM189.36 114.932h69.8701c22.8496 0 45.3301 12.0996 45.3301 46.1699c0 29.8701 -22.3398 44.4199 -45 44.4199h-70.2002v-90.5898z" />
    <glyph glyph-name="uni0433" unicode="&#x433;" horiz-adv-x="400" 
d="M380.51 385.65h-190.83v-385.65h-150.75v500.83h341.58v-115.18z" />
    <glyph glyph-name="uni0434" unicode="&#x434;" horiz-adv-x="627" 
d="M528.82 115.35h76.8896v-226.35h-137.16v111.11h-309.15v-111.11h-137.17v228.22c31.4902 0 54.8506 3.01953 72.3701 14.6895c16.2002 10.7002 25.2803 27.9004 25.2803 53.9404v315.19h408.94v-385.69zM270.63 385.859v-191.979
c0 -31.9102 -5.86035 -57.46 -14.9199 -78.5303h122.35v270.51h-107.43z" />
    <glyph glyph-name="uni0435" unicode="&#x435;" horiz-adv-x="461" 
d="M26.7002 188.32l-0.00976562 119.68c0 122.55 72.6699 201.76 215.14 201.76c139.79 0 198.28 -83.0996 198.28 -201.319v-114.22h-267.2v-23.0801c0 -47.3203 34.5898 -67.6699 75.4199 -67.6699c31 0 65.1904 12.1797 87.71 32.4795l83.6504 -63.0098
c-33.8701 -46.9805 -91.2598 -80.9502 -182.99 -81.9502c-154.27 0 -210 100.36 -210 197.33zM299.561 287.27l-0.000976562 25.5801c0 56.0898 -22.3799 80.6699 -59.5996 80.6699c-42.1797 0 -62.5098 -22.2598 -62.5098 -81.1201v-25.1299h122.11z" />
    <glyph glyph-name="uni0436" unicode="&#x436;" horiz-adv-x="845" 
d="M494.37 264.75l156.721 236.08h163.11l-171.22 -233.07l181.76 -267.6h-166.82l-163.55 262.06v-262.12h-143.26v262.12l-163.55 -262.06h-166.82l181.77 267.6l-171.22 233.07h163.1l156.72 -236.08v236.41h143.26v-236.41z" />
    <glyph glyph-name="uni0437" unicode="&#x437;" horiz-adv-x="473" 
d="M154.88 346.17l-124.11 41.9297c22.5303 72.7998 76.6104 122.09 199.971 122.09c122.9 0 207.801 -45.0303 207.801 -136.46c0 -53.75 -37.3203 -91.2197 -69.6602 -109.66c37.4502 -17.6396 78.3301 -55.5498 78.3301 -116.28
c0 -97.3896 -93.9004 -155.79 -219.12 -155.79c-120.37 0 -185.13 41.4297 -206.39 119.59l123.65 42.1699c10.0303 -27.29 46.5205 -41.3701 73.6807 -41.3799c33.3203 0 77.4199 8.13965 77.4199 47.5996c0 35.1602 -28.6904 48.1299 -63.4209 48.1299h-43.2305v94.2197
h40.2402c33.1797 0 57.7393 15.6602 57.7393 45.3506s-24.1602 42.0908 -67.2705 42.0908c-32.1602 0 -55.0098 -14.6797 -65.6299 -43.5996z" />
    <glyph glyph-name="uni0438" unicode="&#x438;" horiz-adv-x="500" 
d="M461.6 0h-142.13v231.7l-129.14 -231.7h-151.4v500.83h142.13v-229.38l129.79 229.38h150.75v-500.83z" />
    <glyph glyph-name="uni0439" unicode="&#x439;" horiz-adv-x="500" 
d="M353.4 708.7h63.5605c0 -88.9697 -69.8799 -148.64 -164.92 -148.64c-95.0303 0 -164.92 59.6699 -164.92 148.64h63.5596c5.9502 -54.9004 56.6904 -72.4707 101.36 -72.4707c44.5195 0 95.3994 17.5703 101.359 72.4707zM461.601 0h-142.13v231.7l-129.13 -231.7
h-151.4v500.83h142.13v-229.38l129.79 229.38h150.74v-500.83z" />
    <glyph glyph-name="uni043A" unicode="&#x43a;" horiz-adv-x="533" 
d="M182.19 264.65l156.72 236.07h163.11l-171.22 -233.06l181.76 -267.6h-166.82l-163.55 262.06v-262.12h-143.26v501.05h143.26v-236.4z" />
    <glyph glyph-name="uni043B" unicode="&#x43b;" horiz-adv-x="566" 
d="M528.27 -0.00976562l-150.75 -0.0107422v385.65h-107.43v-193.68c0 -83.1299 -32.3799 -135.11 -81.25 -165.95c-44.25 -28 -102.86 -39 -163.63 -39v128.3c26.0996 0 49.5293 3.12012 66.5098 13.3701c17.6396 10.5596 27.6094 28.0498 27.6094 55.2598v316.9h408.94
v-500.84z" />
    <glyph glyph-name="uni043C" unicode="&#x43c;" horiz-adv-x="661" 
d="M622.89 0h-142.13v229.63l-91.0703 -229.63h-117.57l-91.0703 229.63v-229.63h-142.13v501.27h150.86l141.13 -355.28l141.12 355.28h150.86v-501.27z" />
    <glyph glyph-name="uni043D" unicode="&#x43d;" horiz-adv-x="500" 
d="M461.6 0h-150.76v193.04h-121.15v-193.04h-150.75v501.27h150.75v-193.04h121.15v193.04h150.76v-501.27z" />
    <glyph glyph-name="uni043E" unicode="&#x43e;" horiz-adv-x="478" 
d="M26.7002 195.76v108.81c0 124.95 71.46 205.49 215.7 205.49c140.64 0 209.859 -84.8799 209.859 -205.479v-108.82c0 -95.0098 -51.1904 -203.77 -211.54 -203.77c-159.63 0 -214.02 106.81 -214.02 203.77zM301.51 195.749l-0.00976562 108.821
c0 55.0596 -18.7998 84.9893 -60.79 84.9893c-46.7998 0 -63.2598 -25.8301 -63.2598 -84.9902v-108.82c0 -46.1299 16.0498 -83.3398 63.2695 -83.3398c46.1396 0 60.79 36.79 60.79 83.3398z" />
    <glyph glyph-name="uni043F" unicode="&#x43f;" horiz-adv-x="500" 
d="M461.6 0h-150.76v385.64h-121.15v-385.64h-150.76v500.83h422.67v-500.83z" />
    <glyph glyph-name="uni0440" unicode="&#x440;" horiz-adv-x="494" 
d="M157.26 500.85l3.90039 -25.999c30.3496 21.7598 73.3994 33.2998 117.47 33.2998c91.6699 0 189.38 -51 189.38 -178.99v-154.98c0 -134.3 -92.7998 -181.18 -179.24 -181.18c-34.1602 0 -68.2803 7 -94.8301 18.6504v-211.65h-150.75v700.85h114.07zM317.25 185.131
l-0.000976562 144.86c-0.849609 35.2002 -11.4697 62.8701 -63.0693 62.8701c-21.96 0 -41.8896 -3.29004 -60.2393 -10.0898v-266.13c18.2598 -5.74023 40.8096 -9.61035 64.3594 -9.61035c50.9697 0 58.9502 25.1699 58.9502 78.0996z" />
    <glyph glyph-name="uni0441" unicode="&#x441;" horiz-adv-x="444" 
d="M26.7002 198.07v105.322c0 125.66 72.7803 206.38 213.721 206.38c104.89 0 160.029 -49.29 182.56 -122.08l-124.11 -42.0098c-10.6104 28.9199 -30.8408 43.5898 -58.4512 43.5898c-44.2695 0 -62.96 -25.2305 -62.96 -85.8809v-105.32
c0 -60.6504 18.6904 -85.8809 62.96 -85.8809c27.6104 0 47.8408 14.6699 58.4512 43.5898l124.11 -42.0098c-22.5303 -72.79 -77.6699 -121.78 -182.56 -121.78c-140.94 0 -213.721 80.4199 -213.721 206.08z" />
    <glyph glyph-name="uni0442" unicode="&#x442;" horiz-adv-x="479" 
d="M446.74 385.53h-131.88v-385.53h-150.76v385.53h-131.87v115.3h414.51v-115.3z" />
    <glyph glyph-name="uni0443" unicode="&#x443;" horiz-adv-x="496" 
d="M458.01 501l0.00976562 -495.009c0 -127 -81.7598 -193 -183.66 -193c-61.6602 0 -127.22 21 -185.55 60l57.3203 82c33.75 -20 68.1699 -33 96.3096 -32c37.0801 0 62.0303 21 64.8203 71v25.2402c-26.25 -12.3398 -60.6602 -19.2402 -95.1299 -19.2402
c-87.46 0.849609 -178.93 47.6992 -178.93 181.039v319.96h150.75v-314.53c0 -52.9297 7.98047 -78.0996 58.9502 -78.0996c23.5498 0 46.0996 3.87012 64.3496 9.62012v383.02h150.76z" />
    <glyph glyph-name="uni0444" unicode="&#x444;" horiz-adv-x="688" 
d="M419.41 502.18l11.75 -0.0722656c167.1 -0.0498047 230.21 -76.8994 230.21 -253.329c0 -175.02 -45.9502 -255.779 -227.54 -255.779h-14.4199v-193h-150.75v193h-14.6201c-183.34 0 -227.34 83.29 -227.34 255.771c0 176.03 62.4697 253.32 228.6 253.32
l13.3604 0.0996094v198.12h150.75v-198.13zM268.66 381.657l-11.8984 -0.0898438c-54.1904 -0.990234 -79.3008 -17.7207 -79.3008 -132.801c0 -112.75 18.2695 -134.77 79.1797 -134.77l12.0195 -0.0898438v267.75zM419.422 113.907l10.499 0.0595703
c60.6699 0.910156 80.7002 19.3604 80.7002 134.771c0 115.17 -25.4297 131.82 -79.6396 132.83l-11.5596 0.0898438v-267.75z" />
    <glyph glyph-name="uni0445" unicode="&#x445;" horiz-adv-x="486" 
d="M341.31 249.98l137.17 -249.891h-160.18l-72.5 145.4l-75.5801 -145.4h-162.25l145.57 251.07l-138.72 249.75h162.8l70.1602 -153.2l63.8096 153.2h161.38z" />
    <glyph glyph-name="uni0447" unicode="&#x447;" horiz-adv-x="510" 
d="M181.71 501.27v-162.519c0 -34.6699 19.5596 -52.9102 54.2793 -52.9102c27.0703 0 68.9307 6.41992 85.3506 9.08984v206.34h150.76v-501.28h-150.76v165.35c-20.0898 -3.57031 -80.0303 -13.2305 -140.67 -13.2305c-75.0996 0 -149.71 50.9102 -149.71 144.94v204.22
h150.75z" />
    <glyph glyph-name="uni0446" unicode="&#x446;" horiz-adv-x="560" 
d="M461.64 115.43h76.8906v-226.43h-137.16v111.19h-362.44v500.68h150.8v-385.5h121.15v385.5h150.76v-385.44z" />
    <glyph glyph-name="uni0448" unicode="&#x448;" horiz-adv-x="755" 
d="M716.45 0h-677.519v500.83h150.76v-385.72h112.64v385.72h150.76v-385.72h112.6v385.72h150.76v-500.83z" />
    <glyph glyph-name="uni0449" unicode="&#x449;" horiz-adv-x="815" 
d="M716.45 115.24h76.8906v-226.24h-137.16v111h-617.25v500.83h150.75v-385.72h112.61v385.72h150.8v-385.65h112.6v385.65h150.76v-385.59z" />
    <glyph glyph-name="uni044C" unicode="&#x44c;" horiz-adv-x="475" 
d="M189.44 341.22l82.3594 0.000976562c99.2002 0 178.311 -66.0703 178.311 -170.61s-79.96 -170.61 -170.21 -170.61h-240.97v500.66h150.51v-159.44zM189.439 224.891v-109.961h56.0596c29.1699 0 58.9902 18.0303 58.9902 54.9805s-29.8203 54.9805 -58.9902 54.9805
h-56.0596z" />
    <glyph glyph-name="uni044A" unicode="&#x44a;" horiz-adv-x="556" 
d="M271.06 341.22l82.3701 0.000976562c99.2002 0 178.311 -66.0703 178.311 -170.61s-79.96 -170.61 -170.21 -170.61h-241.03v373.57h-107.74v127.09h258.3v-159.44zM271.069 224.891v-109.961h56.0596c29.1699 0 58.9902 18.0303 58.9902 54.9805
s-29.8203 54.9805 -58.9902 54.9805h-56.0596z" />
    <glyph glyph-name="uni044B" unicode="&#x44b;" horiz-adv-x="700" 
d="M189.44 341.22l82.3594 0.000976562c99.2002 0 178.311 -66.0703 178.311 -170.62c0 -104.54 -79.96 -170.61 -170.21 -170.61h-240.97v500.67h150.51v-159.44zM661.67 0.000976562h-150.51v500.66h150.51v-500.66zM189.44 224.891v-109.961h56.0596
c29.1699 0 58.9902 18.0303 58.9902 54.9805s-29.8203 54.9805 -58.9902 54.9805h-56.0596z" />
    <glyph glyph-name="uni044D" unicode="&#x44d;" horiz-adv-x="460" 
d="M154.39 355.11l-123.88 41.9404c24.3301 68.4805 79.4697 114.211 180.59 114.211c140.93 0 213.71 -80.7305 213.71 -206.381v-107.1c0 -127.8 -73.4902 -204.78 -216.101 -204.78c-100.52 0 -154.909 45.1699 -178.499 112l123.43 42.0996
c11.3604 -22.0303 30.2402 -33.4199 55.0703 -33.4199c44.75 0 64.2998 19.5303 65.25 76.4199l0.0996094 16.7305h-100.85v90.7803h100.85l-0.169922 17.2695c-1.25977 53.3096 -21.0898 75.8799 -62.7998 75.8799c-25.2803 0 -44.75 -11.9902 -56.7002 -35.6504z" />
    <glyph glyph-name="uni044E" unicode="&#x44e;" horiz-adv-x="711" 
d="M260.25 308.09l0.420898 15.3691c7.13965 114.2 78.5898 186.22 214.99 186.22c140.64 0 209.859 -84.8896 209.859 -205.479v-108.82c0 -95.0098 -51.1797 -203.38 -211.54 -203.38c-148.65 0 -206.24 92.4004 -213.141 183.96l-0.589844 16.9404h-70.5596v-192.89
h-150.76v500.98h150.76v-192.9h70.5596zM534.761 195.389l0.0107422 108.81c0 55.0498 -18.7998 84.9902 -60.79 84.9902c-46.7998 0 -63.2598 -25.8301 -63.2598 -84.9902v-108.81c0 -46.1299 16.04 -83.3496 63.2598 -83.3496c46.1396 0 60.7793 36.79 60.7793 83.3496z
" />
    <glyph glyph-name="uni044F" unicode="&#x44f;" horiz-adv-x="508" 
d="M469.15 0l-150.512 -0.0107422v159.45h-52.0801l-89.3496 -159.45h-152.97l114.37 189.69l-7.58984 5.17969c-38.7598 26.9102 -73.0498 70.4805 -73.0498 135.19c0 104.54 79.96 170.61 170.2 170.61h240.98v-500.66zM318.639 385.729l-56.0703 0.000976562
c-29.1602 0 -58.9805 -18.0303 -58.9805 -54.9805s29.8203 -54.9805 58.9805 -54.9805h56.0703v109.96z" />
    <glyph glyph-name="Delta" unicode="&#x394;" horiz-adv-x="833" 
 />
    <glyph glyph-name="Omega" unicode="&#x3a9;" horiz-adv-x="833" 
 />
    <glyph glyph-name="mu" unicode="&#x3bc;" horiz-adv-x="833" 
 />
    <glyph glyph-name="pi" unicode="&#x3c0;" horiz-adv-x="127" 
 />
    <glyph glyph-name="zero" unicode="0" horiz-adv-x="566" 
d="M45.9502 207.51v278.659c0 148.9 99.7197 227.45 238.359 227.45c150.61 0 235.311 -94.1201 235.311 -228.22v-277.89c0 -162.27 -129.03 -217.51 -236.07 -217.51c-104.27 0 -237.6 54.8496 -237.6 217.51zM368.87 212.619l0.0107422 268.62
c0 64.0098 -27.3799 93.79 -84.7002 93.79c-57.9805 0 -87.4902 -25.4004 -87.4902 -93.0908v-269.32c0 -63.5898 38.75 -84.0098 86.79 -84.0098c48.3301 0 85.3896 20.0703 85.3896 84.0107z" />
    <glyph glyph-name="one" unicode="1" horiz-adv-x="396" 
d="M337.86 0l-141.599 -0.00195312v479.88c-12.1504 -14.5596 -28.8301 -24.96 -47.6104 -32.5195c-28.3496 -11 -61.54 -15.3096 -89.8701 -16.8291l-35.8096 143.1c44.0303 3.44043 83.54 16.9102 115.31 36.4902c38.2197 23.4404 65.2295 55.6406 76.1895 89.8809h123.39
v-700z" />
    <glyph glyph-name="two" unicode="2" horiz-adv-x="520" 
d="M178.22 481.9l-147.569 41.1396c43.9102 129.48 118.15 188.32 240.86 188.32c129.05 0 219.92 -93.4199 219.92 -215.5c0 -70.3604 -28.1699 -133.23 -72.7197 -180.141l-157.32 -179.92h230.04v-135.8h-454.68v100.51l241.83 279.31
c45.3896 53 61.9795 89.5303 61.9795 121.75c0 44.4102 -31.5596 71.1904 -69.04 71.1904c-57.4502 0 -74.8604 -29.0596 -93.3008 -90.8594z" />
    <glyph glyph-name="three" unicode="3" horiz-adv-x="522" 
d="M176.29 523.86l-132.43 54.0498c18.0801 44.3398 85.1504 134.49 202.86 134.49c118.28 0 222.33 -75.5596 222.33 -205.199c0 -76.5498 -47.8496 -121.49 -78.0596 -142.79c35.04 -22.4404 89.6797 -69.3604 89.6797 -158.801
c0 -143.53 -104.88 -216.62 -234.09 -216.62c-124.11 0 -192.53 74.4697 -217.86 113.68l116.29 75.3496c18.3398 -28.3496 57.8799 -50.4492 101.57 -50.4492c45.5498 0 81.75 36.0498 81.75 81.4502c0 44.9502 -41.3604 87.4805 -97.5107 87.4805h-41v125.09h41
c52.5996 0 89.21 37.3496 89.21 78.8096c0 41.75 -31.8496 74.0498 -73.2998 74.0498c-49.0498 0 -67.1602 -42.5498 -70.4404 -50.5898z" />
    <glyph glyph-name="four" unicode="4" horiz-adv-x="536" 
d="M449.5 287.31h49.3398v-131.59h-49.3398v-155.72h-150.75v155.72h-271.52v131.59l261.88 413.11h160.39v-413.11zM175.38 287.31h123.37v186.9z" />
    <glyph glyph-name="five" unicode="5" horiz-adv-x="538" 
d="M445.21 561.41l-204.201 -0.000976562l-11.3799 -96.1201h35.0801c102.51 -5.34961 237.54 -74.6494 237.54 -231.06c0 -156.71 -113.35 -245.229 -255.38 -245.229c-118.67 0 -190.64 74.7598 -215.83 114.27l116.3 75.1904
c18.04 -28.4902 61.8604 -50.8604 99.5303 -50.8604c62.4805 0 103.171 42.1797 104.551 99.8193c-1.2998 55.1504 -40.25 99.3506 -104.24 99.3506h-162.29l46.21 373.74h314.11v-139.1z" />
    <glyph glyph-name="six" unicode="6" horiz-adv-x="594" 
d="M54.46 226.13l-0.000976562 223.891c0 153.88 111.33 261.7 266.771 261.7c103.99 0 178.94 -58.0801 202.46 -79.1797l-90.8701 -103.36c-17.8398 15.5195 -63.5596 43.9395 -115.84 43.9395c-81.3096 0 -120.989 -54.9502 -120.989 -112.391v-37.1299
c33.6396 28.4102 76.3594 39.6504 111.149 39.6504c134.99 0 235.82 -104.37 235.82 -237.13s-107.05 -237.13 -244.319 -237.13c-137.28 0 -244.181 104.39 -244.181 237.14zM298.629 324.521c-61.3896 0 -92.9795 -43.5498 -93.4199 -98.3994
c0 -54.5498 33.4199 -98.54 93.4297 -98.54c60 0 93.5801 42.7598 93.5801 98.5498s-32.4902 98.3896 -93.5898 98.3896z" />
    <glyph glyph-name="seven" unicode="7" horiz-adv-x="497" 
d="M461.33 603.23l-285.421 -603.23h-146.74l265.73 561.25h-266.8v138.75h433.23v-96.7695z" />
    <glyph glyph-name="eight" unicode="8" horiz-adv-x="552" 
d="M276.23 712.4c118.27 0 222.331 -75.5488 222.331 -205.188c0 -76.5596 -47.8496 -121.489 -78.0596 -142.789c35.04 -22.4502 89.6797 -69.3604 89.6797 -158.811c0 -143.53 -104.88 -216.61 -234.09 -216.61c-129.07 0 -234.391 73.0801 -234.391 216.61
c0 89.5996 54.3398 136.659 89.9795 158.959c-29.9199 21.4502 -77.9199 66.3799 -77.9199 142.64c0 129.64 104.05 205.189 222.47 205.189zM276.242 574.451c-41.6104 0 -73.4609 -32.291 -73.4609 -74.0508c0 -41.2998 33.9404 -72.8496 73.3105 -72.8496
c39.96 0 73.4502 31.4004 73.4502 72.8506c0 41.7598 -31.8496 74.0498 -73.2998 74.0498zM276.091 290.17c-44.9502 0 -82.0508 -36.2002 -82.0508 -81.1504c0 -45.4004 36.6504 -81.4502 82.0508 -81.4502c45.5498 0 81.75 36.0498 81.75 81.4502
c0 44.9502 -37.8398 81.1504 -81.75 81.1504z" />
    <glyph glyph-name="nine" unicode="9" horiz-adv-x="594" 
d="M398.46 239.83l-0.00976562 37.1299c-33.6396 -28.4199 -76.3594 -39.6602 -111.149 -39.6602c-134.99 0 -235.811 104.37 -235.811 237.13s107.04 237.279 244.32 237.279s244.17 -104.53 244.17 -237.28v-223.89c0 -153.89 -111.33 -261.55 -266.771 -261.55
c-103.99 0 -178.94 57.9297 -202.46 79.0195l90.8701 103.36c17.8398 -15.5098 63.5596 -43.9297 115.84 -43.9297c81.3096 0 121 54.9502 121 112.391zM295.811 572.979c-60.0098 0 -93.5908 -42.749 -93.5908 -98.5391s32.4805 -98.4004 93.5801 -98.4004
c61.3896 0 93 43.5498 93.4404 98.3994c0 54.5498 -33.4297 98.54 -93.4297 98.54z" />
    <glyph glyph-name="zero.lf" horiz-adv-x="566" 
d="M45.9502 207.51v278.659c0 148.9 99.7197 227.45 238.359 227.45c150.61 0 235.311 -94.1201 235.311 -228.22v-277.89c0 -162.27 -129.03 -217.51 -236.07 -217.51c-104.27 0 -237.6 54.8496 -237.6 217.51zM368.87 212.619l0.0107422 268.62
c0 64.0098 -27.3799 93.79 -84.7002 93.79c-57.9805 0 -87.4902 -25.4004 -87.4902 -93.0908v-269.32c0 -63.5898 38.75 -84.0098 86.79 -84.0098c48.3301 0 85.3896 20.0703 85.3896 84.0107z" />
    <glyph glyph-name="one.lf" horiz-adv-x="396" 
d="M337.86 0l-141.59 -0.0078125v479.89c-12.6104 -15.1201 -30.1699 -25.75 -49.9102 -33.3398c-27.8701 -10.3701 -60.0303 -14.5303 -87.5703 -16.0107l-35.8096 143.09c45.7695 3.55957 86.5996 17.9795 118.92 38.7793c36.25 23.2197 61.9004 54.3994 72.5703 87.5996
h123.39v-700z" />
    <glyph glyph-name="two.lf" horiz-adv-x="520" 
d="M178.22 481.9l-147.569 41.1396c43.9102 129.48 118.15 188.32 240.86 188.32c129.05 0 219.92 -93.4199 219.92 -215.5c0 -70.3604 -28.1699 -133.23 -72.7197 -180.141l-157.32 -179.92h230.04v-135.8h-454.68v100.51l241.83 279.31
c45.3896 53 61.9795 89.5303 61.9795 121.75c0 44.4102 -31.5596 71.1904 -69.04 71.1904c-57.4502 0 -74.8604 -29.0596 -93.3008 -90.8594z" />
    <glyph glyph-name="three.lf" horiz-adv-x="522" 
d="M176.29 523.86l-132.43 54.0498c18.0801 44.3398 85.1504 134.49 202.86 134.49c118.28 0 222.33 -75.5596 222.33 -205.199c0 -76.5498 -47.8496 -121.49 -78.0596 -142.79c35.04 -22.4404 89.6797 -69.3604 89.6797 -158.801
c0 -143.53 -104.88 -216.62 -234.09 -216.62c-124.11 0 -192.53 74.4697 -217.86 113.68l116.29 75.3496c18.3398 -28.3496 57.8799 -50.4492 101.57 -50.4492c45.5498 0 81.75 36.0498 81.75 81.4502c0 44.9502 -41.3604 87.4805 -97.5107 87.4805h-41v125.09h41
c52.5996 0 89.21 37.3496 89.21 78.8096c0 41.75 -31.8496 74.0498 -73.2998 74.0498c-49.0498 0 -67.1602 -42.5498 -70.4404 -50.5898z" />
    <glyph glyph-name="four.lf" horiz-adv-x="536" 
d="M449.5 287.31h49.3398v-131.59h-49.3398v-155.72h-150.75v155.72h-271.52v131.59l261.88 413.11h160.39v-413.11zM175.38 287.31h123.37v186.9z" />
    <glyph glyph-name="five.lf" horiz-adv-x="538" 
d="M445.21 561.41l-204.201 -0.000976562l-11.3799 -96.1201h35.0801c102.51 -5.34961 237.54 -74.6494 237.54 -231.06c0 -156.71 -113.35 -245.229 -255.38 -245.229c-118.67 0 -190.64 74.7598 -215.83 114.27l116.3 75.1904
c18.04 -28.4902 61.8604 -50.8604 99.5303 -50.8604c62.4805 0 103.171 42.1797 104.551 99.8193c-1.2998 55.1504 -40.25 99.3506 -104.24 99.3506h-162.29l46.21 373.74h314.11v-139.1z" />
    <glyph glyph-name="six.lf" horiz-adv-x="599" 
d="M54.46 226.13l-0.000976562 223.891c0 153.88 111.33 261.7 266.771 261.7c103.99 0 178.94 -58.0801 202.46 -79.1797l-90.8701 -103.36c-17.8398 15.5195 -63.5596 43.9395 -115.84 43.9395c-81.3096 0 -120.989 -54.9502 -120.989 -112.391v-37.1299
c33.6396 28.4102 76.3594 39.6504 111.149 39.6504c134.99 0 235.82 -104.37 235.82 -237.13s-107.05 -237.13 -244.319 -237.13c-137.28 0 -244.181 104.39 -244.181 237.14zM298.629 324.521c-61.3896 0 -92.9795 -43.5498 -93.4199 -98.3994
c0 -54.5498 33.4199 -98.54 93.4297 -98.54c60 0 93.5801 42.7598 93.5801 98.5498s-32.4902 98.3896 -93.5898 98.3896z" />
    <glyph glyph-name="seven.lf" horiz-adv-x="501" 
d="M461.33 603.23l-285.421 -603.23h-146.74l265.73 561.25h-266.8v138.75h433.23v-96.7695z" />
    <glyph glyph-name="eight.lf" horiz-adv-x="552" 
d="M276.23 712.4c118.27 0 222.331 -75.5488 222.331 -205.188c0 -76.5596 -47.8496 -121.489 -78.0596 -142.789c35.04 -22.4502 89.6797 -69.3604 89.6797 -158.811c0 -143.53 -104.88 -216.61 -234.09 -216.61c-129.07 0 -234.391 73.0801 -234.391 216.61
c0 89.5996 54.3398 136.659 89.9795 158.959c-29.9199 21.4502 -77.9199 66.3799 -77.9199 142.64c0 129.64 104.05 205.189 222.47 205.189zM276.242 574.451c-41.6104 0 -73.4609 -32.291 -73.4609 -74.0508c0 -41.2998 33.9404 -72.8496 73.3105 -72.8496
c39.96 0 73.4502 31.4004 73.4502 72.8506c0 41.7598 -31.8496 74.0498 -73.2998 74.0498zM276.091 290.17c-44.9502 0 -82.0508 -36.2002 -82.0508 -81.1504c0 -45.4004 36.6504 -81.4502 82.0508 -81.4502c45.5498 0 81.75 36.0498 81.75 81.4502
c0 44.9502 -37.8398 81.1504 -81.75 81.1504z" />
    <glyph glyph-name="nine.lf" horiz-adv-x="594" 
d="M398.46 239.83l-0.00976562 37.1299c-33.6396 -28.4199 -76.3594 -39.6602 -111.149 -39.6602c-134.99 0 -235.811 104.37 -235.811 237.13s107.04 237.279 244.32 237.279s244.17 -104.53 244.17 -237.28v-223.89c0 -153.89 -111.33 -261.55 -266.771 -261.55
c-103.99 0 -178.94 57.9297 -202.46 79.0195l90.8701 103.36c17.8398 -15.5098 63.5596 -43.9297 115.84 -43.9297c81.3096 0 121 54.9502 121 112.391zM295.811 572.979c-60.0098 0 -93.5908 -42.749 -93.5908 -98.5391s32.4805 -98.4004 93.5801 -98.4004
c61.3896 0 93 43.5498 93.4404 98.3994c0 54.5498 -33.4297 98.54 -93.4297 98.54z" />
    <glyph glyph-name="zero.osf" horiz-adv-x="566" 
d="M45.9502 207.51l-0.00195312 74.6602c0 148.91 99.7197 227.45 238.37 227.45c150.61 0 235.301 -94.1104 235.301 -228.221v-73.8896c0 -162.27 -129.02 -217.51 -236.069 -217.51c-104.27 0 -237.6 54.8496 -237.6 217.51zM368.878 212.62l0.00976562 64.6201
c0 64.0098 -27.3896 93.79 -84.6992 93.79c-57.9902 0 -87.4902 -25.4004 -87.4902 -93.0908v-65.3203c0 -63.5898 38.7402 -84.0098 86.7803 -84.0098c48.3398 0 85.3994 20.0703 85.3994 84.0107z" />
    <glyph glyph-name="one.osf" horiz-adv-x="455" 
d="M318.95 130.92h101.409v-130.92h-357.33v130.92h119.87v170.41c-12.3398 -11.5303 -28.25 -19.8301 -45.6396 -25.9199c-21.5303 -7.2998 -45.1299 -11.0996 -66.0801 -12.7695l-30.75 122.81c35.6797 4.28027 68.0098 15.75 94.6396 31.9297
c35.6104 21.5498 60.8506 51.3896 71.1406 83.25h112.74v-369.71z" />
    <glyph glyph-name="two.osf" horiz-adv-x="514" 
d="M177.29 304.93l-146.63 39.0908c44.3301 112.56 122.23 164.84 234.841 164.84c110.53 0 219.92 -61.0303 219.92 -187.5c0 -79.3398 -53.7803 -121.05 -125.431 -157.72l-53.3096 -32.5801h177.4v-131.07h-453.34v99.2305l170.72 89.6299
c61.9404 32.1904 133.08 79.5303 133.08 126.96c0 39.96 -25.25 60.8496 -65.4102 60.8496c-53.8203 0 -79.6504 -37.5303 -91.8408 -71.7305z" />
    <glyph glyph-name="three.osf" horiz-adv-x="522" 
d="M176.29 321.5l-132.429 53.6494c18.0801 44.3496 85.1504 134.489 202.87 134.489c118.27 0 222.319 -75.5498 222.319 -205.189c0 -76.5596 -47.8496 -121.489 -78.0596 -142.789c35.04 -22.4502 89.6797 -69.3604 89.6797 -158.66c0 -143 -104.88 -217 -234.09 -217
c-124.11 0 -192.53 75 -217.86 114l116.29 76c18.3398 -29 57.8799 -51 101.57 -51c45.5498 0 81.75 37 81.75 81.7402c0 44.8799 -41.3604 87.4102 -97.5107 87.4102h-41v125.09h41c52.5996 0 89.21 37.3496 89.21 78.7998c0 41.7598 -31.8496 74.0498 -73.2998 74.0498
c-49.0498 0 -67.1602 -42.5498 -70.4404 -50.5898z" />
    <glyph glyph-name="four.osf" horiz-adv-x="536" 
d="M449.5 87.2197h49.3398v-131.22h-49.3398v-156h-150.75v156h-271.52v131.22l261.88 413.11h160.39v-413.11zM175.38 87.2197h123.37v186.9z" />
    <glyph glyph-name="five.osf" horiz-adv-x="538" 
d="M445.21 361.18h-204.201l-11.3799 -96.1201h35.0801c102.51 -5.34961 237.54 -74.6494 237.54 -231.06c0 -156 -113.35 -245 -255.38 -245c-118.67 0 -190.64 75 -215.83 115l116.3 75c18.04 -29 61.8604 -51 99.5303 -51c62.4805 0 103.171 43 104.551 100.01
c-1.2998 55.1396 -40.25 99.3398 -104.24 99.3398h-162.29l46.21 373.8h314.11v-139.97z" />
    <glyph glyph-name="six.osf" horiz-adv-x="600" 
d="M54.46 226.13l-0.000976562 223.891c0 153.88 111.33 261.7 266.771 261.7c103.99 0 178.94 -58.0801 202.46 -79.1797l-90.8701 -103.36c-17.8398 15.5195 -63.5596 43.9395 -115.84 43.9395c-81.3096 0 -120.989 -54.9502 -120.989 -112.391v-37.1299
c33.6396 28.4102 76.3594 39.6504 111.149 39.6504c134.99 0 235.82 -104.37 235.82 -237.13s-107.05 -237.13 -244.319 -237.13c-137.28 0 -244.181 104.39 -244.181 237.14zM298.629 324.521c-61.3896 0 -92.9795 -43.5498 -93.4199 -98.3994
c0 -54.5498 33.4199 -98.54 93.4297 -98.54c60 0 93.5801 42.7598 93.5801 98.5498s-32.4902 98.3896 -93.5898 98.3896z" />
    <glyph glyph-name="seven.osf" horiz-adv-x="501" 
d="M461.33 404.23l-285.421 -603.23h-146.74l265.73 561.25h-266.8v138.75h433.23v-96.7695z" />
    <glyph glyph-name="eight.osf" horiz-adv-x="552" 
d="M276.23 712.4c118.27 0 222.331 -75.5488 222.331 -205.188c0 -76.5596 -47.8496 -121.489 -78.0596 -142.789c35.04 -22.4502 89.6797 -69.3604 89.6797 -158.811c0 -143.53 -104.88 -216.61 -234.09 -216.61c-129.07 0 -234.391 73.0801 -234.391 216.61
c0 89.5996 54.3398 136.659 89.9795 158.959c-29.9199 21.4502 -77.9199 66.3799 -77.9199 142.64c0 129.64 104.05 205.189 222.47 205.189zM276.242 574.451c-41.6104 0 -73.4609 -32.291 -73.4609 -74.0508c0 -41.2998 33.9404 -72.8496 73.3105 -72.8496
c39.96 0 73.4502 31.4004 73.4502 72.8506c0 41.7598 -31.8496 74.0498 -73.2998 74.0498zM276.091 290.17c-44.9502 0 -82.0508 -36.2002 -82.0508 -81.1504c0 -45.4004 36.6504 -81.4502 82.0508 -81.4502c45.5498 0 81.75 36.0498 81.75 81.4502
c0 44.9502 -37.8398 81.1504 -81.75 81.1504z" />
    <glyph glyph-name="nine.osf" horiz-adv-x="595" 
d="M398.46 37.2598l-0.00878906 37.1504c-33.6396 -28.4102 -76.3701 -39.6504 -111.16 -39.6504c-134.99 0 -235.811 104.37 -235.811 237.13s107.05 237.279 244.33 237.279c137.09 0 244.17 -104.52 244.17 -237.279v-223.89c0 -154 -111.33 -262 -266.771 -262
c-103.99 0 -178.94 59 -202.46 79l90.8701 104c17.8398 -15 63.5596 -44 115.84 -44c81.3096 0 121 55 121 112.26zM295.801 370.43c-60 0 -93.5898 -42.75 -93.5898 -98.54s32.4902 -98.3896 93.5898 -98.3896c61.3896 0 92.9893 43.5498 93.4297 98.3896
c0 54.5801 -33.5898 98.54 -93.4297 98.54z" />
    <glyph glyph-name="zero.tf" horiz-adv-x="566" 
d="M45.9502 207.51v278.659c0 148.9 99.7197 227.45 238.359 227.45c150.61 0 235.311 -94.1201 235.311 -228.22v-277.89c0 -162.27 -129.03 -217.51 -236.07 -217.51c-104.27 0 -237.6 54.8496 -237.6 217.51zM368.87 212.619l0.0107422 268.62
c0 64.0098 -27.3799 93.79 -84.7002 93.79c-57.9805 0 -87.4902 -25.4004 -87.4902 -93.0908v-269.32c0 -63.5898 38.75 -84.0098 86.79 -84.0098c48.3301 0 85.3896 20.0703 85.3896 84.0107z" />
    <glyph glyph-name="one.tf" horiz-adv-x="523" 
d="M354.27 134.87l119.421 0.00195312v-135.3h-397.59v135.3h136.58v346.23c-13.1201 -15.75 -31.6797 -26.6104 -52.5 -34.2207c-27.29 -9.7002 -58.3096 -13.6807 -84.9697 -15.1309l-35.8203 143.09c42.6602 3.34961 81.1299 16.0996 112.42 34.7393
c39.79 24 67.8896 57 79.0693 92.0596h123.39v-566.77z" />
    <glyph glyph-name="two.tf" horiz-adv-x="539" 
d="M178.22 481.9l-147.569 41.1396c43.9102 129.48 118.15 188.32 240.86 188.32c129.05 0 219.92 -93.4199 219.92 -215.5c0 -70.3604 -28.1699 -133.23 -72.7197 -180.141l-157.32 -179.92h230.04v-135.8h-454.68v100.51l241.83 279.31
c45.3896 53 61.9795 89.5303 61.9795 121.75c0 44.4102 -31.5596 71.1904 -69.04 71.1904c-57.4502 0 -74.8604 -29.0596 -93.3008 -90.8594z" />
    <glyph glyph-name="three.tf" horiz-adv-x="532" 
d="M176.29 523.86l-132.43 54.0498c18.0801 44.3398 85.1504 134.49 202.86 134.49c118.28 0 222.33 -75.5596 222.33 -205.199c0 -76.5498 -47.8496 -121.49 -78.0596 -142.79c35.04 -22.4404 89.6797 -69.3604 89.6797 -158.801
c0 -143.53 -104.88 -216.62 -234.09 -216.62c-124.11 0 -192.53 74.4697 -217.86 113.68l116.29 75.3496c18.3398 -28.3496 57.8799 -50.4492 101.57 -50.4492c45.5498 0 81.75 36.0498 81.75 81.4502c0 44.9502 -41.3604 87.4805 -97.5107 87.4805h-41v125.09h41
c52.5996 0 89.21 37.3496 89.21 78.8096c0 41.75 -31.8496 74.0498 -73.2998 74.0498c-49.0498 0 -67.1602 -42.5498 -70.4404 -50.5898z" />
    <glyph glyph-name="four.tf" horiz-adv-x="549" 
d="M449.5 287.31h49.3398v-131.59h-49.3398v-155.72h-150.75v155.72h-271.52v131.59l261.88 413.11h160.39v-413.11zM175.38 287.31h123.37v186.9z" />
    <glyph glyph-name="five.tf" horiz-adv-x="549" 
d="M445.21 561.41l-204.201 -0.000976562l-11.3799 -96.1201h35.0801c102.51 -5.34961 237.54 -74.6494 237.54 -231.06c0 -156.71 -113.35 -245.229 -255.38 -245.229c-118.67 0 -190.64 74.7598 -215.83 114.27l116.3 75.1904
c18.04 -28.4902 61.8604 -50.8604 99.5303 -50.8604c62.4805 0 103.171 42.1797 104.551 99.8193c-1.2998 55.1504 -40.25 99.3506 -104.24 99.3506h-162.29l46.21 373.74h314.11v-139.1z" />
    <glyph glyph-name="six.tf" horiz-adv-x="596" 
d="M54.46 226.13l-0.000976562 223.891c0 153.88 111.33 261.7 266.771 261.7c103.99 0 178.94 -58.0801 202.46 -79.1797l-90.8701 -103.36c-17.8398 15.5195 -63.5596 43.9395 -115.84 43.9395c-81.3096 0 -120.989 -54.9502 -120.989 -112.391v-37.1299
c33.6396 28.4102 76.3594 39.6504 111.149 39.6504c134.99 0 235.82 -104.37 235.82 -237.13s-107.05 -237.13 -244.319 -237.13c-137.28 0 -244.181 104.39 -244.181 237.14zM298.629 324.521c-61.3896 0 -92.9795 -43.5498 -93.4199 -98.3994
c0 -54.5498 33.4199 -98.54 93.4297 -98.54c60 0 93.5801 42.7598 93.5801 98.5498s-32.4902 98.3896 -93.5898 98.3896z" />
    <glyph glyph-name="seven.tf" horiz-adv-x="513" 
d="M461.33 603.23l-285.421 -603.23h-146.74l265.73 561.25h-266.8v138.75h433.23v-96.7695z" />
    <glyph glyph-name="eight.tf" horiz-adv-x="553" 
d="M276.23 712.4c118.27 0 222.331 -75.5488 222.331 -205.188c0 -76.5596 -47.8496 -121.489 -78.0596 -142.789c35.04 -22.4502 89.6797 -69.3604 89.6797 -158.811c0 -143.53 -104.88 -216.61 -234.09 -216.61c-129.07 0 -234.391 73.0801 -234.391 216.61
c0 89.5996 54.3398 136.659 89.9795 158.959c-29.9199 21.4502 -77.9199 66.3799 -77.9199 142.64c0 129.64 104.05 205.189 222.47 205.189zM276.242 574.451c-41.6104 0 -73.4609 -32.291 -73.4609 -74.0508c0 -41.2998 33.9404 -72.8496 73.3105 -72.8496
c39.96 0 73.4502 31.4004 73.4502 72.8506c0 41.7598 -31.8496 74.0498 -73.2998 74.0498zM276.091 290.17c-44.9502 0 -82.0508 -36.2002 -82.0508 -81.1504c0 -45.4004 36.6504 -81.4502 82.0508 -81.4502c45.5498 0 81.75 36.0498 81.75 81.4502
c0 44.9502 -37.8398 81.1504 -81.75 81.1504z" />
    <glyph glyph-name="nine.tf" horiz-adv-x="596" 
d="M398.46 239.83l-0.00976562 37.1299c-33.6396 -28.4199 -76.3594 -39.6602 -111.149 -39.6602c-134.99 0 -235.811 104.37 -235.811 237.13s107.04 237.279 244.32 237.279s244.17 -104.53 244.17 -237.28v-223.89c0 -153.89 -111.33 -261.55 -266.771 -261.55
c-103.99 0 -178.94 57.9297 -202.46 79.0195l90.8701 103.36c17.8398 -15.5098 63.5596 -43.9297 115.84 -43.9297c81.3096 0 121 54.9502 121 112.391zM295.811 572.979c-60.0098 0 -93.5908 -42.749 -93.5908 -98.5391s32.4805 -98.4004 93.5801 -98.4004
c61.3896 0 93 43.5498 93.4404 98.3994c0 54.5498 -33.4297 98.54 -93.4297 98.54z" />
    <glyph glyph-name="zero.tosf" horiz-adv-x="566" 
d="M45.9805 207.51v74.6602c0 148.91 99.7197 227.45 238.359 227.45c150.61 0 235.311 -94.1104 235.311 -228.221v-73.8896c0 -162.27 -129.03 -217.51 -236.07 -217.51c-104.27 0 -237.6 54.8496 -237.6 217.51zM368.91 212.62v64.6201
c0 64.0098 -27.3799 93.79 -84.7002 93.79c-57.9805 0 -87.4902 -25.4004 -87.4902 -93.0908v-65.3203c0 -63.5898 38.75 -84.0098 86.79 -84.0098c48.3301 0 85.4004 20.0703 85.4004 84.0107z" />
    <glyph glyph-name="one.tosf" horiz-adv-x="477" 
d="M327.23 130.92l101.409 -0.00976562v-130.92h-357.34v130.92h119.88v170.42c-12.2002 -11.4102 -27.8799 -19.6602 -45.0098 -25.7305c-21.7002 -7.44043 -45.5498 -11.2803 -66.7197 -12.96l-30.75 122.8c34.79 4.19043 66.4404 15.1904 92.71 30.7705
c36.6699 21.6299 62.6299 52.0098 73.0801 84.4199h112.74v-369.71z" />
    <glyph glyph-name="two.tosf" horiz-adv-x="597" 
d="M186.95 304.93l-146.63 39.0811c44.3301 112.56 122.23 164.84 234.841 164.84c110.53 0 219.92 -61.0303 219.92 -187.5c0 -79.3398 -53.7803 -121.05 -125.431 -157.72l-53.3096 -32.5801h177.4v-131.06h-453.34v99.2305l170.72 89.6299
c61.9404 32.1797 133.08 79.5293 133.08 126.959c0 39.96 -25.25 60.8496 -65.4102 60.8496c-53.8203 0 -79.6504 -37.5303 -91.8408 -71.7305z" />
    <glyph glyph-name="three.tosf" horiz-adv-x="532" 
d="M183.12 321.45l-132.43 53.7197c18.0801 44.3496 85.1504 134.489 202.86 134.489c118.28 0 222.33 -75.5498 222.33 -205.189c0 -76.5596 -47.8496 -121.489 -78.0596 -142.789c35.04 -22.4502 89.6797 -69.3604 89.6797 -158.681c0 -143 -104.88 -217 -234.09 -217
c-124.11 0 -192.53 75 -217.86 114l116.29 76c18.3398 -29 57.8799 -51 101.57 -51c45.5498 0 81.75 37 81.75 81.7402c0 44.8301 -41.3604 87.3604 -97.5107 87.3604h-41v125.09h41c52.5996 0 89.21 37.3496 89.21 78.7998c0 41.7598 -31.8496 74.0498 -73.2998 74.0498
c-49.0498 0 -67.1602 -42.5498 -70.4404 -50.5898z" />
    <glyph glyph-name="four.tosf" horiz-adv-x="549" 
d="M456.5 87.2197h49.3398v-131.22h-49.3398v-156h-150.75v156h-271.52v131.22l261.88 413.11h160.39v-413.11zM182.38 87.2197h123.37v186.9z" />
    <glyph glyph-name="five.tosf" horiz-adv-x="549" 
d="M451.31 361.18h-204.189l-11.3701 -96.1201h35.0801c102.51 -5.34961 237.529 -74.6494 237.529 -231.06c0 -156 -113.34 -245 -255.37 -245c-118.68 0 -190.64 75 -215.83 115l116.29 75c18.0498 -29 61.8594 -51 99.5293 -51c62.4805 0 103.171 43 104.551 100.01
c-1.2998 55.1396 -40.2598 99.3398 -104.25 99.3398h-162.28l46.2002 373.8h314.11v-139.97z" />
    <glyph glyph-name="six.tosf" horiz-adv-x="597" 
d="M55.9502 226.13l-0.0107422 223.891c0 153.88 111.33 261.7 266.78 261.7c103.99 0 178.94 -58.0801 202.46 -79.1797l-90.8701 -103.36c-17.8398 15.5195 -63.5596 43.9395 -115.84 43.9395c-81.3096 0 -121 -54.9502 -121 -112.391v-37.1299
c33.6396 28.4102 76.3701 39.6504 111.16 39.6504c134.99 0 235.82 -104.37 235.82 -237.13s-107.05 -237.13 -244.319 -237.13c-137.28 0 -244.181 104.39 -244.181 237.14zM300.119 324.521c-61.3896 0 -92.9893 -43.5498 -93.4297 -98.3994
c0 -54.5498 33.4297 -98.54 93.4297 -98.54c60.0098 0 93.5801 42.7598 93.5801 98.5498s-32.4805 98.3896 -93.5801 98.3896z" />
    <glyph glyph-name="seven.tosf" horiz-adv-x="513" 
d="M471.75 404.23l-285.41 -603.23h-146.75l265.74 561.25h-266.8v138.75h433.22v-96.7695z" />
    <glyph glyph-name="eight.tosf" horiz-adv-x="553" 
d="M275.93 712.4c118.27 0 222.331 -75.5488 222.331 -205.188c0 -76.5596 -47.8496 -121.489 -78.0596 -142.789c35.04 -22.4502 89.6797 -69.3604 89.6797 -158.811c0 -143.53 -104.88 -216.61 -234.09 -216.61c-129.07 0 -234.391 73.0801 -234.391 216.61
c0 89.5996 54.3398 136.659 89.9795 158.959c-29.9199 21.4502 -77.9199 66.3799 -77.9199 142.64c0 129.64 104.05 205.189 222.47 205.189zM275.941 574.451c-41.6104 0 -73.4609 -32.291 -73.4609 -74.0508c0 -41.2998 33.9404 -72.8496 73.3105 -72.8496
c39.96 0 73.4502 31.4004 73.4502 72.8506c0 41.7598 -31.8496 74.0498 -73.2998 74.0498zM275.79 290.17c-44.96 0 -82.0498 -36.2002 -82.0498 -81.1504c0 -45.4004 36.6396 -81.4502 82.04 -81.4502c45.5498 0 81.75 36.0498 81.75 81.4502
c0 44.9502 -37.8301 81.1504 -81.7402 81.1504z" />
    <glyph glyph-name="nine.tosf" horiz-adv-x="597" 
d="M400.99 37.2598v37.1504c-33.6396 -28.4102 -76.3594 -39.6504 -111.149 -39.6504c-134.99 0 -235.811 104.37 -235.811 237.13s107.04 237.279 244.32 237.279c137.09 0 244.17 -104.52 244.17 -237.279v-223.89c0 -154 -111.33 -262 -266.771 -262
c-103.99 0 -178.95 59 -202.47 79l90.8701 104c17.8398 -15 63.5596 -44 115.84 -44c81.3096 0 121 55 121 112.26zM298.351 370.43c-60.0098 0 -93.5908 -42.75 -93.5908 -98.54s32.4805 -98.3896 93.5801 -98.3896c61.3896 0 93 43.5498 93.4404 98.3896
c0 54.5801 -33.5996 98.54 -93.4297 98.54z" />
    <glyph glyph-name="fraction" unicode="&#x2044;" horiz-adv-x="455" 
d="M172.48 0h-132.48l243 700h132.48z" />
    <glyph glyph-name="onehalf" unicode="&#xbd;" horiz-adv-x="900" 
d="M244.99 279l-105.609 -0.00976562v261.84c-8.29004 -7.62988 -21.5205 -13.4297 -35.7402 -17.3193c-15.4297 -4.11035 -31.8301 -6.07031 -44.1104 -5.80078l-26.5596 105.88c18.7598 -0.240234 42.6895 4.91016 64.3096 15.2705
c26.25 12.3896 49.1201 32.8496 55.6699 61.1396h92.04v-421zM375.881 -0.00976562h-132.48l243 700h132.48zM687.94 282.58l-103.72 29.4404c25.5098 75.1602 67.29 115.12 147.5 115.12c81.1201 0 135.79 -58.3398 135.79 -133.33
c0 -40.5703 -15.3604 -79.5898 -44.3408 -109.88l-80.7998 -87.9102h125.14v-96.0303h-280.14v71.4805l140.94 162.74c28.5098 33.0898 33.4395 50.8301 33.4395 62.8496c0 15.4102 -10.1396 32.2998 -30.04 32.2998c-24.2998 0 -33.1094 -11 -43.7695 -46.7803z" />
    <glyph glyph-name="onequarter" unicode="&#xbc;" horiz-adv-x="838" 
d="M244.99 279l-105.609 -0.00878906v261.84c-7.5 -6.88965 -18.8896 -12.3301 -31.4297 -16.2002c-16.5898 -4.91992 -35.0195 -7.22949 -48.4199 -6.91992l-26.5596 105.88c19.7695 -0.290039 45.2793 5.42969 67.7598 16.9492
c24.7695 12.5195 45.9092 32.4199 52.2188 59.46h92.04v-421zM365.671 -0.00878906h-132.48l243 700h132.48zM777.79 185.861h28.0596v-97.1797h-28.0596v-88.6904h-108v88.6904h-154.69v88.96l154.32 243.45h108.37v-235.23zM619.29 185.861h55.9297v95.5195z" />
    <glyph glyph-name="threequarters" unicode="&#xbe;" horiz-adv-x="859" 
d="M136.91 585.61l-96.2832 38.127c19.8203 48.75 71.6904 83.6504 126 83.6504c64.2305 0 125.87 -44.2002 125.87 -123.26c0 -36 -15.21 -56.0996 -33.0801 -72.4492c44.2803 -27.8496 56.3203 -63.4092 56.3203 -102.339c0 -81.0596 -67.5 -135.92 -149.26 -135.92
c-61.04 0 -107.49 30.3301 -133.5 70.3701l84.8203 54.8301c7.98047 -12.5898 27.3408 -23.8799 47.2412 -23.8799c25.0303 0 42.7607 18.1602 42.7607 44.2197c0 26.8799 -15.5 46.3496 -41.3301 46.3496h-31.2402v87.2695h26.6602
c17.0498 0 25.8496 15.3701 25.8496 27.4404c0 14.3799 -10.9697 26.1602 -24.4795 26.1602c-13.9297 0 -22.4199 -9.42969 -26.3496 -20.5693zM386.617 -0.0224609h-132.48l243 700h132.48zM798.736 185.848h28.0596v-97.1797h-28.0596v-88.6904h-108v88.6904h-154.69
v88.96l154.32 243.45h108.37v-235.23zM640.226 185.848h55.9297v95.5195z" />
    <glyph glyph-name="oneeighth" unicode="&#x215b;" horiz-adv-x="887" 
d="M244.99 279l-105.609 -0.0107422v261.84c-7.2998 -6.70996 -18.2402 -12.0498 -30.3701 -15.9102c-16.8496 -5.12012 -35.79 -7.54004 -49.4805 -7.21973l-26.5498 105.88c19.0596 -0.25 43.4697 5.07031 65.3496 15.7705
c25.8096 12.4404 48.1396 32.7402 54.6201 60.6504h92.04v-421zM375.881 -0.0107422h-132.48l243 700h132.48zM713.11 428.159c71.2598 0 133.73 -45.6699 133.73 -123.46c0 -48.1602 -30.7197 -73.5898 -45.71 -85.4102
c16.8896 -12.4697 52.6299 -39.0801 52.6299 -95.0801c0 -86.1396 -63.6201 -130.21 -140.74 -130.21c-77.1104 0 -140.9 43.7197 -140.9 130.21c0 56.3496 35.7695 82.7793 52.7998 95.209c-14.9297 11.8496 -45.6201 37.6699 -45.6201 85.2803
c0 77.2305 62.5303 123.461 133.811 123.461zM713.111 332.249c-18.9102 0 -32.8398 -15.3301 -32.8398 -33.2803c0 -17.96 15.1201 -32.5898 32.75 -32.5898c17.6396 0 32.8398 13.9902 32.8398 32.5898c0 18.5801 -13.8096 33.2803 -32.75 33.2803zM713.021 170.609
c-23.4805 0 -40.6299 -19.5703 -40.6299 -40.1299c0 -20.5498 16.6699 -40.2998 40.6299 -40.2998c23.9697 0 40.46 19.4297 40.46 40.3096c0 20.8701 -17.7695 40.1201 -40.46 40.1201z" />
    <glyph glyph-name="threeeighths" unicode="&#x215c;" horiz-adv-x="873" 
d="M136.91 585.61l-96.2832 38.127c19.8203 48.75 71.6904 83.6504 126 83.6504c64.2305 0 125.87 -44.2002 125.87 -123.26c0 -36 -15.21 -56.0996 -33.0801 -72.4492c44.2803 -27.8496 56.3203 -63.4092 56.3203 -102.339c0 -81.0596 -67.5 -135.92 -149.26 -135.92
c-61.04 0 -107.49 30.3301 -133.5 70.3701l84.8203 54.8301c7.98047 -12.5898 27.3408 -23.8799 47.2412 -23.8799c25.0303 0 42.7607 18.1602 42.7607 44.2197c0 26.8799 -15.5 46.3496 -41.3301 46.3496h-31.2402v87.2695h26.6602
c17.0498 0 25.8496 15.3701 25.8496 27.4404c0 14.3799 -10.9697 26.1602 -24.4795 26.1602c-13.9297 0 -22.4199 -9.42969 -26.3496 -20.5693zM390.937 -0.0224609h-132.49l243 700h132.49zM699.826 428.147c71.29 0 133.722 -45.6787 133.722 -123.459
c0 -48.1602 -30.71 -73.5898 -45.71 -85.4102c16.8896 -12.4697 52.6299 -39.0801 52.6299 -95.0801c0 -86.1396 -63.6104 -130.21 -140.73 -130.21s-140.91 43.7197 -140.91 130.21c0 56.3496 35.7695 82.7793 52.8096 95.209
c-14.9404 11.8496 -45.6309 37.6699 -45.6309 85.2803c0 77.2402 62.4902 123.46 133.82 123.46zM699.817 332.238c-18.8701 0 -32.8398 -15.3291 -32.8398 -33.2793c0 -17.96 15.1201 -32.5898 32.7598 -32.5898c17.6299 0 32.8398 13.9902 32.8398 32.5898
s-13.8496 33.2793 -32.7598 33.2793zM699.728 170.6c-23.4902 0 -40.6299 -19.5801 -40.6299 -40.1299c0 -20.5596 16.6699 -40.2998 40.6299 -40.2998c23.9697 0 40.46 19.4297 40.46 40.2998c0 20.8896 -17.7998 40.1299 -40.46 40.1299z" />
    <glyph glyph-name="fiveeighths" unicode="&#x215d;" horiz-adv-x="873" 
d="M287.07 602.13l-117.671 0.00878906l-4.57031 -39.3398l16.1299 -0.0996094c79.1504 -2.45996 138.681 -54.8096 138.681 -139.21c0 -108.86 -84.2598 -150.96 -156.6 -150.96c-56.7998 0 -105.85 29.2402 -132.29 70.2803l84.7695 54.7695
c8.25 -13.0898 29.8604 -27.1797 47.5107 -27.1797c29.6396 0 47.9697 22.7998 48.7002 49.2402c-0.769531 27.7803 -20.4395 45.7607 -48.5195 45.7607h-105.16l29.0195 234.6h200v-97.8701zM389.85 -0.000976562h-132.49l243 700h132.49zM699.819 428.169
c71.29 0 133.722 -45.6787 133.722 -123.459c0 -48.1602 -30.71 -73.5898 -45.71 -85.4102c16.8896 -12.4697 52.6299 -39.0801 52.6299 -95.0801c0 -86.1396 -63.6104 -130.21 -140.73 -130.21s-140.91 43.7197 -140.91 130.21c0 56.3496 35.7695 82.7793 52.8096 95.209
c-14.9404 11.8496 -45.6309 37.6699 -45.6309 85.2803c0 77.2402 62.4902 123.46 133.82 123.46zM699.811 332.26c-18.8701 0 -32.8398 -15.3291 -32.8398 -33.2793c0 -17.96 15.1201 -32.5898 32.7598 -32.5898c17.6299 0 32.8398 13.9902 32.8398 32.5898
s-13.8496 33.2793 -32.7598 33.2793zM699.721 170.621c-23.4902 0 -40.6299 -19.5801 -40.6299 -40.1299c0 -20.5596 16.6699 -40.2998 40.6299 -40.2998c23.9697 0 40.46 19.4297 40.46 40.2998c0 20.8896 -17.7998 40.1299 -40.46 40.1299z" />
    <glyph glyph-name="seveneighths" unicode="&#x215e;" horiz-adv-x="797" 
d="M305.2 629.3l-165.719 -348.22h-107.94l152.27 321.24h-147.28v97.6797h268.67v-70.7002zM305.541 0h-132.48l243 700h132.48zM623.83 428.16c71.29 0 133.722 -45.6719 133.722 -123.452c0 -48.1602 -30.71 -73.5898 -45.71 -85.4102
c16.8896 -12.4697 52.6299 -39.0801 52.6299 -95.0898c0 -86.1299 -63.6104 -130.21 -140.73 -130.21s-140.91 43.7305 -140.91 130.211c0 56.3604 35.7695 82.79 52.8096 95.21c-14.9404 11.8604 -45.6309 37.6807 -45.6309 85.291c0 77.2305 62.4902 123.45 133.82 123.45
zM623.821 332.258c-18.8701 0 -32.8398 -15.3398 -32.8398 -33.29s15.1201 -32.5801 32.7598 -32.5801c17.6299 0 32.8398 13.9805 32.8398 32.5801s-13.8496 33.29 -32.7598 33.29zM623.731 170.618c-23.4805 0 -40.6299 -19.5801 -40.6299 -40.1396
c0 -20.5498 16.6699 -40.2998 40.6299 -40.2998c23.9697 0 40.46 19.4297 40.46 40.3096c0 20.8896 -17.7998 40.1299 -40.46 40.1299z" />
    <glyph glyph-name="zero.dnom" horiz-adv-x="366" 
d="M32.9805 138.93v144.28c0 70.6904 42.6201 144.631 150.96 144.631c108.27 0 149.17 -75.3701 149.17 -145.08v-144.28c0 -70.6201 -42.6904 -144.48 -150.96 -144.48s-149.17 75.2197 -149.17 144.93zM220.971 133.27v154.74
c0 19.0703 -7.58008 42.3799 -37.1104 42.3799s-38.7402 -21.8496 -38.7402 -41.9697v-154.74c0 -19.0703 7.58008 -42.3799 37.1104 -42.3799s38.7402 21.8496 38.7402 41.9697z" />
    <glyph glyph-name="one.dnom" horiz-adv-x="265" 
d="M232.8 0l-105.621 0.00195312v261.84c-7.37012 -6.78027 -18.4697 -12.1602 -30.75 -16.0205c-16.75 -5.0498 -35.5098 -7.42969 -49.0996 -7.12012l-26.5498 105.88c19.7197 -0.280273 45.1602 5.41992 67.6006 16.8799
c24.8398 12.5195 46.0596 32.4395 52.3799 59.5391h92.04v-421z" />
    <glyph glyph-name="two.dnom" horiz-adv-x="344" 
d="M134.62 282.59l-103.719 29.4287c25.5 75.1602 67.29 115.12 147.49 115.12c81.1201 0 135.79 -58.3398 135.79 -133.33c0 -40.5703 -15.3604 -79.5801 -44.3408 -109.88l-80.7998 -87.9102h125.14v-96.0195h-280.13v71.4805l140.93 162.74
c28.5195 33.0898 33.4492 50.8203 33.4492 62.8398c0 15.4102 -10.1396 32.2998 -30.04 32.2998c-24.3096 0 -33.1191 -11 -43.7695 -46.7695z" />
    <glyph glyph-name="three.dnom" horiz-adv-x="349" 
d="M139.08 306.03l-96.2822 38.1387c19.8203 48.7402 71.6904 83.6406 126 83.6406c64.2305 0 125.87 -44.1904 125.87 -123.25c0 -36 -15.21 -56.0996 -33.0801 -72.46c44.3096 -27.8604 56.3193 -63.4102 56.3193 -102.34c0 -81.0596 -67.5 -135.77 -149.26 -135.77
c-61.04 0 -107.48 30.1797 -133.5 70.2197l84.8203 54.8301c7.98047 -12.5898 27.3408 -23.8799 47.2412 -23.8799c25.0303 0 42.7607 18.1602 42.7607 44.2197c0 26.8799 -15.5 46.3496 -41.3301 46.3496h-31.2402v87.2695h26.6602
c17.0498 0 25.8496 15.3701 25.8496 27.4404c0 14.3799 -10.9697 26.1602 -24.4795 26.1602c-13.9297 0 -22.4199 -9.42969 -26.3496 -20.5693z" />
    <glyph glyph-name="four.dnom" horiz-adv-x="349" 
d="M291.2 185.87l28.0586 -0.0107422v-97.1797h-28.0596v-88.6904h-108.01v88.6904h-154.68v88.96l154.32 243.45h108.37v-235.22zM132.688 185.859h55.9297v95.5195z" />
    <glyph glyph-name="five.dnom" horiz-adv-x="350" 
d="M287.07 323.45l-117.671 0.000976562l-4.57031 -39.3398l15.4102 -0.0800781c79.5303 0 139.4 -54.5801 139.4 -139.22c0 -108.87 -84.2598 -150.811 -156.6 -150.811c-56.7998 0 -105.85 29.0801 -132.29 70.1201l84.7695 54.7695
c8.25 -13.0898 29.8604 -27.1797 47.5107 -27.1797c29.6396 0 47.9697 22.7998 48.7002 49.25c-0.769531 27.7695 -20.4395 45.7598 -48.5195 45.7598h-105.16l29.0195 234.59h200v-97.8604z" />
    <glyph glyph-name="six.dnom" horiz-adv-x="364" 
d="M32.9805 139.78v127.259c0 92.6904 68.5898 160.311 163.2 160.311c64.9902 0 109.931 -36.3203 122.78 -47.9404l-63.8203 -72.3398c-8.95996 7.78027 -29.3203 22.8799 -61.3701 22.8799c-31.4102 0 -56.6797 -23.5703 -59.25 -48.8604l-0.669922 -17.8604
c13.1602 6.75 33.2803 16.04 54.21 16.04c78.2402 0 145.55 -60.8496 145.55 -139.489c0 -82.2197 -66.5303 -146.779 -150.36 -146.779c-83.8096 0 -150.27 64.5498 -150.27 146.78zM183.25 181.599c-27.9297 0 -42.4199 -18.8086 -42.4199 -45.2188
c0 -26.3203 14.8604 -45.3105 42.4199 -45.3105c27.6602 0 42.5098 18.7998 42.5098 45.3096c0 26.5801 -14.46 45.2197 -42.5098 45.2197z" />
    <glyph glyph-name="seven.dnom" horiz-adv-x="335" 
d="M305.2 348.21l-165.719 -348.22h-107.94l152.27 321.25h-147.28v97.6699h268.67v-70.7002z" />
    <glyph glyph-name="eight.dnom" horiz-adv-x="344" 
d="M172.48 428.16c71.2803 0 133.73 -45.6719 133.73 -123.452c0 -48.1602 -30.71 -73.5898 -45.71 -85.4102c16.8896 -12.4697 52.6299 -39.0801 52.6299 -95.0898c0 -86.1299 -63.6201 -130.21 -140.73 -130.21c-77.1201 0 -140.91 43.7305 -140.91 130.211
c0 56.3604 35.7695 82.79 52.7998 95.21c-14.9297 11.8604 -45.6201 37.6807 -45.6201 85.291c0 77.2305 62.5303 123.45 133.811 123.45zM172.49 332.258c-18.9102 0 -32.8496 -15.3301 -32.8496 -33.29c0 -17.9502 15.1201 -32.5801 32.7598 -32.5801
c17.6299 0 32.8398 13.9805 32.8398 32.5801s-13.8398 33.29 -32.75 33.29zM172.401 170.618c-23.4805 0 -40.6406 -19.5801 -40.6406 -40.1396c0 -20.5498 16.6699 -40.2998 40.6299 -40.2998c23.9697 0 40.46 19.4297 40.46 40.3096
c0 20.8701 -17.7695 40.1299 -40.4492 40.1299z" />
    <glyph glyph-name="nine.dnom" horiz-adv-x="364" 
d="M229.96 140.64l0.551758 17.3525c-13.1602 -6.75 -33.2803 -16.04 -54.21 -16.04c-78.2402 0 -145.55 60.8496 -145.55 139.489c0 82.2197 66.5498 146.38 150.359 146.38s150.27 -64.1504 150.27 -146.381v-127.26c0 -92.6904 -68.5898 -160.181 -163.2 -160.181
c-64.9805 0 -109.9 36.1699 -122.78 47.8096l63.8203 72.3496c8.95996 -7.79004 29.3203 -22.8896 61.3701 -22.8896c31.6396 0 57.2295 23.9404 59.3691 49.3701zM181.111 330.152c-27.6299 0 -42.5098 -18.8115 -42.5098 -45.3115
c0 -26.5898 14.5098 -45.2197 42.5098 -45.2197c27.9297 0 42.4199 18.8203 42.4199 45.2207c0 26.3203 -14.8604 45.3105 -42.4199 45.3105z" />
    <glyph glyph-name="zero.numr" horiz-adv-x="366" 
d="M32.9805 418.15v144.27c0 70.7002 42.6201 144.641 150.96 144.641c108.28 0 149.21 -75.4004 149.17 -145.08v-144.28c0 -70.6299 -42.6904 -144.63 -150.96 -144.63s-149.17 75.3701 -149.17 145.08zM220.98 412.479v154.75
c0 19.0703 -7.62012 42.3799 -37.1104 42.3799c-29.5303 0 -38.7402 -21.8496 -38.7402 -41.9697v-154.75c0 -19.0703 7.58008 -42.3799 37.1104 -42.3799s38.7402 21.8496 38.7402 41.9697z" />
    <glyph glyph-name="one.numr" horiz-adv-x="265" 
d="M232.8 279h-105.61v261.84c-7.36035 -6.76953 -18.4404 -12.1396 -30.6904 -16c-16.7695 -5.05957 -35.5596 -7.44922 -49.1592 -7.12891l-26.5596 105.88c21.21 -0.339844 49 6.23047 72.54 19.5c22.6396 12.5996 41.4795 31.6396 47.4395 56.9092h92.04v-421z" />
    <glyph glyph-name="two.numr" horiz-adv-x="344" 
d="M134.62 561.63l-103.719 29.4395c25.5 75.1602 67.29 115.12 147.49 115.12c81.1201 0 135.79 -58.3398 135.79 -133.33c0 -40.5801 -15.3604 -79.5898 -44.3408 -109.89l-80.7998 -87.9102h125.14v-96.0195h-280.13v71.4805l140.93 162.74
c28.5195 33.0898 33.4492 50.8203 33.4492 62.8398c0 15.4199 -10.1396 32.3096 -30.04 32.3096c-24.3096 0 -33.1191 -11 -43.7695 -46.7803z" />
    <glyph glyph-name="three.numr" horiz-adv-x="349" 
d="M138.93 585.61l-96.2832 38.127c19.8203 48.75 71.6904 83.6504 126 83.6504c64.2305 0 125.87 -44.2002 125.87 -123.26c0 -36 -15.21 -56.0996 -33.0801 -72.4492c44.2803 -27.8496 56.3203 -63.4092 56.3203 -102.339c0 -81.0596 -67.5 -135.92 -149.26 -135.92
c-61.04 0 -107.48 30.3301 -133.5 70.3701l84.8203 54.8301c7.98047 -12.5898 27.3408 -23.8799 47.2412 -23.8799c25.0303 0 42.7607 18.1602 42.7607 44.2197c0 26.8799 -15.5 46.3496 -41.3301 46.3496h-31.2402v87.2695h26.6602
c17.0498 0 25.8496 15.3701 25.8496 27.4404c0 14.3799 -10.9697 26.1602 -24.4795 26.1602c-13.9297 0 -22.4199 -9.42969 -26.3496 -20.5693z" />
    <glyph glyph-name="four.numr" horiz-adv-x="349" 
d="M291.2 464.99h28.0586v-97.1797h-28.0596v-88.6904h-108.01v88.6904h-154.68v88.96l154.32 243.45h108.37v-235.23zM132.688 464.99h55.9297v95.5195z" />
    <glyph glyph-name="five.numr" horiz-adv-x="350" 
d="M287.07 602.13l-117.671 0.00878906l-4.57031 -39.3398l14.9404 -0.0595703c79.7803 0 139.87 -54.4502 139.87 -139.25c0 -108.86 -84.2598 -150.96 -156.6 -150.96c-56.7998 0 -105.85 29.2402 -132.29 70.2803l84.7695 54.7695
c8.25 -13.0898 29.8604 -27.1797 47.5107 -27.1797c29.6396 0 47.9697 22.7998 48.7002 49.2402c-0.769531 27.7803 -20.4395 45.7607 -48.5195 45.7607h-105.16l29.0195 234.6h200v-97.8701z" />
    <glyph glyph-name="six.numr" horiz-adv-x="364" 
d="M32.9805 419.5l0.000976562 127.259c0 92.6797 68.5898 160.3 163.2 160.3c64.9902 0 109.931 -36.3096 122.78 -47.9297l-63.8203 -72.3496c-8.95996 7.79004 -29.3203 22.8896 -61.3701 22.8896c-31.9404 0 -57.6104 -24.4404 -59.5107 -50.04l-0.410156 -16.6797
c13.1602 6.75 33.2803 16.04 54.21 16.04c78.2402 0 145.55 -60.8496 145.55 -139.479c0 -82.2305 -66.5303 -146.391 -150.36 -146.391c-83.8096 0 -150.27 64.1504 -150.27 146.381zM183.251 461.309c-27.9297 0 -42.4199 -18.8086 -42.4199 -45.2188
c0 -26.3203 14.8604 -45.3105 42.4199 -45.3105c27.6602 0 42.5098 18.7998 42.5098 45.3096c0 26.5801 -14.46 45.2197 -42.5098 45.2197z" />
    <glyph glyph-name="seven.numr" horiz-adv-x="335" 
d="M305.2 629.3l-165.719 -348.22h-107.94l152.27 321.24h-147.28v97.6797h268.67v-70.7002z" />
    <glyph glyph-name="eight.numr" horiz-adv-x="344" 
d="M172.48 707.46c71.2803 0 133.721 -45.6709 133.721 -123.451c0 -48.1602 -30.71 -73.5898 -45.71 -85.4199c16.8896 -12.4697 52.6299 -39.0801 52.6299 -95.0801c0 -86.1396 -63.6104 -130.359 -140.73 -130.359c-77.1104 0 -140.9 43.8701 -140.9 130.36
c0 56.3496 35.7695 82.7793 52.7998 95.209c-14.9297 11.8496 -45.6201 37.6699 -45.6201 85.2803c0 77.2305 62.5303 123.461 133.811 123.461zM172.48 611.559c-18.9102 0 -32.8398 -15.3301 -32.8398 -33.29c0 -17.9502 15.1201 -32.5801 32.75 -32.5801
c17.6396 0 32.8398 13.9805 32.8398 32.5801s-13.8398 33.29 -32.75 33.29zM172.391 449.919c-23.4805 0 -40.6299 -19.5801 -40.6299 -40.1396c0 -20.5498 16.6602 -40.2998 40.6299 -40.2998c23.96 0 40.4502 19.4297 40.4502 40.3096
c0 20.8701 -17.7598 40.1299 -40.4502 40.1299z" />
    <glyph glyph-name="nine.numr" horiz-adv-x="364" 
d="M230.28 421.61l0.232422 15.6309c-13.1699 -6.75 -33.2803 -16.04 -54.2207 -16.04c-78.2305 0 -145.551 60.8496 -145.551 139.489c0 82.2197 66.5498 146.38 150.359 146.38s150.27 -64.1504 150.27 -146.381v-127.26c0 -92.6904 -68.5898 -160.33 -163.189 -160.33
c-64.9902 0 -109.9 36.3203 -122.78 47.96l63.8096 72.3496c8.96973 -7.79004 29.3301 -22.8896 61.3701 -22.8896c32.4199 0 58.3799 25.2305 59.7002 51.0908zM181.103 609.401c-27.6299 0 -42.5098 -18.8018 -42.5098 -45.3115
c0 -26.5898 14.5098 -45.2197 42.5098 -45.2197c27.9297 0 42.4199 18.8203 42.4199 45.2207c0 26.3203 -14.8496 45.3105 -42.4199 45.3105z" />
    <glyph glyph-name="onesuperior" unicode="&#xb9;" horiz-adv-x="257" 
d="M232.8 279l-105.611 -0.0107422v261.84c-7.80957 -7.17969 -19.9092 -12.7695 -33.1191 -16.6592c-16.1504 -4.58008 -33.7705 -6.75 -46.7305 -6.45996l-26.5596 105.88c21.75 -0.370117 50.4297 6.5498 74.3301 20.5303
c21.8203 12.5801 39.8203 31.2803 45.6504 55.8799h92.04v-421z" />
    <glyph glyph-name="twosuperior" unicode="&#xb2;" horiz-adv-x="344" 
d="M134.62 561.63l-103.719 29.4395c25.5 75.1602 67.29 115.12 147.49 115.12c81.1201 0 135.79 -58.3398 135.79 -133.33c0 -40.5801 -15.3604 -79.5898 -44.3408 -109.89l-80.7998 -87.9102h125.14v-96.0195h-280.13v71.4805l140.93 162.74
c28.5195 33.0898 33.4492 50.8203 33.4492 62.8398c0 15.4199 -10.1396 32.3096 -30.04 32.3096c-24.3096 0 -33.1191 -11 -43.7695 -46.7803z" />
    <glyph glyph-name="threesuperior" unicode="&#xb3;" horiz-adv-x="358" 
d="M138.93 585.61l-96.2832 38.127c19.8203 48.75 71.6904 83.6504 126 83.6504c64.2305 0 125.87 -44.2002 125.87 -123.26c0 -36 -15.21 -56.0996 -33.0801 -72.4492c44.2803 -27.8496 56.3203 -63.4092 56.3203 -102.339c0 -81.0596 -66.8701 -135.92 -149.26 -135.92
c-61.04 0 -107.48 30.3301 -133.5 70.3701l84.8203 54.8301c7.98047 -12.5898 27.3408 -23.8799 47.2412 -23.8799c25.0303 0 42.7607 18.1602 42.7607 44.2197c0 26.8799 -15.5 46.3496 -41.3301 46.3496h-31.2402v87.2695h26.6602
c17.0498 0 25.8496 15.3701 25.8496 27.4404c0 14.3799 -10.9697 26.1602 -24.4795 26.1602c-13.9297 0 -22.4199 -9.42969 -26.3496 -20.5693z" />
    <glyph glyph-name="asterisk" unicode="*" horiz-adv-x="488" 
d="M288.53 573.54l120.049 48.6406l32.7998 -100.79l-122.85 -32.1396l82.5898 -98.8604l-85.9199 -62.3604l-67.8496 106.78l-68.8301 -108.66l-85.5801 62.3301l80.25 97.0801l-124.68 33.0596l33.1201 100.68l116.86 -47.9502l-8.12012 128.65h106.11z" />
    <glyph glyph-name="backslash" unicode="\" horiz-adv-x="470" 
d="M432.1 0h-149.15l-242.95 700h149.15z" />
    <glyph glyph-name="bullet" unicode="&#x2022;" horiz-adv-x="408" 
d="M200.64 483.3c84.04 0 152.28 -68.2402 152.28 -152.28c0 -84.0498 -68.2402 -152.13 -152.28 -152.13c-84.0498 0 -152.13 68.0801 -152.13 152.13c0 84.04 68.0801 152.28 152.13 152.28z" />
    <glyph glyph-name="colon" unicode=":" horiz-adv-x="227" 
d="M113.91 476.19c45.4502 0 83.0898 -37.6396 83.0898 -83.0898s-37.6396 -83.0605 -83.0898 -83.0605s-83.2705 37.6104 -83.2705 83.0605s37.8203 83.0898 83.2705 83.0898zM114.05 156.78c45.4502 0 83.0898 -37.6396 83.0898 -83.0898
s-37.6396 -82.7002 -83.0898 -82.7002s-83.2705 37.25 -83.2705 82.7002s37.8203 83.0898 83.2705 83.0898z" />
    <glyph glyph-name="comma" unicode="," horiz-adv-x="228" 
d="M24.3496 -104l36.6504 115.159c-17.6201 15.2305 -28.9004 37.7109 -28.9004 62.5312c0 45.4502 37.6396 83.0898 83.0898 83.0898s83.0898 -37.6396 83.0898 -83.0898c0 -14.1201 -3.63965 -27.4902 -10.0098 -39.2002l-65.0498 -138.49h-98.8701z" />
    <glyph glyph-name="ellipsis" unicode="&#x2026;" horiz-adv-x="758" 
d="M114.57 156.81c45.4502 0 83.0898 -37.6396 83.0898 -83.0898s-37.6396 -82.7305 -83.0898 -82.7305s-83.0898 37.2803 -83.0898 82.7305s37.6396 83.0898 83.0898 83.0898zM379.721 156.81c45.4502 0 83.0898 -37.6396 83.0898 -83.0898
s-37.6396 -82.7305 -83.0898 -82.7305s-83.0898 37.2803 -83.0898 82.7305s37.6396 83.0898 83.0898 83.0898zM645.021 156.81c45.4502 0 83.0898 -37.6396 83.0898 -83.0898s-37.6396 -82.7305 -83.0898 -82.7305s-83.0898 37.2803 -83.0898 82.7305
s37.6396 83.0898 83.0898 83.0898z" />
    </font>
</defs>
</svg>
